SplineFontDB: 3.2
FontName: Sunuwar_combined_PUA
FullName: Sunuwar combined PUA
FamilyName: Sunuwar_combined_PUA
Weight: Book
Copyright: Derived from Kirat1 and Lonkuch fonts for Koits Blese and Tikamuli scripts.
Version: Sunuwar combined PUA
ItalicAngle: 4
UnderlinePosition: -292
UnderlineWidth: 150
Ascent: 1638
Descent: 410
InvalidEm: 0
sfntRevision: 0x00010000
LayerCount: 2
Layer: 0 1 "Back" 1
Layer: 1 1 "Fore" 0
XUID: [1021 241 1869016969 3013093]
StyleMap: 0x0040
FSType: 8
OS2Version: 1
OS2_WeightWidthSlopeOnly: 0
OS2_UseTypoMetrics: 0
CreationTime: 1086700641
ModificationTime: 1603405129
PfmFamily: 17
TTFWeight: 400
TTFWidth: 5
LineGap: 67
VLineGap: 0
Panose: 2 0 0 0 0 0 0 0 0 0
OS2TypoAscent: 1491
OS2TypoAOffset: 0
OS2TypoDescent: -431
OS2TypoDOffset: 0
OS2TypoLinegap: 307
OS2WinAscent: 1854
OS2WinAOffset: 0
OS2WinDescent: 434
OS2WinDOffset: 0
HheadAscent: 1854
HheadAOffset: 0
HheadDescent: -434
HheadDOffset: 0
OS2SubXSize: 1434
OS2SubYSize: 1331
OS2SubXOff: 0
OS2SubYOff: 283
OS2SupXSize: 1434
OS2SupYSize: 1331
OS2SupXOff: 0
OS2SupYOff: 977
OS2StrikeYSize: 102
OS2StrikeYPos: 530
OS2FamilyClass: 2575
OS2Vendor: 'HL  '
OS2CodePages: 4000001f.00000000
OS2UnicodeRanges: 00000287.00000000.00000000.00000000
MarkAttachClasses: 1
DEI: 91125
ShortTable: maxp 16
  1
  0
  653
  101
  6
  0
  0
  2
  16
  47
  66
  0
  1036
  0
  0
  0
EndShort
LangName: 1033 "Typeface +AKkA <Shyan Kirat Rai>. 2004. All Rights Reserved" "" "Regular" "" "" "kirat1" "" "Typeface +AKkA <Shyan Kirat Rai>. 2004. All Rights Reserved" "" "" "This font was created using the Font Creator Program 4.1 from High-Logic.com"
LangName: 1027 "" "" "Normal"
LangName: 1029 "" "" "oby+AQ0A-ejn+AOkA"
LangName: 1030 "" "" "normal"
LangName: 1031 "" "" "Standard"
LangName: 1032 "" "" "+A5oDsQO9A78DvQO5A7oDrAAA"
LangName: 1034 "" "" "Normal"
LangName: 1035 "" "" "Normaali"
LangName: 1036 "" "" "Normal"
LangName: 1038 "" "" "Norm+AOEA-l"
LangName: 1040 "" "" "Normale"
LangName: 1043 "" "" "Standaard"

StartChar: .notdef
Encoding: 0 -1 0
Width: 1536
Flags: W
LayerCount: 2
Fore
SplineSet
256 0 m 1,0,-1
 256 1280 l 1,1,-1
 1280 1280 l 1,2,-1
 1280 0 l 1,3,-1
 256 0 l 1,0,-1
288 32 m 1,4,-1
 1248 32 l 1,5,-1
 1248 1248 l 1,6,-1
 288 1248 l 1,7,-1
 288 32 l 1,4,-1
EndSplineSet
Validated: 1
EndChar

StartChar: uniED3C
Encoding: 1 60732 1
Width: 0
Flags: W
AnchorPoint: "top" -59.5 1256 mark 0
LayerCount: 2
Fore
SplineSet
-127.5 1572 m 1,0,-1
 0.5 1572 l 1,1,-1
 0.5 1248 l 1,2,-1
 -107.5 1424 l 1,3,-1
 -127.5 1572 l 1,0,-1
EndSplineSet
Validated: 1
EndChar

StartChar: uniED2D
Encoding: 2 60717 2
Width: 0
Flags: W
AnchorPoint: "bottom" -587 20 mark 0
LayerCount: 2
Fore
SplineSet
-1060 -420 m 1,0,-1
 -587 -17 l 1,1,-1
 -90 -420 l 1,2,-1
 -305 -420 l 1,3,-1
 -591 -194 l 1,4,-1
 -844 -420 l 1,5,-1
 -1060 -420 l 1,0,-1
EndSplineSet
EndChar

StartChar: exclam
Encoding: 3 60705 3
Width: 2401
Flags: W
AnchorPoint: "top" 982 1426 basechar 0
AnchorPoint: "bottom" 1066 -106 basechar 0
LayerCount: 2
Fore
SplineSet
1354 1286 m 1,0,-1
 2087 1286 l 1,1,-1
 2087 15 l 1,2,-1
 1208 15 l 1,3,-1
 1306 197 l 1,4,-1
 1500 435 l 1,5,-1
 1648 651 l 1,6,-1
 1255 651 l 1,7,-1
 1354 832 l 1,8,-1
 1500 1195 l 1,9,-1
 1208 1195 l 1,10,-1
 1354 1286 l 1,0,-1
1648 1195 m 1,11,-1
 1452 741 l 1,12,-1
 1694 745 l 1,13,-1
 1881 741 l 1,14,-1
 1774 583 l 1,15,-1
 1436 105 l 1,16,-1
 1941 105 l 1,17,-1
 1941 1195 l 1,18,-1
 1648 1195 l 1,11,-1
590 1211 m 1,19,-1
 600 700 l 1,20,-1
 800 700 l 2,21,22
 1200 700 1200 700 1100 500 c 1,23,24
 800 300 800 300 900 250 c 128,-1,25
 1000 200 1000 200 1200 400 c 1,26,-1
 1200 100 l 1,27,28
 1000 0 1000 0 850 0 c 128,-1,29
 700 0 700 0 650 150 c 128,-1,30
 600 300 600 300 800 500 c 1,31,-1
 600 500 l 1,32,-1
 600 0 l 1,33,-1
 400 100 l 1,34,-1
 400 300 l 1,35,-1
 400 500 l 1,36,-1
 100 500 l 1,37,-1
 0 700 l 1,38,-1
 400 700 l 1,39,-1
 400 900 l 1,40,-1
 400 1301 l 1,41,-1
 590 1211 l 1,19,-1
EndSplineSet
EndChar

StartChar: numbersign
Encoding: 4 60707 4
Width: 1957
Flags: W
AnchorPoint: "top" 974 1422 basechar 0
AnchorPoint: "bottom" 982 -94 basechar 0
LayerCount: 2
Fore
SplineSet
590 1211 m 1,0,-1
 600 700 l 1,1,-1
 800 700 l 2,2,3
 1200 700 1200 700 1100 500 c 1,4,5
 800 300 800 300 900 250 c 128,-1,6
 1000 200 1000 200 1200 400 c 1,7,-1
 1200 100 l 1,8,9
 1000 0 1000 0 850 0 c 128,-1,10
 700 0 700 0 650 150 c 128,-1,11
 600 300 600 300 800 500 c 1,12,-1
 600 500 l 1,13,-1
 600 0 l 1,14,-1
 400 100 l 1,15,-1
 400 300 l 1,16,-1
 400 500 l 1,17,-1
 100 500 l 1,18,-1
 0 700 l 1,19,-1
 400 700 l 1,20,-1
 400 900 l 1,21,-1
 400 1301 l 1,22,-1
 590 1211 l 1,0,-1
1135 744 m 1,23,24
 1119 866 1119 866 1119 961 c 0,25,26
 1119 1276 1119 1276 1299 1298 c 0,27,28
 1353 1305 1353 1305 1402 1305 c 0,29,30
 1565 1305 1565 1305 1669 1230 c 0,31,32
 1804 1133 1804 1133 1742 938.5 c 128,-1,33
 1680 744 1680 744 1598.5 597.5 c 128,-1,34
 1517 451 1517 451 1467.5 365 c 128,-1,35
 1418 279 1418 279 1368 197 c 128,-1,36
 1318 115 1318 115 1918 515 c 1,37,-1
 1818 315 l 1,38,39
 1590 61 1590 61 1402 13 c 0,40,41
 1355 2 1355 2 1320 2 c 0,42,43
 1212 2 1212 2 1210 111 c 0,44,45
 1207 257 1207 257 1391.5 547 c 128,-1,46
 1576 837 1576 837 1583 987 c 128,-1,47
 1590 1137 1590 1137 1498.5 1164.5 c 128,-1,48
 1407 1192 1407 1192 1347 1162.5 c 128,-1,49
 1287 1133 1287 1133 1287 841 c 1,50,-1
 1135 744 l 1,23,24
EndSplineSet
EndChar

StartChar: dollar
Encoding: 5 60708 5
Width: 2416
Flags: W
AnchorPoint: "top" 1118 1414 basechar 0
AnchorPoint: "bottom" 1178 -110 basechar 0
LayerCount: 2
Fore
SplineSet
600 1200 m 1,0,-1
 600 700 l 1,1,-1
 800 700 l 2,2,3
 1200 700 1200 700 1100 500 c 1,4,5
 800 300 800 300 900 250 c 128,-1,6
 1000 200 1000 200 1200 400 c 1,7,-1
 1200 100 l 1,8,9
 1000 0 1000 0 850 0 c 128,-1,10
 700 0 700 0 650 150 c 128,-1,11
 600 300 600 300 800 500 c 1,12,-1
 600 500 l 1,13,-1
 600 0 l 1,14,-1
 400 100 l 1,15,-1
 400 300 l 1,16,-1
 400 500 l 1,17,-1
 100 500 l 1,18,-1
 0 700 l 1,19,-1
 400 700 l 1,20,-1
 400 900 l 1,21,-1
 400 1301 l 1,22,-1
 600 1200 l 1,0,-1
1570 1305 m 1,23,-1
 1780 1204 l 1,24,-1
 1780 945 l 1,25,-1
 2330 943 l 1,26,-1
 2170 769 l 1,27,-1
 1780 765 l 1,28,-1
 1780 204 l 1,29,-1
 2380 204 l 1,30,-1
 2133 4 l 1,31,-1
 1133 4 l 1,32,-1
 1280 204 l 1,33,-1
 1580 204 l 1,34,-1
 1580 769 l 1,35,-1
 1070 772 l 1,36,-1
 1270 945 l 1,37,-1
 1570 945 l 1,38,-1
 1570 1305 l 1,23,-1
EndSplineSet
EndChar

StartChar: percent
Encoding: 6 60709 6
Width: 1422
Flags: W
AnchorPoint: "top" 747 1376 basechar 0
AnchorPoint: "bottom" 762 -43 basechar 0
LayerCount: 2
Fore
SplineSet
984 1301 m 1,0,-1
 1165 1183 l 1,1,-1
 1168 834 l 1,2,-1
 1400 970 l 1,3,-1
 1400 775 l 1,4,-1
 1165 643 l 1,5,-1
 1165 9 l 1,6,-1
 977 109 l 1,7,-1
 978 570 l 1,8,-1
 802 479 l 1,9,-1
 800 681 l 1,10,-1
 978 760 l 1,11,-1
 984 1301 l 1,0,-1
794 1290 m 1,12,13
 791 150 791 150 795 90 c 1,14,-1
 795 87 l 2,15,16
 795 29 795 29 646 7 c 0,17,18
 594 0 594 0 545 0 c 0,19,20
 448 0 448 0 361 29 c 0,21,22
 228 72 228 72 20 300 c 1,23,-1
 20 500 l 1,24,25
 341 213 341 213 469.5 163.5 c 128,-1,26
 598 114 598 114 620 200 c 1,27,-1
 620 500 l 1,28,29
 -459 826 -459 826 341 1102 c 1,30,-1
 794 1290 l 1,12,13
620 1075 m 1,31,32
 -180 840 -180 840 620 668 c 1,33,-1
 620 1075 l 1,31,32
EndSplineSet
EndChar

StartChar: ampersand
Encoding: 7 60710 7
Width: 2086
Flags: W
AnchorPoint: "top" 1034 1438 basechar 0
AnchorPoint: "bottom" 1078 -98 basechar 0
LayerCount: 2
Fore
SplineSet
1644 1260 m 128,-1,1
 1671 1260 1671 1260 1700 1253 c 128,-1,2
 1729 1246 1729 1246 1751 1236.5 c 128,-1,3
 1773 1227 1773 1227 1792 1214.5 c 128,-1,4
 1811 1202 1811 1202 1843.5 1171.5 c 128,-1,5
 1876 1141 1876 1141 1904.5 1104 c 128,-1,6
 1933 1067 1933 1067 1954 1024.5 c 128,-1,7
 1975 982 1975 982 1999.5 908.5 c 128,-1,8
 2024 835 2024 835 2029 807.5 c 128,-1,9
 2034 780 2034 780 2039 685 c 0,10,11
 2040 657 2040 657 2040 631 c 0,12,13
 2040 565 2040 565 2032 503 c 0,14,15
 2021 415 2021 415 1985.5 320.5 c 128,-1,16
 1950 226 1950 226 1926 186 c 128,-1,17
 1902 146 1902 146 1871.5 113 c 128,-1,18
 1841 80 1841 80 1823.5 66.5 c 128,-1,19
 1806 53 1806 53 1764 32 c 128,-1,20
 1722 11 1722 11 1696.5 5.5 c 128,-1,21
 1671 0 1671 0 1644 0 c 256,22,23
 1617 0 1617 0 1588.5 7 c 128,-1,24
 1560 14 1560 14 1538 23.5 c 128,-1,25
 1516 33 1516 33 1497.5 45.5 c 128,-1,26
 1479 58 1479 58 1445.5 88.5 c 128,-1,27
 1412 119 1412 119 1384.5 156 c 128,-1,28
 1357 193 1357 193 1335 235.5 c 128,-1,29
 1313 278 1313 278 1289.5 351.5 c 128,-1,30
 1266 425 1266 425 1260.5 452 c 128,-1,31
 1255 479 1255 479 1250 574.5 c 128,-1,32
 1245 670 1245 670 1256.5 757.5 c 128,-1,33
 1268 845 1268 845 1303.5 939.5 c 128,-1,34
 1339 1034 1339 1034 1363.5 1074 c 128,-1,35
 1388 1114 1388 1114 1418 1147 c 128,-1,36
 1448 1180 1448 1180 1466 1193.5 c 128,-1,37
 1484 1207 1484 1207 1525.5 1228 c 128,-1,38
 1567 1249 1567 1249 1592 1254.5 c 128,-1,0
 1617 1260 1617 1260 1644 1260 c 128,-1,1
1593.5 1082 m 128,-1,40
 1562 1069 1562 1069 1539 1048.5 c 128,-1,41
 1516 1028 1516 1028 1506.5 1016 c 128,-1,42
 1497 1004 1497 1004 1480 976 c 128,-1,43
 1463 948 1463 948 1444 899 c 128,-1,44
 1425 850 1425 850 1412.5 772.5 c 128,-1,45
 1400 695 1400 695 1399 650.5 c 128,-1,46
 1398 606 1398 606 1403.5 544 c 128,-1,47
 1409 482 1409 482 1418 445 c 128,-1,48
 1427 408 1427 408 1445 359.5 c 128,-1,49
 1463 311 1463 311 1480 283.5 c 128,-1,50
 1497 256 1497 256 1506.5 244 c 128,-1,51
 1516 232 1516 232 1539 211.5 c 128,-1,52
 1562 191 1562 191 1593.5 178 c 128,-1,53
 1625 165 1625 165 1644 165 c 128,-1,54
 1663 165 1663 165 1694.5 178 c 128,-1,55
 1726 191 1726 191 1749.5 211.5 c 128,-1,56
 1773 232 1773 232 1783 244 c 128,-1,57
 1793 256 1793 256 1809.5 283.5 c 128,-1,58
 1826 311 1826 311 1845 360.5 c 128,-1,59
 1864 410 1864 410 1876.5 487.5 c 128,-1,60
 1889 565 1889 565 1889 631 c 128,-1,61
 1889 697 1889 697 1875 773.5 c 128,-1,62
 1861 850 1861 850 1836 913 c 128,-1,63
 1811 976 1811 976 1792 1002 c 128,-1,64
 1773 1028 1773 1028 1749.5 1048.5 c 128,-1,65
 1726 1069 1726 1069 1712.5 1076.5 c 128,-1,66
 1699 1084 1699 1084 1681 1088 c 128,-1,67
 1663 1092 1663 1092 1644 1093.5 c 128,-1,39
 1625 1095 1625 1095 1593.5 1082 c 128,-1,40
600 1200 m 1,68,-1
 600 700 l 1,69,-1
 800 700 l 2,70,71
 1200 700 1200 700 1100 500 c 1,72,73
 800 300 800 300 900 250 c 128,-1,74
 1000 200 1000 200 1200 400 c 1,75,-1
 1200 100 l 1,76,77
 1000 0 1000 0 850 0 c 128,-1,78
 700 0 700 0 650 150 c 128,-1,79
 600 300 600 300 800 500 c 1,80,-1
 600 500 l 1,81,-1
 600 0 l 1,82,-1
 400 100 l 1,83,-1
 400 300 l 1,84,-1
 400 500 l 1,85,-1
 100 500 l 1,86,-1
 0 700 l 1,87,-1
 400 700 l 1,88,-1
 400 900 l 1,89,-1
 400 1301 l 1,90,-1
 600 1200 l 1,68,-1
EndSplineSet
EndChar

StartChar: quotesingle
Encoding: 8 60711 8
Width: 0
Flags: W
AnchorPoint: "top" -559 1282 mark 0
LayerCount: 2
Fore
SplineSet
-701.5 1700 m 1,0,-1
 -501.5 1700 l 1,1,-1
 -501.5 1541 l 1,2,-1
 -134.5 1540 l 1,3,-1
 -1.5 1348 l 1,4,-1
 -972.5 1347 l 1,5,-1
 -1041.5 1532 l 1,6,-1
 -701.5 1532 l 1,7,-1
 -701.5 1700 l 1,0,-1
EndSplineSet
EndChar

StartChar: asterisk
Encoding: 9 60714 9
Width: 1228
Flags: W
AnchorPoint: "top" 566 1394 basechar 0
AnchorPoint: "bottom" 626 -94 basechar 0
LayerCount: 2
Fore
SplineSet
412 1292 m 1,0,-1
 583 1239 l 1,1,-1
 583 1156 l 1,2,-1
 754 1156 l 1,3,-1
 840 1051 l 1,4,-1
 240 1051 l 1,5,-1
 155 1156 l 1,6,-1
 412 1156 l 1,7,-1
 412 1292 l 1,0,-1
600 1200 m 1,8,-1
 600 700 l 1,9,-1
 800 700 l 2,10,11
 1200 700 1200 700 1100 500 c 1,12,13
 800 300 800 300 900 250 c 128,-1,14
 1000 200 1000 200 1200 400 c 1,15,-1
 1200 100 l 1,16,17
 1000 0 1000 0 850 0 c 128,-1,18
 700 0 700 0 650 150 c 128,-1,19
 600 300 600 300 800 500 c 1,20,-1
 600 500 l 1,21,-1
 600 0 l 1,22,-1
 400 100 l 1,23,-1
 400 300 l 1,24,-1
 400 500 l 1,25,-1
 100 500 l 1,26,-1
 0 700 l 1,27,-1
 400 700 l 1,28,-1
 400 900 l 1,29,-1
 400 1301 l 1,30,-1
 600 1200 l 1,8,-1
EndSplineSet
EndChar

StartChar: comma
Encoding: 10 60716 10
Width: 1150
Flags: W
AnchorPoint: "top" 504 1481 basechar 0
AnchorPoint: "bottom" 585 -43 basechar 0
LayerCount: 2
Fore
SplineSet
400 1300 m 1,0,-1
 400 900 l 1,1,-1
 700 900 l 1,2,-1
 1138 200 l 1,3,-1
 900 200 l 1,4,-1
 566 745 l 1,5,-1
 405 745 l 1,6,-1
 405 0 l 1,7,-1
 205 0 l 1,8,-1
 205 745 l 1,9,-1
 0 742 l 1,10,-1
 0 900 l 1,11,-1
 200 900 l 1,12,-1
 200 1300 l 1,13,-1
 400 1300 l 1,0,-1
EndSplineSet
EndChar

StartChar: period
Encoding: 11 60718 11
Width: 1098
Flags: W
AnchorPoint: "top" 440 1502 basechar 0
AnchorPoint: "bottom" 455 -70 basechar 0
LayerCount: 2
Fore
SplineSet
200 1301 m 1,0,-1
 200 967 l 1,1,2
 438 1000 438 1000 619 930 c 128,-1,3
 800 860 800 860 862 718.5 c 128,-1,4
 924 577 924 577 912 403.5 c 128,-1,5
 900 230 900 230 750 101.5 c 128,-1,6
 600 -27 600 -27 350 12 c 128,-1,7
 100 51 100 51 0 280 c 1,8,-1
 193 271 l 1,9,10
 377 131 377 131 538.5 184.5 c 128,-1,11
 700 238 700 238 717 431 c 128,-1,12
 734 624 734 624 620.5 732 c 128,-1,13
 507 840 507 840 200 800 c 1,14,-1
 200 534 l 1,15,-1
 0 586 l 1,16,-1
 0 1299 l 1,17,-1
 200 1301 l 1,0,-1
EndSplineSet
EndChar

StartChar: slash
Encoding: 12 60719 12
Width: 0
Flags: W
AnchorPoint: "bottom" -773 -36 mark 0
LayerCount: 2
Fore
SplineSet
-1180 -64 m 1,0,-1
 -375 -61 l 1,1,-1
 -280 -230 l 1,2,-1
 -1080 -229 l 1,3,-1
 -1180 -64 l 1,0,-1
EndSplineSet
Validated: 1
EndChar

StartChar: zero
Encoding: 13 60720 13
Width: 733
Flags: W
LayerCount: 2
Fore
SplineSet
0 922 m 1,1,-1
 10 379 l 1,2,3
 64 50 64 50 359 25 c 128,-1,4
 654 0 654 0 710 382 c 1,5,-1
 710 936 l 1,6,7
 610 1268 610 1268 360 1268 c 128,-1,0
 110 1268 110 1268 0 922 c 1,1,-1
156 936 m 1,8,9
 210 1107 210 1107 360 1101.5 c 128,-1,10
 510 1096 510 1096 564 936 c 1,11,-1
 564 382 l 1,12,13
 510 211 510 211 360 211 c 128,-1,14
 210 211 210 211 156 493 c 1,15,-1
 156 936 l 1,8,9
562 939 m 1,16,-1
 153 597 l 1,17,-1
 163 435 l 1,18,-1
 610 769 l 1,19,-1
 562 939 l 1,16,-1
EndSplineSet
Validated: 37
EndChar

StartChar: one
Encoding: 14 60721 14
Width: 344
Flags: W
LayerCount: 2
Fore
SplineSet
0 1307 m 1,0,-1
 0 100 l 1,1,-1
 255 -2 l 1,2,-1
 243 1200 l 1,3,-1
 0 1307 l 1,0,-1
EndSplineSet
Validated: 9
EndChar

StartChar: two
Encoding: 15 60722 15
Width: 1099
Flags: W
LayerCount: 2
Fore
SplineSet
345 1293 m 1,0,-1
 345 945 l 1,1,-1
 0 700 l 1,2,-1
 0 500 l 1,3,-1
 355 745 l 1,4,-1
 355 500 l 1,5,-1
 0 300 l 1,6,-1
 0 100 l 1,7,-1
 343 300 l 1,8,-1
 345 86 l 1,9,-1
 600 -16 l 1,10,-1
 600 400 l 1,11,-1
 1000 600 l 1,12,-1
 1000 800 l 1,13,-1
 600 600 l 1,14,-1
 600 850 l 1,15,-1
 1000 1055 l 1,16,-1
 1000 1250 l 1,17,-1
 600 1041 l 1,18,-1
 588 1186 l 1,19,-1
 466 1240 l 1,20,-1
 345 1293 l 1,0,-1
EndSplineSet
Validated: 9
EndChar

StartChar: three
Encoding: 16 60723 16
Width: 1090
Flags: W
LayerCount: 2
Fore
SplineSet
345 1293 m 1,0,-1
 345 945 l 1,1,-1
 0 700 l 1,2,-1
 0 500 l 1,3,-1
 355 745 l 1,4,-1
 355 500 l 1,5,-1
 0 300 l 1,6,-1
 0 100 l 1,7,-1
 343 300 l 1,8,-1
 345 86 l 1,9,-1
 600 -16 l 1,10,-1
 600 400 l 1,11,-1
 600 600 l 1,12,-1
 600 850 l 1,13,-1
 1000 1055 l 1,14,-1
 1000 1250 l 1,15,-1
 600 1041 l 1,16,-1
 588 1186 l 1,17,-1
 466 1240 l 1,18,-1
 345 1293 l 1,0,-1
EndSplineSet
Validated: 9
EndChar

StartChar: four
Encoding: 17 60724 17
Width: 704
Flags: W
LayerCount: 2
Fore
SplineSet
605 1301 m 1,0,-1
 -5 1301 l 1,1,-1
 -5 837 l 1,2,-1
 -1 14 l 1,3,-1
 605 8 l 1,4,-1
 601 708 l 1,5,-1
 605 1301 l 1,0,-1
128 1188 m 1,6,-1
 471 1183 l 1,7,-1
 470 153 l 1,8,-1
 134 153 l 1,9,-1
 128 1188 l 1,6,-1
EndSplineSet
Validated: 9
EndChar

StartChar: five
Encoding: 18 60725 18
Width: 709
Flags: W
LayerCount: 2
Fore
SplineSet
605 1301 m 1,0,-1
 -5 1301 l 1,1,-1
 -5 837 l 1,2,-1
 -1 14 l 1,3,-1
 605 8 l 1,4,-1
 601 708 l 1,5,-1
 605 1301 l 1,0,-1
122 1162 m 1,6,-1
 470 1157 l 1,7,-1
 455 883 l 1,8,-1
 470 409 l 1,9,-1
 469 160 l 1,10,-1
 143 155 l 1,11,-1
 142 544 l 1,12,-1
 500 544 l 1,13,-1
 500 689 l 1,14,-1
 139 689 l 1,15,-1
 122 1162 l 1,6,-1
EndSplineSet
Validated: 5
EndChar

StartChar: six
Encoding: 19 60726 19
Width: 1051
Flags: W
LayerCount: 2
Fore
SplineSet
443 1301 m 1,0,-1
 610 1301 l 1,1,-1
 719 1301 l 1,2,-1
 957 1301 l 1,3,-1
 960 7 l 1,4,-1
 0 10 l 1,5,-1
 100 143 l 1,6,-1
 414 144 l 1,7,-1
 800 143 l 1,8,-1
 800 1158 l 1,9,-1
 643 1157 l 1,10,11
 500 774 500 774 400 583 c 128,-1,12
 300 392 300 392 250 302.5 c 128,-1,13
 200 213 200 213 100 143 c 1,14,-1
 0 10 l 1,15,-1
 0 102 l 1,16,-1
 0 194 l 1,17,18
 266 564 266 564 333 732 c 128,-1,19
 400 900 400 900 500 1200 c 1,20,-1
 443 1200 l 1,21,-1
 443 1301 l 1,0,-1
EndSplineSet
Validated: 5
EndChar

StartChar: seven
Encoding: 20 60727 20
Width: 1236
Flags: W
LayerCount: 2
Fore
SplineSet
477 1301 m 1,0,-1
 795 1301 l 2,1,2
 954 1301 954 1301 914.5 1192.5 c 128,-1,3
 875 1084 875 1084 835 867.5 c 128,-1,4
 795 651 795 651 1034 217 c 1,5,-1
 1113 217 l 1,6,-1
 1193 0 l 1,7,-1
 1113 0 l 1,8,-1
 728 0 l 1,9,-1
 0 0 l 1,10,-1
 0 217 l 1,11,-1
 0 542 l 1,12,-1
 0 1084 l 1,13,-1
 0 1301 l 1,14,-1
 477 1301 l 1,0,-1
477 1084 m 1,15,-1
 477 759 l 1,16,-1
 477 217 l 1,17,-1
 875 217 l 1,18,19
 557 591 557 591 716 1084 c 1,20,-1
 477 1084 l 1,15,-1
318 1084 m 1,21,-1
 159 1084 l 1,22,-1
 159 759 l 1,23,-1
 159 434 l 1,24,-1
 159 217 l 1,25,-1
 318 217 l 1,26,-1
 318 759 l 1,27,-1
 318 1084 l 1,21,-1
EndSplineSet
Validated: 33
EndChar

StartChar: eight
Encoding: 21 60728 21
Width: 1009
Flags: W
LayerCount: 2
Fore
SplineSet
0 0 m 1,0,-1
 142 257 l 1,1,-1
 355 654 l 1,2,-1
 0 1305 l 1,3,-1
 200 1305 l 1,4,-1
 454 843 l 1,5,-1
 648 1100 l 1,6,-1
 800 1305 l 1,7,-1
 1000 1301 l 1,8,-1
 558 657 l 1,9,-1
 800 300 l 1,10,-1
 1000 0 l 1,11,-1
 800 0 l 1,12,-1
 458 500 l 1,13,-1
 200 0 l 1,14,-1
 0 0 l 1,0,-1
EndSplineSet
Validated: 1
EndChar

StartChar: nine
Encoding: 22 60729 22
Width: 744
Flags: W
LayerCount: 2
Fore
SplineSet
0 1307 m 1,0,-1
 0 100 l 1,1,-1
 255 -2 l 1,2,-1
 244 700 l 1,3,-1
 500 700 l 1,4,-1
 500 600 l 1,5,-1
 700 500 l 1,6,-1
 700 1000 l 1,7,-1
 500 1100 l 1,8,-1
 500 900 l 1,9,-1
 246 900 l 1,10,-1
 243 1200 l 1,11,-1
 0 1307 l 1,0,-1
EndSplineSet
Validated: 9
EndChar

StartChar: colon
Encoding: 23 60730 23
Width: 542
Flags: W
LayerCount: 2
Fore
SplineSet
283 580 m 1,0,-1
 543 407 l 1,1,-1
 283 232 l 1,2,-1
 29 407 l 1,3,-1
 283 580 l 1,0,-1
265 1000 m 1,4,-1
 535 847 l 1,5,-1
 265 693 l 1,6,-1
 0 847 l 1,7,-1
 265 1000 l 1,4,-1
EndSplineSet
Validated: 1
EndChar

StartChar: equal
Encoding: 24 60733 24
Width: 12
Flags: W
AnchorPoint: "top" -704 1355 mark 0
LayerCount: 2
Fore
SplineSet
-1100 1600 m 1,0,-1
 -200 1600 l 1,1,-1
 -285 1432 l 1,2,-1
 -1213 1432 l 1,3,-1
 -1100 1600 l 1,0,-1
-650 1850 m 1,4,-1
 -439 1744 l 1,5,-1
 -635 1618 l 1,6,-1
 -845 1739 l 1,7,-1
 -650 1850 l 1,4,-1
EndSplineSet
Validated: 1
EndChar

StartChar: at
Encoding: 25 60736 25
Width: 2595
Flags: W
LayerCount: 2
Fore
SplineSet
2167 530 m 1,0,-1
 2374 381 l 1,1,-1
 2167 236 l 1,2,-1
 1965 381 l 1,3,-1
 2167 530 l 1,0,-1
2171 927 m 1,4,-1
 2404 782 l 1,5,-1
 2171 637 l 1,6,-1
 1941 782 l 1,7,-1
 2171 927 l 1,4,-1
1830 595 m 256,8,9
 1830 437 1830 437 1890.5 322 c 128,-1,10
 1951 207 1951 207 2109 74 c 1,11,12
 1898 190 1898 190 1809 309.5 c 128,-1,13
 1720 429 1720 429 1720 595 c 0,14,15
 1720 762 1720 762 1807 878.5 c 128,-1,16
 1894 995 1894 995 2109 1114 c 1,17,18
 1955 980 1955 980 1892.5 866.5 c 128,-1,19
 1830 753 1830 753 1830 595 c 256,8,9
2205 1114 m 1,20,21
 2402 997 2402 997 2485 878 c 128,-1,22
 2568 759 2568 759 2568 595 c 0,23,24
 2568 426 2568 426 2486 309 c 128,-1,25
 2404 192 2404 192 2205 74 c 1,26,27
 2350 207 2350 207 2408 320.5 c 128,-1,28
 2466 434 2466 434 2466 595 c 0,29,30
 2466 751 2466 751 2410 865.5 c 128,-1,31
 2354 980 2354 980 2205 1114 c 1,20,21
600 1200 m 1,32,-1
 600 700 l 1,33,-1
 800 700 l 2,34,35
 1200 700 1200 700 1100 500 c 1,36,37
 800 300 800 300 900 250 c 128,-1,38
 1000 200 1000 200 1200 400 c 1,39,-1
 1200 100 l 1,40,41
 1000 0 1000 0 850 0 c 128,-1,42
 700 0 700 0 650 150 c 128,-1,43
 600 300 600 300 800 500 c 1,44,-1
 600 500 l 1,45,-1
 600 0 l 1,46,-1
 400 100 l 1,47,-1
 400 300 l 1,48,-1
 400 500 l 1,49,-1
 100 500 l 1,50,-1
 0 700 l 1,51,-1
 400 700 l 1,52,-1
 400 900 l 1,53,-1
 400 1301 l 1,54,-1
 600 1200 l 1,32,-1
1314 1301 m 1,55,-1
 1495 1183 l 1,56,-1
 1498 834 l 1,57,-1
 1730 970 l 1,58,-1
 1730 775 l 1,59,-1
 1495 643 l 1,60,-1
 1495 9 l 1,61,-1
 1307 109 l 1,62,-1
 1308 570 l 1,63,-1
 1132 479 l 1,64,-1
 1130 681 l 1,65,-1
 1308 760 l 1,66,-1
 1314 1301 l 1,55,-1
EndSplineSet
Validated: 33
EndChar

StartChar: A
Encoding: 26 60737 26
Width: 1123
Flags: W
AnchorPoint: "top" 476 1303 basechar 0
AnchorPoint: "bottom" 484 -44 basechar 0
LayerCount: 2
Fore
SplineSet
59 1262 m 1,0,-1
 900 1256 l 1,1,-1
 904 -2 l 1,2,-1
 -10 -2 l 1,3,-1
 330 588 l 1,4,-1
 -10 588 l 1,5,-1
 46 731 l 1,6,-1
 242 1170 l 1,7,-1
 0 1170 l 1,8,-1
 59 1262 l 1,0,-1
357 1153 m 1,9,-1
 200 723 l 1,10,-1
 549 728 l 1,11,-1
 200 97 l 1,12,-1
 784 107 l 1,13,-1
 784 1156 l 1,14,-1
 357 1153 l 1,9,-1
EndSplineSet
EndChar

StartChar: B
Encoding: 27 60738 27
Width: 1757
Flags: W
AnchorPoint: "top" 367 1421 basechar 0
AnchorPoint: "bottom" 402 -119 basechar 0
LayerCount: 2
Fore
SplineSet
396 1278 m 256,1,2
 423 1278 423 1278 452 1271 c 128,-1,3
 481 1264 481 1264 503 1254 c 128,-1,4
 525 1244 525 1244 544 1231.5 c 128,-1,5
 563 1219 563 1219 595.5 1188 c 128,-1,6
 628 1157 628 1157 656.5 1119.5 c 128,-1,7
 685 1082 685 1082 706 1038.5 c 128,-1,8
 727 995 727 995 751.5 921 c 128,-1,9
 776 847 776 847 781 819 c 128,-1,10
 786 791 786 791 790.5 694.5 c 128,-1,11
 795 598 795 598 784 510 c 128,-1,12
 773 422 773 422 737.5 326 c 128,-1,13
 702 230 702 230 678 189 c 128,-1,14
 654 148 654 148 623.5 114.5 c 128,-1,15
 593 81 593 81 575.5 67 c 128,-1,16
 558 53 558 53 516 32 c 128,-1,17
 474 11 474 11 448.5 5.5 c 128,-1,18
 423 0 423 0 396 0 c 256,19,20
 369 0 369 0 340.5 7 c 128,-1,21
 312 14 312 14 290 24 c 128,-1,22
 268 34 268 34 249.5 46.5 c 128,-1,23
 231 59 231 59 197.5 90 c 128,-1,24
 164 121 164 121 136.5 158.5 c 128,-1,25
 109 196 109 196 87 239.5 c 128,-1,26
 65 283 65 283 41.5 357 c 128,-1,27
 18 431 18 431 12.5 459 c 128,-1,28
 7 487 7 487 2 584 c 0,29,30
 0 613 0 613 0 641 c 0,31,32
 0 707 0 707 9 768 c 0,33,34
 20 856 20 856 55.5 952 c 128,-1,35
 91 1048 91 1048 115.5 1089 c 128,-1,36
 140 1130 140 1130 170 1163.5 c 128,-1,37
 200 1197 200 1197 218 1211 c 128,-1,38
 236 1225 236 1225 277.5 1246 c 128,-1,39
 319 1267 319 1267 344 1272.5 c 128,-1,0
 369 1278 369 1278 396 1278 c 256,1,2
345.5 1098 m 128,-1,41
 314 1085 314 1085 291 1064 c 128,-1,42
 268 1043 268 1043 258.5 1030 c 128,-1,43
 249 1017 249 1017 232 990 c 128,-1,44
 215 963 215 963 196 912.5 c 128,-1,45
 177 862 177 862 164.5 783.5 c 128,-1,46
 152 705 152 705 151 660 c 128,-1,47
 150 615 150 615 155.5 552 c 128,-1,48
 161 489 161 489 170 451 c 128,-1,49
 179 413 179 413 197 364 c 128,-1,50
 215 315 215 315 232 288 c 128,-1,51
 249 261 249 261 258.5 248 c 128,-1,52
 268 235 268 235 291 214 c 128,-1,53
 314 193 314 193 345.5 180 c 128,-1,54
 377 167 377 167 396 167 c 128,-1,55
 415 167 415 167 446.5 180 c 128,-1,56
 478 193 478 193 501.5 214 c 128,-1,57
 525 235 525 235 535 248 c 128,-1,58
 545 261 545 261 561.5 288 c 128,-1,59
 578 315 578 315 597 365.5 c 128,-1,60
 616 416 616 416 628.5 494.5 c 128,-1,61
 641 573 641 573 641 640 c 128,-1,62
 641 707 641 707 627 784.5 c 128,-1,63
 613 862 613 862 588 925.5 c 128,-1,64
 563 989 563 989 544 1016 c 128,-1,65
 525 1043 525 1043 501.5 1064 c 128,-1,66
 478 1085 478 1085 464.5 1092 c 128,-1,67
 451 1099 451 1099 433 1103 c 128,-1,68
 415 1107 415 1107 396 1109 c 128,-1,40
 377 1111 377 1111 345.5 1098 c 128,-1,41
1300 575 m 1,69,-1
 1504 419 l 1,70,-1
 1300 264 l 1,71,-1
 1101 419 l 1,72,-1
 1300 575 l 1,69,-1
1303 999 m 1,73,-1
 1534 845 l 1,74,-1
 1303 689 l 1,75,-1
 1076 845 l 1,76,-1
 1303 999 l 1,73,-1
966 644 m 0,77,78
 966 478 966 478 1026 356 c 128,-1,79
 1086 234 1086 234 1243 92 c 1,80,81
 1035 216 1035 216 947 343.5 c 128,-1,82
 859 471 859 471 859 644 c 0,83,84
 859 823 859 823 945.5 947 c 128,-1,85
 1032 1071 1032 1071 1243 1196 c 1,86,87
 1089 1054 1089 1054 1027.5 934 c 128,-1,88
 966 814 966 814 966 644 c 0,77,78
1336 1196 m 1,89,90
 1531 1073 1531 1073 1612.5 946.5 c 128,-1,91
 1694 820 1694 820 1694 644 c 0,92,93
 1694 466 1694 466 1614 341.5 c 128,-1,94
 1534 217 1534 217 1336 92 c 1,95,96
 1480 234 1480 234 1537 354.5 c 128,-1,97
 1594 475 1594 475 1594 644 c 0,98,99
 1594 812 1594 812 1538.5 933 c 128,-1,100
 1483 1054 1483 1054 1336 1196 c 1,89,90
EndSplineSet
EndChar

StartChar: O
Encoding: 28 60751 28
Width: 1054
Flags: W
AnchorPoint: "top" 405 1429 basechar 0
AnchorPoint: "bottom" 405 -80 basechar 0
LayerCount: 2
Fore
SplineSet
404 1278 m 256,1,2
 431 1278 431 1278 460 1271 c 128,-1,3
 489 1264 489 1264 511 1254 c 128,-1,4
 533 1244 533 1244 552 1231.5 c 128,-1,5
 571 1219 571 1219 603.5 1188 c 128,-1,6
 636 1157 636 1157 664.5 1119.5 c 128,-1,7
 693 1082 693 1082 714 1038.5 c 128,-1,8
 735 995 735 995 759.5 921 c 128,-1,9
 784 847 784 847 789 819 c 128,-1,10
 794 791 794 791 799 695 c 0,11,12
 800 666 800 666 800 639 c 0,13,14
 800 572 800 572 792 510 c 0,15,16
 781 422 781 422 745.5 326 c 128,-1,17
 710 230 710 230 686 189 c 128,-1,18
 662 148 662 148 631.5 114.5 c 128,-1,19
 601 81 601 81 583.5 67 c 128,-1,20
 566 53 566 53 524 32 c 128,-1,21
 482 11 482 11 456.5 5.5 c 128,-1,22
 431 0 431 0 404 0 c 256,23,24
 377 0 377 0 348.5 7 c 128,-1,25
 320 14 320 14 298 24 c 128,-1,26
 276 34 276 34 257.5 46.5 c 128,-1,27
 239 59 239 59 205.5 90 c 128,-1,28
 172 121 172 121 144.5 158.5 c 128,-1,29
 117 196 117 196 95 239.5 c 128,-1,30
 73 283 73 283 49.5 357 c 128,-1,31
 26 431 26 431 20.5 459 c 128,-1,32
 15 487 15 487 10 584 c 0,33,34
 8 613 8 613 8 641 c 0,35,36
 8 707 8 707 17 768 c 0,37,38
 28 856 28 856 63.5 952 c 128,-1,39
 99 1048 99 1048 123.5 1089 c 128,-1,40
 148 1130 148 1130 178 1163.5 c 128,-1,41
 208 1197 208 1197 226 1211 c 128,-1,42
 244 1225 244 1225 285.5 1246 c 128,-1,43
 327 1267 327 1267 352 1272.5 c 128,-1,0
 377 1278 377 1278 404 1278 c 256,1,2
353.5 1098 m 128,-1,45
 322 1085 322 1085 299 1064 c 128,-1,46
 276 1043 276 1043 266.5 1030 c 128,-1,47
 257 1017 257 1017 240 990 c 128,-1,48
 223 963 223 963 204 912.5 c 128,-1,49
 185 862 185 862 172.5 783.5 c 128,-1,50
 160 705 160 705 159 660 c 128,-1,51
 158 615 158 615 163.5 552 c 128,-1,52
 169 489 169 489 178 451 c 128,-1,53
 187 413 187 413 205 364 c 128,-1,54
 223 315 223 315 240 288 c 128,-1,55
 257 261 257 261 266.5 248 c 128,-1,56
 276 235 276 235 299 214 c 128,-1,57
 322 193 322 193 353.5 180 c 128,-1,58
 385 167 385 167 404 167 c 128,-1,59
 423 167 423 167 454.5 180 c 128,-1,60
 486 193 486 193 509.5 214 c 128,-1,61
 533 235 533 235 543 248 c 128,-1,62
 553 261 553 261 569.5 288 c 128,-1,63
 586 315 586 315 605 365.5 c 128,-1,64
 624 416 624 416 636.5 494.5 c 128,-1,65
 649 573 649 573 649 640 c 128,-1,66
 649 707 649 707 635 784.5 c 128,-1,67
 621 862 621 862 596 925.5 c 128,-1,68
 571 989 571 989 552 1016 c 128,-1,69
 533 1043 533 1043 509.5 1064 c 128,-1,70
 486 1085 486 1085 472.5 1092 c 128,-1,71
 459 1099 459 1099 441 1103 c 128,-1,72
 423 1107 423 1107 404 1109 c 128,-1,44
 385 1111 385 1111 353.5 1098 c 128,-1,45
EndSplineSet
EndChar

StartChar: asciicircum
Encoding: 29 60766 29
Width: 1621
Flags: W
AnchorPoint: "top" 786 1370 basechar 0
AnchorPoint: "bottom" 792 -68 basechar 0
LayerCount: 2
Fore
SplineSet
794 1290 m 1,0,1
 791 150 791 150 795 90 c 1,2,-1
 795 87 l 2,3,4
 795 29 795 29 646 7 c 0,5,6
 594 0 594 0 545 0 c 0,7,8
 448 0 448 0 361 29 c 0,9,10
 228 72 228 72 20 300 c 1,11,-1
 20 500 l 1,12,13
 341 213 341 213 469.5 163.5 c 128,-1,14
 598 114 598 114 620 200 c 1,15,-1
 620 500 l 1,16,17
 -459 826 -459 826 341 1102 c 1,18,-1
 794 1290 l 1,0,1
620 1075 m 1,19,20
 -180 840 -180 840 620 668 c 1,21,-1
 620 1075 l 1,19,20
816 744 m 1,22,23
 800 866 800 866 800 961 c 0,24,25
 800 1276 800 1276 980 1298 c 0,26,27
 1034 1305 1034 1305 1083 1305 c 0,28,29
 1246 1305 1246 1305 1350 1230 c 0,30,31
 1485 1133 1485 1133 1423 938.5 c 128,-1,32
 1361 744 1361 744 1279.5 597.5 c 128,-1,33
 1198 451 1198 451 1148.5 365 c 128,-1,34
 1099 279 1099 279 1049 197 c 128,-1,35
 999 115 999 115 1599 515 c 1,36,-1
 1499 315 l 1,37,38
 1271 61 1271 61 1083 13 c 0,39,40
 1036 2 1036 2 1001 2 c 0,41,42
 893 2 893 2 891 111 c 0,43,44
 888 257 888 257 1072.5 547 c 128,-1,45
 1257 837 1257 837 1264 987 c 128,-1,46
 1271 1137 1271 1137 1179.5 1164.5 c 128,-1,47
 1088 1192 1088 1192 1028 1162.5 c 128,-1,48
 968 1133 968 1133 968 841 c 1,49,-1
 816 744 l 1,22,23
EndSplineSet
Validated: 33
EndChar

StartChar: a
Encoding: 30 60769 30
Width: 1100
Flags: W
AnchorPoint: "bottom" 441 -48 basechar 0
AnchorPoint: "top" 453 1335 basechar 0
LayerCount: 2
Fore
SplineSet
794 1290 m 1,0,1
 791 150 791 150 795 90 c 1,2,-1
 795 87 l 2,3,4
 795 29 795 29 646 7 c 0,5,6
 594 0 594 0 545 0 c 0,7,8
 448 0 448 0 361 29 c 0,9,10
 228 72 228 72 20 300 c 1,11,-1
 20 500 l 1,12,13
 341 213 341 213 469.5 163.5 c 128,-1,14
 598 114 598 114 620 200 c 1,15,-1
 620 500 l 1,16,17
 -459 826 -459 826 341 1102 c 1,18,-1
 794 1290 l 1,0,1
620 1075 m 1,19,20
 -180 840 -180 840 620 668 c 1,21,-1
 620 1075 l 1,19,20
EndSplineSet
Validated: 33
EndChar

StartChar: b
Encoding: 31 60770 31
Width: 1639
Flags: W
LayerCount: 2
Fore
SplineSet
1116 507 m 1,0,-1
 1366 357 l 1,1,-1
 1116 210 l 1,2,-1
 871 357 l 1,3,-1
 1116 507 l 1,0,-1
1120 910 m 1,4,-1
 1402 762 l 1,5,-1
 1120 615 l 1,6,-1
 842 762 l 1,7,-1
 1120 910 l 1,4,-1
708 573 m 256,8,9
 708 413 708 413 781.5 296.5 c 128,-1,10
 855 180 855 180 1045 45 c 1,11,12
 790 162 790 162 683 283.5 c 128,-1,13
 576 405 576 405 576 573 c 0,14,15
 576 743 576 743 681 861.5 c 128,-1,16
 786 980 786 980 1045 1100 c 1,17,18
 859 964 859 964 783.5 848.5 c 128,-1,19
 708 733 708 733 708 573 c 256,8,9
1161 1100 m 1,20,21
 1399 981 1399 981 1499.5 860.5 c 128,-1,22
 1600 740 1600 740 1600 573 c 0,23,24
 1600 401 1600 401 1501 283 c 128,-1,25
 1402 165 1402 165 1161 45 c 1,26,27
 1337 180 1337 180 1407 295.5 c 128,-1,28
 1477 411 1477 411 1477 573 c 0,29,30
 1477 732 1477 732 1409 848 c 128,-1,31
 1341 964 1341 964 1161 1100 c 1,20,21
184 1301 m 1,32,-1
 365 1183 l 1,33,-1
 368 834 l 1,34,-1
 600 970 l 1,35,-1
 600 775 l 1,36,-1
 365 643 l 1,37,-1
 365 9 l 1,38,-1
 177 109 l 1,39,-1
 178 570 l 1,40,-1
 2 479 l 1,41,-1
 0 681 l 1,42,-1
 178 760 l 1,43,-1
 184 1301 l 1,32,-1
EndSplineSet
EndChar

StartChar: c
Encoding: 32 60771 32
Width: 1792
Flags: W
LayerCount: 2
Fore
SplineSet
1292 625 m 1,0,-1
 1530 471 l 1,1,-1
 1292 316 l 1,2,-1
 1059 471 l 1,3,-1
 1292 625 l 1,0,-1
1295 1045 m 1,4,-1
 1565 892 l 1,5,-1
 1295 738 l 1,6,-1
 1030 892 l 1,7,-1
 1295 1045 l 1,4,-1
902 694 m 256,8,9
 902 526 902 526 972 406 c 128,-1,10
 1042 286 1042 286 1225 146 c 1,11,12
 982 268 982 268 879.5 393.5 c 128,-1,13
 777 519 777 519 777 694 c 0,14,15
 777 871 777 871 878 994 c 128,-1,16
 979 1117 979 1117 1225 1241 c 1,17,18
 1045 1100 1045 1100 973.5 981 c 128,-1,19
 902 862 902 862 902 694 c 256,8,9
1334 1241 m 1,20,21
 1562 1119 1562 1119 1657 993 c 128,-1,22
 1752 867 1752 867 1752 694 c 0,23,24
 1752 516 1752 516 1658.5 392.5 c 128,-1,25
 1565 269 1565 269 1334 146 c 1,26,27
 1502 286 1502 286 1568.5 406 c 128,-1,28
 1635 526 1635 526 1635 694 c 0,29,30
 1635 859 1635 859 1570 979.5 c 128,-1,31
 1505 1100 1505 1100 1334 1241 c 1,20,21
17 729 m 1,32,33
 1 851 1 851 1 946 c 0,34,35
 1 1261 1 1261 181 1283 c 0,36,37
 235 1290 235 1290 284 1290 c 0,38,39
 447 1290 447 1290 551 1215 c 0,40,41
 686 1118 686 1118 624 923.5 c 128,-1,42
 562 729 562 729 480.5 582.5 c 128,-1,43
 399 436 399 436 349.5 350 c 128,-1,44
 300 264 300 264 250 182 c 128,-1,45
 200 100 200 100 800 500 c 1,46,-1
 700 300 l 1,47,48
 472 46 472 46 284 -2 c 0,49,50
 237 -13 237 -13 202 -13 c 0,51,52
 94 -13 94 -13 92 96 c 0,53,54
 89 242 89 242 273.5 532 c 128,-1,55
 458 822 458 822 465 972 c 128,-1,56
 472 1122 472 1122 380.5 1149.5 c 128,-1,57
 289 1177 289 1177 229 1147.5 c 128,-1,58
 169 1118 169 1118 169 826 c 1,59,-1
 17 729 l 1,32,33
EndSplineSet
EndChar

StartChar: d
Encoding: 33 60772 33
Width: 2178
Flags: W
LayerCount: 2
Fore
SplineSet
1686 519 m 1,0,-1
 1925 366 l 1,1,-1
 1686 210 l 1,2,-1
 1452 366 l 1,3,-1
 1686 519 l 1,0,-1
1689 940 m 1,4,-1
 1960 787 l 1,5,-1
 1689 633 l 1,6,-1
 1424 787 l 1,7,-1
 1689 940 l 1,4,-1
1295 589 m 256,8,9
 1295 422 1295 422 1365 300.5 c 128,-1,10
 1435 179 1435 179 1619 39 c 1,11,12
 1375 161 1375 161 1272.5 287.5 c 128,-1,13
 1170 414 1170 414 1170 589 c 0,14,15
 1170 765 1170 765 1271 888.5 c 128,-1,16
 1372 1012 1372 1012 1619 1137 c 1,17,18
 1439 996 1439 996 1367 876 c 128,-1,19
 1295 756 1295 756 1295 589 c 256,8,9
1728 1137 m 1,20,21
 1957 1014 1957 1014 2052 887.5 c 128,-1,22
 2147 761 2147 761 2147 589 c 0,23,24
 2147 411 2147 411 2053.5 287 c 128,-1,25
 1960 163 1960 163 1728 39 c 1,26,27
 1896 179 1896 179 1963 299 c 128,-1,28
 2030 419 2030 419 2030 589 c 0,29,30
 2030 755 2030 755 1965 875.5 c 128,-1,31
 1900 996 1900 996 1728 1137 c 1,20,21
490 1301 m 1,32,-1
 700 1200 l 1,33,-1
 700 941 l 1,34,-1
 1247 945 l 1,35,-1
 1090 765 l 1,36,-1
 700 761 l 1,37,-1
 700 200 l 1,38,-1
 1300 200 l 1,39,-1
 1053 0 l 1,40,-1
 53 0 l 1,41,-1
 200 200 l 1,42,-1
 500 200 l 1,43,-1
 500 765 l 1,44,-1
 -10 768 l 1,45,-1
 190 941 l 1,46,-1
 490 941 l 1,47,-1
 490 1301 l 1,32,-1
EndSplineSet
EndChar

StartChar: e
Encoding: 34 60773 34
Width: 1349
Flags: W
AnchorPoint: "bottom" 638 -37 basechar 0
AnchorPoint: "top" 632 1379 basechar 0
LayerCount: 2
Fore
SplineSet
590 1211 m 1,0,-1
 600 700 l 1,1,-1
 800 700 l 2,2,3
 1200 700 1200 700 1100 500 c 1,4,5
 800 300 800 300 900 250 c 128,-1,6
 1000 200 1000 200 1200 400 c 1,7,-1
 1200 100 l 1,8,9
 1000 0 1000 0 850 0 c 128,-1,10
 700 0 700 0 650 150 c 128,-1,11
 600 300 600 300 800 500 c 1,12,-1
 600 500 l 1,13,-1
 600 0 l 1,14,-1
 400 100 l 1,15,-1
 400 300 l 1,16,-1
 400 500 l 1,17,-1
 100 500 l 1,18,-1
 0 700 l 1,19,-1
 400 700 l 1,20,-1
 400 900 l 1,21,-1
 400 1301 l 1,22,-1
 590 1211 l 1,0,-1
EndSplineSet
EndChar

StartChar: f
Encoding: 35 60774 35
Width: 1079
Flags: W
AnchorPoint: "top" 339 1363 basechar 0
AnchorPoint: "bottom" 378 -26 basechar 0
LayerCount: 2
Fore
SplineSet
640 1305 m 1,0,-1
 640 298 l 1,1,2
 720 97 720 97 880 298 c 1,3,-1
 880 97 l 1,4,-1
 800 -3 l 1,5,6
 560 -3 560 -3 480 197 c 1,7,-1
 480 398 l 1,8,-1
 480 1100 l 1,9,-1
 160 1100 l 1,10,-1
 160 699 l 1,11,-1
 160 97 l 1,12,-1
 6 -3 l 1,13,-1
 0 1305 l 1,14,-1
 640 1305 l 1,0,-1
EndSplineSet
EndChar

StartChar: g
Encoding: 36 60775 36
Width: 1329
Flags: W
AnchorPoint: "bottom" 602 -43 basechar 0
AnchorPoint: "top" 566 1370 basechar 0
LayerCount: 2
Fore
SplineSet
1204 1205 m 1,0,-1
 1204 0 l 1,1,-1
 354 0 l 1,2,3
 272 -9 272 -9 209 -9 c 0,4,5
 14 -9 14 -9 14 85 c 2,6,-1
 14 429 l 1,7,-1
 210 336 l 1,8,-1
 210 132 l 1,9,-1
 1010 132 l 1,10,-1
 1010 645 l 1,11,-1
 310 645 l 1,12,13
 14 608 14 608 14 770 c 2,14,-1
 14 1290 l 1,15,-1
 184 1205 l 1,16,-1
 184 774 l 1,17,-1
 524 774 l 1,18,-1
 1010 777 l 1,19,-1
 1010 1287 l 1,20,-1
 1204 1205 l 1,0,-1
EndSplineSet
EndChar

StartChar: h
Encoding: 37 60776 37
Width: 1569
Flags: W
AnchorPoint: "top" 760 1326 basechar 0
AnchorPoint: "bottom" 817 -39 basechar 0
LayerCount: 2
Fore
SplineSet
76 1148 m 1,0,-1
 251 1232 l 1,1,2
 151 897 151 897 188 749.5 c 128,-1,3
 225 602 225 602 360 455.5 c 128,-1,4
 495 309 495 309 667 201 c 128,-1,5
 839 93 839 93 1097 118 c 128,-1,6
 1355 143 1355 143 1288 339.5 c 128,-1,7
 1221 536 1221 536 911 645 c 1,8,-1
 755 525 l 1,9,-1
 495 393 l 1,10,-1
 495 522 l 1,11,-1
 839 768 l 1,12,-1
 1183 1148 l 1,13,-1
 323 1148 l 1,14,-1
 510 1284 l 1,15,-1
 1510 1284 l 1,16,-1
 1355 1108 l 1,17,-1
 1183 897 l 1,18,-1
 1011 730 l 1,19,20
 1432 514 1432 514 1479 412 c 0,21,22
 1510 344 1510 344 1510 264 c 0,23,24
 1510 222 1510 222 1502 176 c 0,25,26
 1477 43 1477 43 1198 10 c 0,27,28
 1126 1 1126 1 1056 1 c 0,29,30
 853 1 853 1 665 74 c 0,31,32
 411 171 411 171 235 366.5 c 128,-1,33
 59 562 59 562 19 730 c 0,34,35
 7 778 7 778 7 834 c 0,36,37
 7 970 7 970 76 1148 c 1,0,-1
EndSplineSet
EndChar

StartChar: i
Encoding: 38 60777 38
Width: 1191
Flags: W
AnchorPoint: "top" 562 1320 basechar 0
AnchorPoint: "bottom" 622 -33 basechar 0
LayerCount: 2
Fore
SplineSet
700 1263 m 1,0,-1
 955 1263 l 1,1,-1
 600 921 l 1,2,-1
 317 589 l 1,3,-1
 964 17 l 1,4,-1
 700 17 l 1,5,-1
 446 231 l 1,6,-1
 8 594 l 1,7,-1
 300 874 l 1,8,-1
 700 1263 l 1,0,-1
EndSplineSet
EndChar

StartChar: j
Encoding: 39 60778 39
Width: 1330
Flags: W
AnchorPoint: "top" 585 1336 basechar 0
AnchorPoint: "bottom" 630 -35 basechar 0
LayerCount: 2
Fore
SplineSet
768 1294 m 1,0,-1
 953 1301 l 1,1,-1
 825 920 l 1,2,-1
 1191 925 l 1,3,-1
 1050 742 l 1,4,-1
 768 742 l 1,5,-1
 641 330 l 1,6,-1
 550 48 l 1,7,8
 458 -32 458 -32 366.5 5.5 c 128,-1,9
 275 43 275 43 142 330 c 2,10,-1
 0 639 l 1,11,-1
 141 772 l 1,12,-1
 408 194 l 1,13,-1
 583 742 l 1,14,-1
 242 742 l 1,15,-1
 366 920 l 1,16,-1
 641 922 l 1,17,-1
 768 1294 l 1,0,-1
EndSplineSet
EndChar

StartChar: k
Encoding: 40 60779 40
Width: 1203
Flags: W
AnchorPoint: "top" 513 1334 basechar 0
AnchorPoint: "bottom" 534 -22 basechar 0
LayerCount: 2
Fore
SplineSet
0 1301 m 1,0,-1
 900 1301 l 1,1,2
 1138 1306 1138 1306 910 994 c 1,3,-1
 700 674 l 1,4,-1
 1138 126 l 1,5,-1
 1000 9 l 1,6,-1
 558 542 l 1,7,-1
 162 9 l 1,8,-1
 0 126 l 1,9,-1
 364 596 l 1,10,-1
 761 1120 l 1,11,-1
 100 1120 l 1,12,-1
 0 1301 l 1,0,-1
EndSplineSet
EndChar

StartChar: l
Encoding: 41 60780 41
Width: 1261
Flags: W
AnchorPoint: "top" 547 1347 basechar 0
AnchorPoint: "bottom" 571 -33 basechar 0
LayerCount: 2
Fore
SplineSet
180 1305 m 1,0,1
 845 1303 845 1303 887 1303 c 0,2,3
 1173 1303 1173 1303 961 1087 c 1,4,-1
 580 640 l 1,5,-1
 880 634 l 1,6,-1
 980 466 l 1,7,-1
 450 485 l 1,8,-1
 218 164 l 1,9,-1
 980 156 l 1,10,-1
 1080 0 l 1,11,-1
 236 -1 l 2,12,13
 -56 0 -56 0 12 150 c 128,-1,14
 80 300 80 300 444 751 c 1,15,-1
 780 1137 l 1,16,-1
 80 1137 l 1,17,-1
 180 1305 l 1,0,1
EndSplineSet
EndChar

StartChar: m
Encoding: 42 60781 42
Width: 1154
Flags: W
AnchorPoint: "top" 429 1310 basechar 0
AnchorPoint: "bottom" 507 -22 basechar 0
LayerCount: 2
Fore
SplineSet
10 1267 m 1,0,-1
 600 1263 l 1,1,2
 810 1254 810 1254 860 1037 c 128,-1,3
 910 820 910 820 810 378 c 1,4,-1
 1000 236 l 1,5,-1
 910 120 l 1,6,-1
 748 253 l 1,7,8
 610 20 610 20 460 2.5 c 128,-1,9
 310 -15 310 -15 188.5 20 c 128,-1,10
 67 55 67 55 56 200 c 1,11,-1
 51 626 l 1,12,13
 67 1020 67 1020 300 800 c 1,14,-1
 670 500 l 1,15,16
 772 820 772 820 724.5 971.5 c 128,-1,17
 677 1123 677 1123 470 1120 c 2,18,-1
 77 1120 l 1,19,-1
 10 1267 l 1,0,-1
200 659 m 1,20,-1
 200 200 l 1,21,22
 276 121 276 121 410 158 c 1,23,24
 576 220 576 220 610 364 c 1,25,-1
 200 659 l 1,20,-1
EndSplineSet
EndChar

StartChar: n
Encoding: 43 60782 43
Width: 1360
Flags: W
AnchorPoint: "top" 585 1337 basechar 0
AnchorPoint: "bottom" 642 -19 basechar 0
LayerCount: 2
Fore
SplineSet
210 1291 m 1,0,-1
 935 1298 l 1,1,-1
 935 793 l 1,2,3
 1210 720 1210 720 1274.5 570 c 128,-1,4
 1339 420 1339 420 1277 168 c 1,5,-1
 1110 20 l 1,6,7
 1165 420 1165 420 1118.5 520 c 128,-1,8
 1072 620 1072 620 947 620 c 1,9,10
 980 90 980 90 726 41.5 c 128,-1,11
 472 -7 472 -7 291 56.5 c 128,-1,12
 110 120 110 120 60 220 c 128,-1,13
 10 320 10 320 10 453 c 128,-1,14
 10 586 10 586 60 671.5 c 128,-1,15
 110 757 110 757 290.5 810.5 c 128,-1,16
 471 864 471 864 770 835 c 1,17,-1
 768 1160 l 1,18,-1
 110 1161 l 1,19,-1
 210 1291 l 1,0,-1
188 575.5 m 128,-1,21
 156 520 156 520 151.5 396 c 128,-1,22
 147 272 147 272 283.5 213.5 c 128,-1,23
 420 155 420 155 565 162.5 c 128,-1,24
 710 170 710 170 760 264.5 c 128,-1,25
 810 359 810 359 779 682 c 1,26,27
 410 720 410 720 315 675.5 c 128,-1,20
 220 631 220 631 188 575.5 c 128,-1,21
EndSplineSet
EndChar

StartChar: o
Encoding: 44 60783 44
Width: 1563
Flags: W
AnchorPoint: "top" 746 1360 basechar 0
AnchorPoint: "bottom" 833 -44 basechar 0
LayerCount: 2
Fore
SplineSet
1291 1272 m 1,0,1
 1353 1302 1353 1302 1392 1302 c 0,2,3
 1475 1302 1475 1302 1452 1166 c 1,4,-1
 1452 210 l 1,5,-1
 1525 103 l 1,6,-1
 1452 -3 l 1,7,8
 968 277 968 277 395 -3 c 1,9,-1
 161 -3 l 1,10,-1
 323 103 l 1,11,-1
 484 210 l 1,12,-1
 484 741 l 2,13,14
 484 995 484 995 0 953 c 1,15,-1
 161 1107 l 1,16,-1
 544 1007 l 1,17,-1
 968 1166 l 1,18,-1
 1291 1272 l 1,0,1
1100 1038 m 1,19,20
 620 934 620 934 646 741 c 1,21,-1
 651 206 l 1,22,23
 879 277 879 277 1300 206 c 1,24,-1
 1291 570 l 1,25,-1
 1291 848 l 1,26,27
 1300 1107 1300 1107 1100 1038 c 1,19,20
EndSplineSet
EndChar

StartChar: p
Encoding: 45 60784 45
Width: 1213
Flags: W
AnchorPoint: "top" 520 1382 basechar 0
AnchorPoint: "bottom" 535 -49 basechar 0
LayerCount: 2
Fore
SplineSet
0 1301 m 1,0,-1
 209 1167 l 1,1,2
 500 1301 500 1301 691.5 1263.5 c 128,-1,3
 883 1226 883 1226 991.5 1163 c 128,-1,4
 1100 1100 1100 1100 950 800 c 128,-1,5
 800 500 800 500 676 300 c 128,-1,6
 552 100 552 100 900 300 c 1,7,-1
 900 100 l 1,8,9
 400 -100 400 -100 437 134 c 1,10,-1
 529 306 l 2,11,12
 900 1000 900 1000 815.5 1064.5 c 128,-1,13
 731 1129 731 1129 569.5 1121.5 c 128,-1,14
 408 1114 408 1114 408 968 c 128,-1,15
 408 822 408 822 408 415 c 1,16,-1
 209 415 l 1,17,-1
 209 1023 l 1,18,-1
 0 1100 l 1,19,-1
 0 1301 l 1,0,-1
EndSplineSet
EndChar

StartChar: q
Encoding: 46 60785 46
Width: 1225
Flags: W
AnchorPoint: "top" 500 1330 basechar 0
AnchorPoint: "bottom" 560 -50 basechar 0
LayerCount: 2
Fore
SplineSet
1000 1200 m 1,0,-1
 1200 1200 l 1,1,-1
 935 913 l 1,2,3
 1083 535 1083 535 1041.5 316 c 128,-1,4
 1000 97 1000 97 864 48.5 c 128,-1,5
 728 0 728 0 529.5 0 c 128,-1,6
 331 0 331 0 70 113 c 1,7,-1
 70 275 l 1,8,9
 489 118 489 118 644.5 159 c 128,-1,10
 800 200 800 200 867.5 300 c 128,-1,11
 935 400 935 400 800 800 c 1,12,13
 489 714 489 714 279.5 744 c 128,-1,14
 70 774 70 774 15 950 c 0,15,16
 1 993 1 993 1 1030 c 0,17,18
 1 1143 1 1143 128 1198 c 0,19,20
 296 1270 296 1270 497.5 1250.5 c 128,-1,21
 699 1231 699 1231 908 1073 c 1,22,-1
 1000 1200 l 1,0,-1
291 1084 m 1,23,24
 151 881 151 881 456 898.5 c 128,-1,25
 761 916 761 916 667 1017 c 128,-1,26
 573 1118 573 1118 291 1084 c 1,23,24
EndSplineSet
EndChar

StartChar: r
Encoding: 47 60786 47
Width: 1544
Flags: W
AnchorPoint: "top" 626 1317 basechar 0
AnchorPoint: "bottom" 716 -48 basechar 0
LayerCount: 2
Fore
SplineSet
1100 1230 m 1,0,-1
 1300 1230 l 1,1,2
 1200 1030 1200 1030 1210 856 c 1,3,-1
 1424 39 l 1,4,-1
 1300 30 l 1,5,-1
 1100 730 l 1,6,7
 907 236 907 236 733 119 c 0,8,9
 602 31 602 31 441 31 c 0,10,11
 388 31 388 31 332 41 c 0,12,13
 105 79 105 79 42 219 c 0,14,15
 5 301 5 301 5 451 c 0,16,17
 5 556 5 556 23 695 c 0,18,19
 67 1032 67 1032 241 1110 c 128,-1,20
 415 1188 415 1188 524.5 1188 c 128,-1,21
 634 1188 634 1188 730 1168.5 c 128,-1,22
 826 1149 826 1149 1077 993 c 1,23,-1
 1100 1230 l 1,0,-1
235 804.5 m 128,-1,25
 160 581 160 581 185 374.5 c 128,-1,26
 210 168 210 168 410 168 c 128,-1,27
 610 168 610 168 710 340 c 128,-1,28
 810 512 810 512 958 787 c 1,29,30
 710 1063 710 1063 510 1045.5 c 128,-1,24
 310 1028 310 1028 235 804.5 c 128,-1,25
EndSplineSet
EndChar

StartChar: s
Encoding: 48 60787 48
Width: 1190
Flags: W
AnchorPoint: "top" 534 1358 basechar 0
AnchorPoint: "bottom" 528 -49 basechar 0
LayerCount: 2
Fore
SplineSet
657 1296 m 1,0,-1
 657 856 l 1,1,-1
 1101 1000 l 1,2,-1
 1101 854 l 1,3,-1
 670 726 l 1,4,-1
 657 417 l 1,5,-1
 657 65 l 1,6,7
 489 0 489 0 305.5 0 c 128,-1,8
 122 0 122 0 0 100 c 1,9,-1
 0 400 l 1,10,11
 122 200 122 200 244.5 176 c 128,-1,12
 367 152 367 152 428 241 c 1,13,-1
 428 657 l 1,14,-1
 0 560 l 1,15,-1
 0 700 l 1,16,-1
 428 812 l 1,17,-1
 428 1208 l 1,18,-1
 657 1296 l 1,0,-1
EndSplineSet
EndChar

StartChar: t
Encoding: 49 60788 49
Width: 1101
Flags: W
AnchorPoint: "top" 483 1359 basechar 0
AnchorPoint: "bottom" 492 -39 basechar 0
LayerCount: 2
Fore
SplineSet
1020 1174 m 1,1,2
 853 747 853 747 857 501 c 128,-1,3
 861 255 861 255 1020 213 c 1,4,-1
 1020 0 l 1,5,6
 698 139 698 139 693.5 443 c 128,-1,7
 689 747 689 747 770 1142 c 1,8,-1
 588 1140 l 1,9,-1
 588 0 l 1,10,-1
 395 107 l 1,11,-1
 395 1140 l 1,12,-1
 233 1142 l 1,13,14
 270 920 270 920 305 620 c 128,-1,15
 340 320 340 320 242.5 186.5 c 128,-1,16
 145 53 145 53 20 0 c 1,17,-1
 20 213 l 1,18,19
 145 213 145 213 145 533.5 c 128,-1,20
 145 854 145 854 20 1174 c 1,21,22
 -28 1310 -28 1310 145 1281 c 1,23,-1
 520 1281 l 1,24,-1
 895 1281 l 2,25,0
 1020 1281 1020 1281 1020 1174 c 1,1,2
EndSplineSet
EndChar

StartChar: u
Encoding: 50 60789 50
Width: 1543
Flags: W
AnchorPoint: "top" 807 1383 basechar 0
AnchorPoint: "bottom" 765 -48 basechar 0
LayerCount: 2
Fore
SplineSet
695 1268 m 0,0,1
 808 1296 808 1296 908 1296 c 0,2,3
 1011 1296 1011 1296 1102 1267 c 0,4,5
 1280 1208 1280 1208 1336.5 1091.5 c 128,-1,6
 1393 975 1393 975 1352.5 822.5 c 128,-1,7
 1312 670 1312 670 1206.5 605 c 128,-1,8
 1101 540 1101 540 969.5 540 c 128,-1,9
 838 540 838 540 715 595 c 1,10,-1
 547 434 l 1,11,12
 652 200 652 200 876.5 124.5 c 128,-1,13
 1101 49 1101 49 1393 319 c 1,14,-1
 1508 210 l 1,15,16
 1280 49 1280 49 1152 20 c 0,17,18
 1087 5 1087 5 1018 5 c 0,19,20
 948 5 948 5 873 20 c 0,21,22
 723 49 723 49 634 98 c 128,-1,23
 545 147 545 147 467 298 c 1,24,-1
 186 7 l 1,25,-1
 -5 83 l 1,26,-1
 367 482 l 1,27,28
 282 788 282 788 374.5 999.5 c 128,-1,29
 467 1211 467 1211 695 1268 c 0,0,1
597 1039 m 128,-1,31
 534 915 534 915 524.5 779 c 128,-1,32
 515 643 515 643 587.5 715 c 128,-1,33
 660 787 660 787 838 675 c 1,34,35
 1106 638 1106 638 1190.5 856 c 128,-1,36
 1275 1074 1275 1074 1023 1184 c 1,37,30
 660 1163 660 1163 597 1039 c 128,-1,31
EndSplineSet
EndChar

StartChar: v
Encoding: 51 60790 51
Width: 1192
Flags: W
AnchorPoint: "top" 387 1333 basechar 0
AnchorPoint: "bottom" 477 -32 basechar 0
LayerCount: 2
Fore
SplineSet
-3 1235 m 1,0,1
 33 1351 33 1351 139 1235 c 1,2,-1
 590 800 l 1,3,-1
 590 1252 l 1,4,-1
 790 1147 l 1,5,-1
 790 621 l 1,6,-1
 1144 271 l 1,7,-1
 1147 53 l 1,8,-1
 790 411 l 1,9,-1
 790 -10 l 1,10,-1
 590 -10 l 1,11,-1
 590 552 l 1,12,-1
 590 566 l 1,13,-1
 190 927 l 1,14,-1
 190 -10 l 1,15,-1
 -3 -10 l 1,16,-1
 -3 1235 l 1,0,1
EndSplineSet
EndChar

StartChar: w
Encoding: 52 60791 52
Width: 1471
Flags: W
AnchorPoint: "top" 682 1378 basechar 0
AnchorPoint: "bottom" 715 -53 basechar 0
LayerCount: 2
Fore
SplineSet
600 1173 m 1,0,-1
 822 1292 l 1,1,-1
 822 425 l 1,2,-1
 1441 -8 l 1,3,-1
 1100 -10 l 1,4,-1
 700 268 l 1,5,-1
 300 -10 l 1,6,-1
 -3 -8 l 1,7,-1
 600 445 l 1,8,-1
 600 1173 l 1,0,-1
EndSplineSet
EndChar

StartChar: x
Encoding: 53 60792 53
Width: 1280
Flags: W
AnchorPoint: "top" 483 1372 basechar 0
AnchorPoint: "bottom" 489 -44 basechar 0
LayerCount: 2
Fore
SplineSet
200 1314 m 1,0,-1
 200 968 l 1,1,-1
 366 652 l 1,2,-1
 600 276 l 2,3,4
 747 38 747 38 732 302 c 1,5,-1
 732 1001 l 2,6,7
 732 1145 732 1145 1282 1102 c 1,8,-1
 1099 1001 l 1,9,10
 915 1001 915 1001 915 902 c 2,11,-1
 915 101 l 1,12,13
 841 -2 841 -2 739 -2 c 0,14,15
 700 -2 700 -2 657 13 c 0,16,17
 500 68 500 68 400 276 c 1,18,-1
 200 623 l 1,19,-1
 200 68 l 1,20,-1
 -1 2 l 1,21,-1
 -1 1201 l 1,22,-1
 200 1314 l 1,0,-1
EndSplineSet
EndChar

StartChar: y
Encoding: 54 60793 54
Width: 1147
Flags: W
AnchorPoint: "bottom" 390 -22 basechar 0
AnchorPoint: "top" 462 1373 basechar 0
LayerCount: 2
Fore
SplineSet
0 1165 m 1,0,-1
 150 1302 l 1,1,-1
 150 483 l 2,2,3
 150 277 150 277 174 209 c 128,-1,4
 198 141 198 141 397 141 c 128,-1,5
 596 141 596 141 600 346 c 1,6,-1
 596 892 l 1,7,-1
 596 1165 l 1,8,9
 558 1279 558 1279 721 1279 c 0,10,11
 753 1279 753 1279 793 1275 c 1,12,-1
 1132 1275 l 1,13,-1
 950 1165 l 1,14,-1
 750 1165 l 1,15,-1
 750 277 l 2,16,17
 750 141 750 141 602 65 c 0,18,19
 507 15 507 15 389 15 c 0,20,21
 324 15 324 15 252 31 c 0,22,23
 50 73 50 73 0 210 c 1,24,-1
 1 687 l 1,25,-1
 1 1029 l 1,26,-1
 0 1165 l 1,0,-1
EndSplineSet
EndChar

StartChar: z
Encoding: 55 60794 55
Width: 1103
Flags: W
AnchorPoint: "top" 412 1396 basechar 0
AnchorPoint: "bottom" 430 -41 basechar 0
LayerCount: 2
Fore
SplineSet
359 1274 m 2,0,1
 413 1308 413 1308 453 1308 c 0,2,3
 526 1308 526 1308 551 1194 c 1,4,-1
 551 843 l 1,5,-1
 900 1000 l 1,6,-1
 900 800 l 1,7,-1
 551 632 l 1,8,-1
 550 491 l 1,9,-1
 550 211 l 1,10,-1
 551 0 l 1,11,-1
 359 94 l 1,12,-1
 359 584 l 1,13,-1
 0 400 l 1,14,-1
 0 600 l 1,15,-1
 348 773 l 1,16,-1
 348 1054 l 1,17,-1
 0 852 l 1,18,-1
 0 1054 l 1,19,-1
 359 1274 l 2,0,1
EndSplineSet
EndChar

StartChar: braceleft
Encoding: 56 60795 56
Width: 998
Flags: W
AnchorPoint: "top" 254 1367 basechar 0
AnchorPoint: "bottom" 292 -31 basechar 0
LayerCount: 2
Fore
SplineSet
184 1301 m 1,0,-1
 365 1183 l 1,1,-1
 368 834 l 1,2,-1
 600 970 l 1,3,-1
 600 775 l 1,4,-1
 365 643 l 1,5,-1
 365 9 l 1,6,-1
 177 109 l 1,7,-1
 178 570 l 1,8,-1
 2 479 l 1,9,-1
 0 681 l 1,10,-1
 178 760 l 1,11,-1
 184 1301 l 1,0,-1
EndSplineSet
EndChar

StartChar: bar
Encoding: 57 60796 57
Width: 953
Flags: W
AnchorPoint: "top" 315 1354 basechar 0
AnchorPoint: "bottom" 372 -32 basechar 0
LayerCount: 2
Fore
SplineSet
17 729 m 1,0,1
 1 851 1 851 1 946 c 0,2,3
 1 1261 1 1261 181 1283 c 0,4,5
 235 1290 235 1290 284 1290 c 0,6,7
 447 1290 447 1290 551 1215 c 0,8,9
 686 1118 686 1118 624 923.5 c 128,-1,10
 562 729 562 729 480.5 582.5 c 128,-1,11
 399 436 399 436 349.5 350 c 128,-1,12
 300 264 300 264 250 182 c 128,-1,13
 200 100 200 100 800 500 c 1,14,-1
 700 300 l 1,15,16
 472 46 472 46 284 -2 c 0,17,18
 237 -13 237 -13 202 -13 c 0,19,20
 94 -13 94 -13 92 96 c 0,21,22
 89 242 89 242 273.5 532 c 128,-1,23
 458 822 458 822 465 972 c 128,-1,24
 472 1122 472 1122 380.5 1149.5 c 128,-1,25
 289 1177 289 1177 229 1147.5 c 128,-1,26
 169 1118 169 1118 169 826 c 1,27,-1
 17 729 l 1,0,1
EndSplineSet
EndChar

StartChar: braceright
Encoding: 58 60797 58
Width: 1305
Flags: W
AnchorPoint: "top" 530 1400 basechar 0
AnchorPoint: "bottom" 620 -34 basechar 0
LayerCount: 2
Fore
SplineSet
490 1301 m 1,0,-1
 700 1200 l 1,1,-1
 700 941 l 1,2,-1
 1247 945 l 1,3,-1
 1090 765 l 1,4,-1
 700 761 l 1,5,-1
 700 200 l 1,6,-1
 1300 200 l 1,7,-1
 1053 0 l 1,8,-1
 53 0 l 1,9,-1
 200 200 l 1,10,-1
 500 200 l 1,11,-1
 500 765 l 1,12,-1
 -10 768 l 1,13,-1
 190 941 l 1,14,-1
 490 941 l 1,15,-1
 490 1301 l 1,0,-1
EndSplineSet
EndChar

StartChar: uniED3E
Encoding: 59 60734 59
Width: 0
Flags: W
AnchorPoint: "top" -53.5 1263 mark 0
LayerCount: 2
Fore
SplineSet
-219 1572 m 1,0,-1
 82.5 1320 l 1,1,-1
 -213 1401 l 1,2,-1
 -219 1572 l 1,0,-1
EndSplineSet
EndChar

StartChar: uniED57
Encoding: 60 60759 60
AltUni2: 00fb01.ffffffff.0
Width: 1197
Flags: W
AnchorPoint: "top" 566.69 1288.05 basechar 0
AnchorPoint: "bottom" 636 -31 basechar 0
LayerCount: 2
Fore
SplineSet
94 20 m 1049,0,-1
960 1212 m 1,1,2
 591 981 591 981 679 341 c 1,3,-1
 548 352 l 1,4,5
 612 897 612 897 240 1143 c 1,6,-1
 117 1063 l 0,7,8
 343 884 343 884 363 786 c 0,9,10
 451 371 451 371 388 307 c 0,11,12
 340 257 340 257 -50 155 c 1,13,14
 10 88 10 88 69 21 c 1,15,16
 645 378 645 378 1139 -11 c 25,17,-1
 1181 120 l 0,18,-1
 833 306 l 1,19,20
 717 849 717 849 1073 1128 c 1,21,-1
 960 1212 l 1,1,2
EndSplineSet
EndChar

StartChar: uniED59
Encoding: 61 60761 61
AltUni2: 00fb02.ffffffff.0
Width: 1670
Flags: W
AnchorPoint: "top" 844 1389 basechar 0
AnchorPoint: "bottom" 838 -39 basechar 0
LayerCount: 2
Fore
SplineSet
262 306 m 1,0,-1
 492 147 l 0,1,2
 692 177 692 177 720.505859375 448.232421875 c 0,3,4
 736 596 736 596 723 593 c 24,5,6
 658 579 658 579 652 616.5 c 0,7,8
 648 645 648 645 663 656 c 0,9,10
 709 688 709 688 714 713 c 0,11,12
 844 1341 844 1341 287 644.5 c 0,13,14
 285 642 285 642 219 710 c 0,15,16
 167.753604671 763.296251142 167.753604671 763.296251142 391 959.5 c 0,17,18
 590.938960187 1134.94643756 590.938960187 1134.94643756 701.5 1213.5 c 24,19,20
 822 1299 822 1299 881.5 1308 c 24,21,22
 907 1272 907 1272 881.5 1240.5 c 24,23,24
 866.507909605 1215.83559322 866.507909605 1215.83559322 845.5 964.5 c 24,25,26
 828 758 828 758 840 744 c 24,27,28
 863 715 863 715 994 782 c 0,29,30
 1117 844 1117 844 1104 970.5 c 24,31,32
 1087.019678 1128.81653162 1087.019678 1128.81653162 1106 1201.5 c 24,33,34
 1122.86034035 1266.46189957 1122.86034035 1266.46189957 1189 1296 c 24,35,36
 1266.92464155 1330.89163054 1266.92464155 1330.89163054 1260.5 1270.5 c 24,37,38
 1233 1012 1233 1012 1229.58544922 808.42578125 c 0,39,40
 1222 396 1222 396 1174.5 357 c 0,41,42
 1112 306 1112 306 1113 228 c 24,43,44
 1114 162 1114 162 1177.5 154 c 0,45,46
 1280 142 1280 142 1342 204 c 24,47,48
 1387 249 1387 249 1423 214.5 c 24,49,50
 1430.04446951 134.494953393 1430.04446951 134.494953393 1352.5 91.5 c 24,51,52
 1258.84473377 39.9144790305 1258.84473377 39.9144790305 1120 46.5 c 24,53,54
 1008.33696372 51.9834526746 1008.33696372 51.9834526746 973 109.5 c 24,55,56
 945 155 945 155 979 276 c 24,57,58
 1023 344 1023 344 1064.5 432 c 24,59,60
 1116 541 1116 541 1115.5 561 c 0,61,62
 1111 699 1111 699 1109.5 700.5 c 24,63,64
 1102 708 1102 708 973 672 c 0,65,66
 822 630 822 630 822 450 c 24,67,68
 823 314 823 314 791.5 247.5 c 24,69,70
 734 124 734 124 664 81.5 c 0,71,72
 530 -1 530 -1 458.5 29 c 0,73,74
 210 134 210 134 262 306 c 1,0,-1
EndSplineSet
EndChar

StartChar: middot
Encoding: 62 60735 62
Width: 0
Flags: W
AnchorPoint: "top" -103.5 1260 mark 0
LayerCount: 2
Fore
SplineSet
5 1572 m 1,0,-1
 -1 1401 l 1,1,-1
 -296.5 1320 l 1,2,-1
 5 1572 l 1,0,-1
EndSplineSet
EndChar

StartChar: uniEC31
Encoding: 63 60465 63
Width: 228
VWidth: 1678
Flags: W
LayerCount: 2
Fore
SplineSet
154 888.5 m 2,0,-1
 154 -245.5 l 2,1,2
 154 -325.5 154 -325.5 74 -325.5 c 256,3,4
 -6 -325.5 -6 -325.5 -6 -245.5 c 2,5,-1
 -6 888.5 l 2,6,7
 -6 968.5 -6 968.5 74 968.5 c 256,8,9
 154 968.5 154 968.5 154 888.5 c 2,0,-1
EndSplineSet
Validated: 1
EndChar

StartChar: uniEC32
Encoding: 64 60466 64
Width: 694
VWidth: 1675
Flags: W
LayerCount: 2
Fore
SplineSet
-3.5 891 m 2,0,-1
 -3.5 -161 l 1,1,-1
 546.5 -161 l 2,2,3
 626.5 -161 626.5 -161 626.5 -241 c 256,4,5
 626.5 -321 626.5 -321 546.5 -321 c 2,6,-1
 -83.5 -321 l 2,7,8
 -115.5 -321 -115.5 -321 -139.5 -297 c 128,-1,9
 -163.5 -273 -163.5 -273 -163.5 -241 c 2,10,-1
 -163.5 891 l 2,11,12
 -163.5 971 -163.5 971 -83.5 971 c 256,13,14
 -3.5 971 -3.5 971 -3.5 891 c 2,0,-1
EndSplineSet
Validated: 1
EndChar

StartChar: uniEC33
Encoding: 65 60467 65
Width: 655
VWidth: 1677
Flags: W
LayerCount: 2
Fore
SplineSet
215 617.5 m 1,0,-1
 27 -168.5 l 1,1,-1
 403 -168.5 l 1,2,-1
 215 617.5 l 1,0,-1
293 879.5 m 0,3,4
 331 739.5 331 739.5 523 95.5 c 0,5,6
 603 -178.5 603 -178.5 603 -248.5 c 0,7,8
 603 -322.5 603 -322.5 523 -322.5 c 2,9,-1
 -93 -322.5 l 2,10,11
 -173 -322.5 -173 -322.5 -173 -248.5 c 0,12,13
 -173 -176.5 -173 -176.5 -93 97.5 c 0,14,15
 95 731.5 95 731.5 137 879.5 c 0,16,17
 161 967.5 161 967.5 215 967.5 c 0,18,19
 267 967.5 267 967.5 293 879.5 c 0,3,4
EndSplineSet
Validated: 1
EndChar

StartChar: uniEC34
Encoding: 66 60468 66
Width: 611
VWidth: 1675
Flags: W
LayerCount: 2
Fore
SplineSet
463.5 971 m 2,0,1
 495.5 971 495.5 971 519.5 947 c 128,-1,2
 543.5 923 543.5 923 543.5 891 c 2,3,-1
 543.5 -241 l 2,4,5
 543.5 -273 543.5 -273 519.5 -297 c 128,-1,6
 495.5 -321 495.5 -321 463.5 -321 c 2,7,-1
 -58.5 -321 l 2,8,9
 -90.5 -321 -90.5 -321 -114.5 -297 c 128,-1,10
 -138.5 -273 -138.5 -273 -138.5 -241 c 2,11,-1
 -138.5 891 l 2,12,13
 -138.5 923 -138.5 923 -114.5 947 c 128,-1,14
 -90.5 971 -90.5 971 -58.5 971 c 2,15,-1
 463.5 971 l 2,0,1
383.5 811 m 1,16,-1
 21.5 811 l 1,17,-1
 21.5 -161 l 1,18,-1
 383.5 -161 l 1,19,-1
 383.5 811 l 1,16,-1
EndSplineSet
Validated: 1
EndChar

StartChar: uniEC35
Encoding: 67 60469 67
Width: 623
VWidth: 1676
Flags: W
LayerCount: 2
Fore
SplineSet
21.5 236 m 1,0,-1
 23.5 -164 l 1,1,-1
 463.5 -164 l 2,2,3
 543.5 -164 543.5 -164 543.5 -244 c 256,4,5
 543.5 -324 543.5 -324 463.5 -324 c 2,6,-1
 -56.5 -324 l 2,7,8
 -88.5 -324 -88.5 -324 -112.5 -300 c 128,-1,9
 -136.5 -276 -136.5 -276 -136.5 -244 c 2,10,-1
 -138.5 886 l 2,11,12
 -138.5 972 -138.5 972 -70.5 972 c 0,13,14
 -32.5 972 -32.5 972 -16.5 954 c 2,15,-1
 505.5 384 l 2,16,17
 555.5 330 555.5 330 555.5 308 c 0,18,19
 555.5 238 555.5 238 463.5 236 c 2,20,-1
 21.5 236 l 1,0,-1
21.5 394 m 1,21,-1
 285.5 394 l 1,22,-1
 21.5 664 l 1,23,-1
 21.5 394 l 1,21,-1
EndSplineSet
Validated: 1
EndChar

StartChar: uniEC36
Encoding: 68 60470 68
Width: 734
VWidth: 1676
Flags: W
LayerCount: 2
Fore
SplineSet
242 172.5 m 1,0,-1
 52 -157.5 l 1,1,-1
 434 -157.5 l 1,2,-1
 242 172.5 l 1,0,-1
340 342.5 m 1,3,-1
 656 -199.5 l 2,4,5
 674 -227.5 674 -227.5 674 -255.5 c 0,6,7
 674 -327.5 674 -327.5 582 -327.5 c 2,8,-1
 -96 -327.5 l 2,9,10
 -186 -327.5 -186 -327.5 -186 -253.5 c 0,11,12
 -186 -227.5 -186 -227.5 -170 -199.5 c 2,13,-1
 144 342.5 l 1,14,-1
 -152 846.5 l 2,15,16
 -168 874.5 -168 874.5 -168 902.5 c 0,17,18
 -168 974.5 -168 974.5 -78 974.5 c 2,19,-1
 556 974.5 l 2,20,21
 648 974.5 648 974.5 648 902.5 c 0,22,23
 648 876.5 648 876.5 630 846.5 c 2,24,-1
 340 342.5 l 1,3,-1
410 804.5 m 1,25,-1
 70 804.5 l 1,26,-1
 240 512.5 l 1,27,-1
 410 804.5 l 1,25,-1
EndSplineSet
Validated: 1
EndChar

StartChar: uniEC37
Encoding: 69 60471 69
Width: 707
VWidth: 1664
Flags: W
LayerCount: 2
Fore
SplineSet
99 282.5 m 1,0,-1
 99 540.5 l 1,1,-1
 -13 282.5 l 1,2,-1
 99 282.5 l 1,0,-1
259 112.5 m 1,3,-1
 259 -177.5 l 1,4,-1
 565 -177.5 l 2,5,6
 645 -177.5 645 -177.5 645 -257.5 c 256,7,8
 645 -337.5 645 -337.5 565 -337.5 c 2,9,-1
 179 -337.5 l 2,10,11
 147 -337.5 147 -337.5 123 -314.5 c 128,-1,12
 99 -291.5 99 -291.5 99 -257.5 c 2,13,-1
 99 112.5 l 1,14,-1
 -143 112.5 l 2,15,16
 -231 112.5 -231 112.5 -231 186.5 c 0,17,18
 -231 208.5 -231 208.5 -221 230.5 c 2,19,-1
 91 944.5 l 2,20,21
 117 1008.5 117 1008.5 167 1008.5 c 0,22,23
 215 1008.5 215 1008.5 243 948.5 c 2,24,-1
 605 236.5 l 2,25,26
 617 210.5 617 210.5 617 186.5 c 0,27,28
 617 112.5 617 112.5 529 112.5 c 2,29,-1
 259 112.5 l 1,3,-1
259 540.5 m 1,30,-1
 259 282.5 l 1,31,-1
 391 282.5 l 1,32,-1
 259 540.5 l 1,30,-1
EndSplineSet
Validated: 1
EndChar

StartChar: uniEC38
Encoding: 70 60472 70
Width: 581
VWidth: 1676
Flags: W
LayerCount: 2
Fore
SplineSet
315.5 800 m 1,0,-1
 7.5 800 l 2,1,2
 -76.5 800 -76.5 800 -76.5 886 c 0,3,4
 -76.5 970 -76.5 970 7.5 970 c 2,5,-1
 443.5 970 l 1,6,-1
 513.5 958 l 1,7,8
 531.5 934 531.5 934 531.5 896 c 0,9,10
 531.5 874 531.5 874 525.5 858 c 0,11,12
 521.5 850 521.5 850 519.5 842 c 2,13,-1
 505.5 808 l 1,14,15
 353.5 470 353.5 470 75.5 -152 c 1,16,-1
 383.5 -152 l 2,17,18
 469.5 -152 469.5 -152 469.5 -238 c 0,19,20
 469.5 -322 469.5 -322 385.5 -322 c 2,21,-1
 -54.5 -322 l 2,22,23
 -142.5 -322 -142.5 -322 -142.5 -248 c 0,24,25
 -142.5 -226 -142.5 -226 -132.5 -202 c 2,26,-1
 91.5 306 l 2,27,28
 173.5 486 173.5 486 299.5 760 c 1,29,-1
 315.5 800 l 1,0,-1
EndSplineSet
Validated: 1
EndChar

StartChar: uniEC39
Encoding: 71 60473 71
Width: 545
VWidth: 1677
Flags: W
LayerCount: 2
Fore
SplineSet
67.5 83.5 m 1,0,-1
 71.5 69.5 l 2,1,2
 113.5 -104.5 113.5 -104.5 165.5 -146.5 c 0,3,4
 193.5 -168.5 193.5 -168.5 227.5 -168.5 c 0,5,6
 269.5 -168.5 269.5 -168.5 295.5 -140.5 c 128,-1,7
 321.5 -112.5 321.5 -112.5 321.5 -70.5 c 0,8,9
 321.5 37.5 321.5 37.5 193.5 97.5 c 0,10,11
 173.5 107.5 173.5 107.5 153.5 107.5 c 0,12,13
 127.5 107.5 127.5 107.5 67.5 83.5 c 1,0,-1
39.5 407.5 m 1,14,15
 33.5 361.5 33.5 361.5 33.5 321.5 c 0,16,17
 33.5 285.5 33.5 285.5 39.5 241.5 c 1,18,19
 99.5 257.5 99.5 257.5 151.5 257.5 c 0,20,21
 237.5 257.5 237.5 257.5 323.5 209.5 c 0,22,23
 481.5 119.5 481.5 119.5 481.5 -70.5 c 0,24,25
 481.5 -320.5 481.5 -320.5 243.5 -320.5 c 0,26,27
 127.5 -320.5 127.5 -320.5 65.5 -270.5 c 0,28,29
 -24.5 -198.5 -24.5 -198.5 -80.5 15.5 c 0,30,31
 -126.5 189.5 -126.5 189.5 -126.5 321.5 c 0,32,33
 -126.5 449.5 -126.5 449.5 -76.5 629.5 c 0,34,35
 -16.5 843.5 -16.5 843.5 71.5 915.5 c 0,36,37
 133.5 965.5 133.5 965.5 249.5 965.5 c 0,38,39
 487.5 965.5 487.5 965.5 487.5 715.5 c 0,40,41
 487.5 543.5 487.5 543.5 329.5 429.5 c 0,42,43
 267.5 383.5 267.5 383.5 183.5 383.5 c 0,44,45
 119.5 383.5 119.5 383.5 39.5 407.5 c 1,14,15
69.5 557.5 m 1,46,47
 137.5 531.5 137.5 531.5 173.5 531.5 c 0,48,49
 187.5 531.5 187.5 531.5 199.5 535.5 c 0,50,51
 327.5 583.5 327.5 583.5 327.5 715.5 c 0,52,53
 327.5 757.5 327.5 757.5 301.5 785.5 c 128,-1,54
 275.5 813.5 275.5 813.5 233.5 813.5 c 0,55,56
 199.5 813.5 199.5 813.5 171.5 791.5 c 0,57,58
 117.5 749.5 117.5 749.5 73.5 575.5 c 2,59,-1
 69.5 557.5 l 1,46,47
EndSplineSet
Validated: 1
EndChar

StartChar: uniEC3A
Encoding: 72 60474 72
Width: 85
VWidth: 1654
Flags: W
LayerCount: 2
Fore
SplineSet
-8.5 252.5 m 1,0,1
 -28.5 302.5 -28.5 302.5 -28.5 350.5 c 0,2,3
 -28.5 396.5 -28.5 396.5 -8.5 438.5 c 1,4,-1
 61.5 438.5 l 1,5,6
 81.5 404.5 81.5 404.5 81.5 354.5 c 256,7,8
 81.5 304.5 81.5 304.5 61.5 252.5 c 1,9,-1
 -8.5 252.5 l 1,0,1
EndSplineSet
Validated: 1
EndChar

StartChar: uniEC30
Encoding: 73 60464 73
Width: 685
VWidth: 1675
Flags: W
LayerCount: 2
Fore
SplineSet
231 977 m 0,0,1
 419 977 419 977 529 763 c 0,2,3
 609 609 609 609 609 319 c 0,4,5
 609 35 609 35 527 -119 c 0,6,7
 417 -327 417 -327 231 -327 c 256,8,9
 45 -327 45 -327 -65 -119 c 0,10,11
 -143 29 -143 29 -143 319 c 0,12,13
 -143 613 -143 613 -65 763 c 0,14,15
 45 977 45 977 231 977 c 0,0,1
231 817 m 256,16,17
 145 817 145 817 75 687 c 0,18,19
 17 581 17 581 17 319 c 0,20,21
 17 61 17 61 75 -43 c 0,22,23
 145 -167 145 -167 231 -167 c 256,24,25
 317 -167 317 -167 387 -43 c 0,26,27
 449 67 449 67 449 319 c 0,28,29
 449 573 449 573 387 687 c 0,30,31
 317 817 317 817 231 817 c 256,16,17
EndSplineSet
Validated: 1
EndChar

StartChar: uniEC3B
Encoding: 74 60475 74
Width: 57
VWidth: 1202
Flags: W
LayerCount: 2
Fore
SplineSet
-89 798 m 256,0,1
 -89 836 -89 836 -62 863 c 128,-1,2
 -35 890 -35 890 3 890 c 256,3,4
 41 890 41 890 68 863 c 128,-1,5
 95 836 95 836 95 798 c 256,6,7
 95 760 95 760 68 733 c 128,-1,8
 41 706 41 706 3 706 c 256,9,10
 -35 706 -35 706 -62 733 c 128,-1,11
 -89 760 -89 760 -89 798 c 256,0,1
EndSplineSet
Validated: 1
EndChar

StartChar: uniEC3C
Encoding: 75 60476 75
Width: 304
VWidth: 1776
Flags: W
LayerCount: 2
Fore
SplineSet
72.5 484.5 m 1,0,-1
 -83.5 484.5 l 2,1,2
 -163.5 484.5 -163.5 484.5 -163.5 564.5 c 256,3,4
 -163.5 644.5 -163.5 644.5 -83.5 644.5 c 2,5,-1
 148.5 644.5 l 2,6,7
 234.5 644.5 234.5 644.5 234.5 502.5 c 0,8,9
 234.5 486.5 234.5 486.5 226.5 406.5 c 0,10,11
 204.5 180.5 204.5 180.5 136.5 -133.5 c 0,12,13
 122.5 -197.5 122.5 -197.5 60.5 -197.5 c 0,14,15
 18.5 -197.5 18.5 -197.5 -4.5 -169.5 c 128,-1,16
 -27.5 -141.5 -27.5 -141.5 -19.5 -101.5 c 0,17,18
 -5.5 -37.5 -5.5 -37.5 36.5 198.5 c 0,19,20
 50.5 280.5 50.5 280.5 72.5 484.5 c 1,0,-1
EndSplineSet
Validated: 33
EndChar

StartChar: uniEC3E
Encoding: 76 60478 76
Width: 361
VWidth: 1777
Flags: W
LayerCount: 2
Fore
SplineSet
115.5 477.883789062 m 1,0,1
 41.5 489.883789062 41.5 489.883789062 -90.5 479.883789062 c 0,2,3
 -126.5 477.883789062 -126.5 477.883789062 -150.5 502.883789062 c 128,-1,4
 -174.5 527.883789062 -174.5 527.883789062 -174.5 563.883789062 c 0,5,6
 -174.5 637.883789062 -174.5 637.883789062 -100.5 639.883789062 c 0,7,8
 33.5 643.883789062 33.5 643.883789062 55.5 641.883789062 c 0,9,10
 287.5 629.883789062 287.5 629.883789062 287.5 443.883789062 c 0,11,12
 287.5 347.883789062 287.5 347.883789062 219.5 179.883789062 c 1,13,14
 181.5 109.883789062 181.5 109.883789062 129.5 -30.1162109375 c 0,15,16
 133.5 -32.1162109375 133.5 -32.1162109375 133.5 -32.1162109375 c 2,17,18
 133.5 -34.1162109375 133.5 -34.1162109375 128.5 -36.1162109375 c 128,-1,19
 123.5 -38.1162109375 123.5 -38.1162109375 125.5 -38.1162109375 c 2,20,21
 125.5 -38.1162109375 125.5 -38.1162109375 139.5 -38.1162109375 c 0,22,23
 223.5 -34.1162109375 223.5 -34.1162109375 223.5 -118.116210938 c 0,24,25
 223.5 -194.116210938 223.5 -194.116210938 145.5 -198.116210938 c 0,26,27
 77.5 -200.116210938 77.5 -200.116210938 45.5 -182.116210938 c 0,28,29
 35.5 -176.116210938 35.5 -176.116210938 -12.5 -124.116210938 c 0,30,31
 -30.5 -96.1162109375 -30.5 -96.1162109375 -30.5 -50.1162109375 c 0,32,33
 -30.5 17.8837890625 -30.5 17.8837890625 5.5 107.883789062 c 0,34,35
 25.5 151.883789062 25.5 151.883789062 63.5 239.883789062 c 0,36,37
 125.5 389.883789062 125.5 389.883789062 115.5 477.883789062 c 1,0,1
EndSplineSet
Validated: 33
EndChar

StartChar: uniEC41
Encoding: 77 60481 77
Width: 900
VWidth: 1675
Flags: W
LayerCount: 2
Fore
SplineSet
398 539 m 1,0,1
 772 433 772 433 834 163 c 0,2,3
 844 119 844 119 844 83 c 0,4,5
 844 -103 844 -103 682 -219 c 0,6,7
 536 -323 536 -323 342 -323 c 0,8,9
 64 -323 64 -323 -212 -105 c 0,10,11
 -244 -79 -244 -79 -244 -43 c 0,12,13
 -244 -11 -244 -11 -219 14 c 128,-1,14
 -194 39 -194 39 -162 39 c 0,15,16
 -134 39 -134 39 -112 21 c 0,17,18
 122 -163 122 -163 342 -163 c 0,19,20
 416 -163 416 -163 480 -143 c 0,21,22
 684 -79 684 -79 684 69 c 0,23,24
 684 167 684 167 598 253 c 0,25,26
 524 327 524 327 422 365 c 0,27,28
 298 409 298 409 190 417 c 0,29,30
 104 423 104 423 104 489 c 0,31,32
 104 531 104 531 150 563 c 2,33,-1
 508 811 l 1,34,-1
 -64 813 l 2,35,36
 -144 813 -144 813 -144 893 c 256,37,38
 -144 973 -144 973 -64 973 c 2,39,-1
 784 973 l 1,40,-1
 784 895 l 2,41,42
 784 885 784 885 782 817 c 1,43,-1
 398 539 l 1,0,1
EndSplineSet
Validated: 1
EndChar

StartChar: uniEC42
Encoding: 78 60482 78
Width: 862
VWidth: 1678
Flags: W
LayerCount: 2
Fore
SplineSet
636.5 546 m 1,0,-1
 636.5 808 l 1,1,-1
 -11.5 810 l 2,2,3
 -91.5 810 -91.5 810 -91.5 890 c 256,4,5
 -91.5 970 -91.5 970 -11.5 970 c 2,6,-1
 716.5 968 l 2,7,8
 748.5 968 748.5 968 772.5 944 c 128,-1,9
 796.5 920 796.5 920 796.5 888 c 2,10,-1
 796.5 502 l 2,11,12
 796.5 272 796.5 272 792.5 200 c 0,13,14
 782.5 20 782.5 20 744.5 -72 c 0,15,16
 690.5 -198 690.5 -198 554.5 -266 c 0,17,18
 434.5 -326 434.5 -326 286.5 -326 c 0,19,20
 66.5 -326 66.5 -326 -77.5 -200 c 0,21,22
 -229.5 -66 -229.5 -66 -229.5 150 c 0,23,24
 -229.5 274 -229.5 274 -167.5 366 c 0,25,26
 -95.5 470 -95.5 470 22.5 470 c 0,27,28
 148.5 470 148.5 470 282.5 340 c 1,29,30
 336.5 426 336.5 426 376.5 456 c 0,31,32
 474.5 532 474.5 532 636.5 546 c 1,0,-1
636.5 386 m 1,33,34
 546.5 380 546.5 380 494.5 340 c 0,35,36
 450.5 308 450.5 308 386.5 200 c 2,37,-1
 380.5 190 l 1,38,39
 386.5 168 386.5 168 386.5 146 c 0,40,41
 386.5 98 386.5 98 356.5 59 c 128,-1,42
 326.5 20 326.5 20 278.5 20 c 0,43,44
 214.5 20 214.5 20 196.5 98 c 0,45,46
 188.5 132 188.5 132 204.5 182 c 1,47,48
 180.5 228 180.5 228 122.5 269 c 128,-1,49
 64.5 310 64.5 310 16.5 310 c 0,50,51
 -71.5 310 -71.5 310 -71.5 160 c 0,52,53
 -71.5 38 -71.5 38 4.5 -52 c 128,-1,54
 80.5 -142 80.5 -142 200.5 -162 c 0,55,56
 224.5 -166 224.5 -166 270.5 -166 c 0,57,58
 362.5 -166 362.5 -166 452.5 -132 c 0,59,60
 558.5 -92 558.5 -92 592.5 -22 c 0,61,62
 638.5 74 638.5 74 636.5 386 c 1,33,34
EndSplineSet
Validated: 33
EndChar

StartChar: uniEC43
Encoding: 79 60483 79
Width: 790
VWidth: 1676
Flags: W
LayerCount: 2
Fore
SplineSet
266 306.5 m 1,0,1
 212 242.5 212 242.5 138 82.5 c 0,2,3
 56 -93.5 56 -93.5 60 -167.5 c 1,4,5
 186 -177.5 186 -177.5 280 -113.5 c 0,6,7
 384 -43.5 384 -43.5 384 78.5 c 256,8,9
 384 200.5 384 200.5 266 306.5 c 1,0,1
600 388.5 m 2,10,-1
 584 388.5 l 2,11,12
 568 388.5 568 388.5 424 376.5 c 1,13,14
 556 232.5 556 232.5 548 76.5 c 0,15,16
 538 -101.5 538 -101.5 394 -215.5 c 0,17,18
 258 -325.5 258 -325.5 76 -325.5 c 0,19,20
 52 -325.5 52 -325.5 30 -323.5 c 0,21,22
 -98 -311.5 -98 -311.5 -98 -171.5 c 0,23,24
 -98 -65.5 -98 -65.5 -22 110.5 c 0,25,26
 38 248.5 38 248.5 108 358.5 c 1,27,28
 -58 356.5 -58 356.5 -104 388.5 c 0,29,30
 -166 430.5 -166 430.5 -166 484.5 c 0,31,32
 -166 544.5 -166 544.5 -108 578.5 c 0,33,34
 -58 606.5 -58 606.5 4 602.5 c 0,35,36
 108 594.5 108 594.5 234 524.5 c 1,37,38
 272 576.5 272 576.5 356 688.5 c 2,39,-1
 450 812.5 l 1,40,-1
 -60 812.5 l 2,41,42
 -140 812.5 -140 812.5 -140 892.5 c 256,43,44
 -140 972.5 -140 972.5 -60 972.5 c 2,45,-1
 672 972.5 l 1,46,-1
 672 844.5 l 1,47,-1
 442 536.5 l 1,48,49
 550 544.5 550 544.5 598 544.5 c 0,50,51
 630 544.5 630 544.5 658 523.5 c 128,-1,52
 686 502.5 686 502.5 686 470.5 c 0,53,54
 686 432.5 686 432.5 661 408.5 c 128,-1,55
 636 384.5 636 384.5 600 388.5 c 2,10,-1
EndSplineSet
Validated: 33
EndChar

StartChar: uniEC44
Encoding: 80 60484 80
Width: 902
VWidth: 1676
Flags: W
LayerCount: 2
Fore
SplineSet
-100 972.5 m 2,0,-1
 768 970.5 l 1,1,2
 770 916.5 770 916.5 770 892.5 c 0,3,4
 768 862.5 768 862.5 770 824.5 c 1,5,6
 650 744.5 650 744.5 500 618.5 c 2,7,-1
 234 396.5 l 2,8,9
 138 316.5 138 316.5 48 214.5 c 0,10,11
 -90 56.5 -90 56.5 -90 -37.5 c 0,12,13
 -90 -95.5 -90 -95.5 -28 -133.5 c 0,14,15
 26 -167.5 26 -167.5 86 -167.5 c 0,16,17
 164 -167.5 164 -167.5 202 -63.5 c 0,18,19
 224 -5.5 224 -5.5 280 -5.5 c 0,20,21
 332 -5.5 332 -5.5 356 -59.5 c 0,22,23
 386 -125.5 386 -125.5 408 -139.5 c 0,24,25
 444 -159.5 444 -159.5 486 -159.5 c 0,26,27
 534 -159.5 534 -159.5 591 -127.5 c 128,-1,28
 648 -95.5 648 -95.5 660 -51.5 c 0,29,30
 688 46.5 688 46.5 688 196.5 c 0,31,32
 688 234.5 688 234.5 686 328.5 c 0,33,34
 684 410.5 684 410.5 684 458.5 c 0,35,36
 686 536.5 686 536.5 764 536.5 c 0,37,38
 844 536.5 844 536.5 844 454.5 c 0,39,40
 844 408.5 844 408.5 846 316.5 c 0,41,42
 846 224.5 846 224.5 846 178.5 c 0,43,44
 846 18.5 846 18.5 824 -65.5 c 0,45,46
 788 -193.5 788 -193.5 686 -257.5 c 0,47,48
 592 -317.5 592 -317.5 482 -317.5 c 0,49,50
 358 -317.5 358 -317.5 278 -239.5 c 1,51,52
 196 -325.5 196 -325.5 72 -325.5 c 0,53,54
 -54 -325.5 -54 -325.5 -152 -241.5 c 128,-1,55
 -250 -157.5 -250 -157.5 -250 -33.5 c 0,56,57
 -250 94.5 -250 94.5 -110 274.5 c 0,58,59
 -4 410.5 -4 410.5 134 520.5 c 0,60,61
 334 680.5 334 680.5 516 810.5 c 1,62,-1
 -100 812.5 l 2,63,64
 -180 812.5 -180 812.5 -180 892.5 c 256,65,66
 -180 972.5 -180 972.5 -100 972.5 c 2,0,-1
EndSplineSet
Validated: 33
EndChar

StartChar: uniEC45
Encoding: 81 60485 81
Width: 594
VWidth: 1179
Flags: W
LayerCount: 2
Fore
SplineSet
-453.486328125 929 m 0,0,1
 -453.486328125 903 -453.486328125 903 -476.486328125 872 c 128,-1,2
 -499.486328125 841 -499.486328125 841 -527.486328125 841 c 0,3,4
 -555.486328125 843 -555.486328125 843 -580.486328125 859 c 128,-1,5
 -605.486328125 875 -605.486328125 875 -607.486328125 875 c 0,6,7
 -625.486328125 875 -625.486328125 875 -623.486328125 849 c 0,8,9
 -617.486328125 785 -617.486328125 785 -567.486328125 738 c 128,-1,10
 -517.486328125 691 -517.486328125 691 -467.486328125 645 c 0,11,12
 -463.486328125 639 -463.486328125 639 -467.486328125 633 c 0,13,14
 -471.486328125 625 -471.486328125 625 -481.486328125 625 c 0,15,16
 -489.486328125 625 -489.486328125 625 -501.486328125 631 c 2,17,-1
 -535.486328125 653 l 2,18,19
 -607.486328125 699 -607.486328125 699 -667.486328125 751 c 0,20,21
 -737.486328125 813 -737.486328125 813 -735.486328125 861 c 0,22,23
 -731.486328125 937 -731.486328125 937 -685.486328125 977 c 128,-1,24
 -639.486328125 1017 -639.486328125 1017 -575.486328125 1017 c 0,25,26
 -543.486328125 1017 -543.486328125 1017 -511.486328125 1005 c 0,27,28
 -453.486328125 967 -453.486328125 967 -453.486328125 929 c 0,0,1
EndSplineSet
Validated: 33
EndChar

StartChar: uniEC46
Encoding: 82 60486 82
Width: 877
VWidth: 1675
Flags: W
LayerCount: 2
Fore
SplineSet
371.5 -224.5 m 2,0,-1
 485.5 481.5 l 2,1,2
 491.5 521.5 491.5 521.5 539.5 539.5 c 1,3,4
 553.5 663.5 553.5 663.5 553.5 731.5 c 0,5,6
 553.5 789.5 553.5 789.5 543.5 805.5 c 0,7,8
 529.5 813.5 529.5 813.5 475.5 809.5 c 256,9,10
 421.5 805.5 421.5 805.5 411.5 793.5 c 0,11,12
 389.5 749.5 389.5 749.5 347.5 705.5 c 2,13,-1
 295.5 651.5 l 2,14,15
 289.5 643.5 289.5 643.5 213.5 681.5 c 0,16,17
 207.5 683.5 207.5 683.5 197.5 689.5 c 0,18,19
 181.5 689.5 181.5 689.5 159.5 674.5 c 128,-1,20
 137.5 659.5 137.5 659.5 141.5 645.5 c 1,21,22
 65.5 763.5 65.5 763.5 15.5 805.5 c 0,23,24
 1.5 807.5 1.5 807.5 -132.5 811.5 c 0,25,26
 -210.5 813.5 -210.5 813.5 -210.5 891.5 c 0,27,28
 -210.5 971.5 -210.5 971.5 -128.5 971.5 c 0,29,30
 -48.5 971.5 -48.5 971.5 61.5 959.5 c 1,31,32
 123.5 943.5 123.5 943.5 225.5 807.5 c 1,33,-1
 233.5 817.5 l 1,34,35
 325.5 911.5 325.5 911.5 351.5 931.5 c 0,36,37
 407.5 971.5 407.5 971.5 485.5 971.5 c 0,38,39
 513.5 971.5 513.5 971.5 547.5 967.5 c 0,40,41
 713.5 947.5 713.5 947.5 713.5 725.5 c 0,42,43
 713.5 665.5 713.5 665.5 703.5 543.5 c 1,44,-1
 775.5 543.5 l 2,45,46
 855.5 543.5 855.5 543.5 855.5 463.5 c 256,47,48
 855.5 383.5 855.5 383.5 775.5 383.5 c 2,49,-1
 685.5 383.5 l 1,50,51
 653.5 149.5 653.5 149.5 565.5 -260.5 c 0,52,53
 551.5 -322.5 551.5 -322.5 491.5 -322.5 c 0,54,55
 473.5 -322.5 473.5 -322.5 457.5 -316.5 c 0,56,57
 415.5 -318.5 415.5 -318.5 390.5 -292.5 c 128,-1,58
 365.5 -266.5 365.5 -266.5 371.5 -224.5 c 2,0,-1
EndSplineSet
Validated: 33
EndChar

StartChar: uniEC47
Encoding: 83 60487 83
Width: 825
VWidth: 1678
Flags: W
LayerCount: 2
Fore
SplineSet
583 392.591796875 m 1,0,1
 489 402.591796875 489 402.591796875 389 404.591796875 c 0,2,3
 123 412.591796875 123 412.591796875 69 376.591796875 c 0,4,5
 -47 300.591796875 -47 300.591796875 -47 132.591796875 c 0,6,7
 -47 -57.408203125 -47 -57.408203125 123 -125.408203125 c 0,8,9
 219 -163.408203125 219 -163.408203125 347 -163.408203125 c 0,10,11
 499 -163.408203125 499 -163.408203125 545 -95.408203125 c 0,12,13
 571 -57.408203125 571 -57.408203125 579 36.591796875 c 0,14,15
 585 102.591796875 585 102.591796875 583 392.591796875 c 1,0,1
-37 968.591796875 m 2,16,-1
 663 968.591796875 l 2,17,18
 695 968.591796875 695 968.591796875 719 944.591796875 c 128,-1,19
 743 920.591796875 743 920.591796875 743 888.591796875 c 2,20,-1
 743 488.591796875 l 2,21,22
 747 468.591796875 747 468.591796875 743 450.591796875 c 0,23,24
 743 64.591796875 743 64.591796875 739 20.591796875 c 0,25,26
 723 -159.408203125 723 -159.408203125 619 -243.408203125 c 0,27,28
 523 -319.408203125 523 -319.408203125 337 -325.408203125 c 0,29,30
 145 -331.408203125 145 -331.408203125 -9 -239.408203125 c 0,31,32
 -185 -133.408203125 -185 -133.408203125 -201 48.591796875 c 0,33,34
 -203 70.591796875 -203 70.591796875 -203 126.591796875 c 0,35,36
 -203 528.591796875 -203 528.591796875 169 560.591796875 c 0,37,38
 347 576.591796875 347 576.591796875 583 554.591796875 c 1,39,-1
 583 808.591796875 l 1,40,-1
 -37 808.591796875 l 2,41,42
 -117 808.591796875 -117 808.591796875 -117 888.591796875 c 256,43,44
 -117 968.591796875 -117 968.591796875 -37 968.591796875 c 2,16,-1
EndSplineSet
Validated: 33
EndChar

StartChar: uniEC48
Encoding: 84 60488 84
Width: 804
VWidth: 1677
Flags: W
LayerCount: 2
Fore
SplineSet
-41.5 967.5 m 2,0,-1
 638.5 967.5 l 2,1,2
 670.5 967.5 670.5 967.5 694.5 943.5 c 128,-1,3
 718.5 919.5 718.5 919.5 718.5 887.5 c 2,4,-1
 718.5 425.5 l 2,5,6
 718.5 347.5 718.5 347.5 648.5 347.5 c 0,7,8
 592.5 347.5 592.5 347.5 474.5 377.5 c 128,-1,9
 356.5 407.5 356.5 407.5 294.5 407.5 c 0,10,11
 180.5 407.5 180.5 407.5 92.5 355.5 c 0,12,13
 -41.5 277.5 -41.5 277.5 -41.5 119.5 c 0,14,15
 -41.5 -64.5 -41.5 -64.5 144.5 -130.5 c 0,16,17
 244.5 -166.5 244.5 -166.5 336.5 -166.5 c 0,18,19
 416.5 -166.5 416.5 -166.5 442.5 -158.5 c 0,20,21
 478.5 -150.5 478.5 -150.5 524.5 -108.5 c 0,22,23
 550.5 -86.5 550.5 -86.5 578.5 -86.5 c 0,24,25
 612.5 -86.5 612.5 -86.5 635.5 -112.5 c 128,-1,26
 658.5 -138.5 658.5 -138.5 658.5 -170.5 c 0,27,28
 658.5 -206.5 658.5 -206.5 630.5 -230.5 c 0,29,30
 562.5 -288.5 562.5 -288.5 496.5 -306.5 c 0,31,32
 438.5 -322.5 438.5 -322.5 316.5 -322.5 c 0,33,34
 124.5 -322.5 124.5 -322.5 -15.5 -232.5 c 0,35,36
 -175.5 -132.5 -175.5 -132.5 -197.5 47.5 c 0,37,38
 -199.5 63.5 -199.5 63.5 -199.5 91.5 c 0,39,40
 -199.5 215.5 -199.5 215.5 -145.5 324.5 c 128,-1,41
 -91.5 433.5 -91.5 433.5 10.5 493.5 c 0,42,43
 134.5 565.5 134.5 565.5 306.5 565.5 c 0,44,45
 424.5 565.5 424.5 565.5 558.5 533.5 c 1,46,-1
 558.5 807.5 l 1,47,-1
 -41.5 807.5 l 2,48,49
 -121.5 807.5 -121.5 807.5 -121.5 887.5 c 256,50,51
 -121.5 967.5 -121.5 967.5 -41.5 967.5 c 2,0,-1
EndSplineSet
Validated: 1
EndChar

StartChar: uniEC49
Encoding: 85 60489 85
Width: 304
VWidth: 1168
Flags: W
LayerCount: 2
Fore
SplineSet
-527.5 982 m 2,0,-1
 -527.5 762 l 1,1,-1
 -1.5 762 l 2,2,3
 78.5 762 78.5 762 78.5 682 c 256,4,5
 78.5 602 78.5 602 -1.5 602 c 2,6,-1
 -607.5 602 l 2,7,8
 -639.5 602 -639.5 602 -663.5 626 c 128,-1,9
 -687.5 650 -687.5 650 -687.5 682 c 2,10,-1
 -687.5 982 l 2,11,12
 -687.5 1062 -687.5 1062 -607.5 1062 c 256,13,14
 -527.5 1062 -527.5 1062 -527.5 982 c 2,0,-1
EndSplineSet
Validated: 1
EndChar

StartChar: uniEC4A
Encoding: 86 60490 86
Width: 901
VWidth: 1677
Flags: W
LayerCount: 2
Fore
SplineSet
335 241.5 m 1,0,-1
 31 -124.5 l 1,1,2
 155 -108.5 155 -108.5 279 -108.5 c 0,3,4
 443 -108.5 443 -108.5 627 -136.5 c 1,5,6
 503 85.5 503 85.5 335 241.5 c 1,0,-1
435 361.5 m 1,7,8
 709 101.5 709 101.5 845 -212.5 c 0,9,10
 855 -236.5 855 -236.5 855 -258.5 c 0,11,12
 855 -326.5 855 -326.5 783 -326.5 c 0,13,14
 771 -326.5 771 -326.5 753 -322.5 c 0,15,16
 629 -292.5 629 -292.5 343 -268.5 c 0,17,18
 297 -264.5 297 -264.5 259 -264.5 c 0,19,20
 87 -264.5 87 -264.5 -149 -318.5 c 0,21,22
 -167 -322.5 -167 -322.5 -179 -322.5 c 0,23,24
 -257 -322.5 -257 -322.5 -257 -254.5 c 0,25,26
 -257 -222.5 -257 -222.5 -229 -188.5 c 2,27,-1
 211 343.5 l 1,28,29
 169 371.5 169 371.5 125 399.5 c 0,30,31
 73 439.5 73 439.5 73 477.5 c 0,32,33
 73 545.5 73 545.5 165 545.5 c 2,34,-1
 379 545.5 l 1,35,-1
 599 811.5 l 1,36,-1
 -35 809.5 l 2,37,38
 -115 809.5 -115 809.5 -115 889.5 c 256,39,40
 -115 969.5 -115 969.5 -35 969.5 c 2,41,-1
 799 971.5 l 1,42,-1
 799 875.5 l 1,43,-1
 797 797.5 l 1,44,-1
 587 545.5 l 1,45,-1
 771 545.5 l 2,46,47
 851 545.5 851 545.5 851 465.5 c 256,48,49
 851 385.5 851 385.5 771 385.5 c 2,50,-1
 455 385.5 l 1,51,-1
 435 361.5 l 1,7,8
EndSplineSet
Validated: 1
EndChar

StartChar: uniEC4B
Encoding: 87 60491 87
Width: 904
VWidth: 1683
Flags: W
LayerCount: 2
Fore
SplineSet
658 547 m 1,0,-1
 658 791 l 1,1,-1
 -60 791 l 2,2,3
 -140 791 -140 791 -140 871 c 256,4,5
 -140 951 -140 951 -60 951 c 2,6,-1
 738 951 l 2,7,8
 770 951 770 951 794 927 c 128,-1,9
 818 903 818 903 818 871 c 2,10,-1
 818 487 l 2,11,12
 822 469 822 469 818 451 c 2,13,-1
 818 -257 l 2,14,15
 818 -317 818 -317 746 -317 c 0,16,17
 712 -317 712 -317 674 -305 c 1,18,19
 274 221 274 221 -142 387 c 2,20,-1
 -152 391 l 1,21,22
 -228 393 -228 393 -228 473 c 0,23,24
 -228 551 -228 551 -156 551 c 0,25,26
 -144 551 -144 551 -130 549 c 2,27,-1
 658 547 l 1,0,-1
658 -37 m 1,28,-1
 658 391 l 1,29,-1
 194 391 l 1,30,31
 420 231 420 231 658 -37 c 1,28,-1
EndSplineSet
Validated: 1
EndChar

StartChar: uniEC4C
Encoding: 88 60492 88
Width: 872
VWidth: 1678
Flags: W
LayerCount: 2
Fore
SplineSet
462 -165.010742188 m 0,0,1
 522 -165.010742188 522 -165.010742188 584 -47.0107421875 c 0,2,3
 656 90.9892578125 656 90.9892578125 656 304.989257812 c 0,4,5
 656 436.989257812 656 436.989257812 630 584.989257812 c 0,6,7
 590 808.989257812 590 808.989257812 506 806.989257812 c 0,8,9
 426 804.989257812 426 804.989257812 394 588.989257812 c 0,10,11
 376 470.989257812 376 470.989257812 376 320.989257812 c 0,12,13
 376 92.9892578125 376 92.9892578125 330 -69.0107421875 c 0,14,15
 258 -325.010742188 258 -325.010742188 82 -325.010742188 c 0,16,17
 -98 -327.010742188 -98 -327.010742188 -184 -73.0107421875 c 0,18,19
 -244 102.989257812 -244 102.989257812 -244 320.989257812 c 256,20,21
 -244 538.989257812 -244 538.989257812 -184 714.989257812 c 0,22,23
 -100 964.989257812 -100 964.989257812 80 964.989257812 c 0,24,25
 160 964.989257812 160 964.989257812 160 884.989257812 c 256,26,27
 160 804.989257812 160 804.989257812 80 804.989257812 c 0,28,29
 -10 804.989257812 -10 804.989257812 -54 592.989257812 c 0,30,31
 -84 450.989257812 -84 450.989257812 -84 320.989257812 c 256,32,33
 -84 190.989257812 -84 190.989257812 -54 48.9892578125 c 0,34,35
 -8 -167.010742188 -8 -167.010742188 80 -165.010742188 c 0,36,37
 152 -165.010742188 152 -165.010742188 190 40.9892578125 c 0,38,39
 216 180.989257812 216 180.989257812 216 320.989257812 c 0,40,41
 216 960.989257812 216 960.989257812 502 966.989257812 c 0,42,43
 682 970.989257812 682 970.989257812 762 708.989257812 c 0,44,45
 816 532.989257812 816 532.989257812 816 304.989257812 c 0,46,47
 816 92.9892578125 816 92.9892578125 742 -87.0107421875 c 0,48,49
 644 -325.010742188 644 -325.010742188 462 -325.010742188 c 0,50,51
 382 -325.010742188 382 -325.010742188 382 -245.010742188 c 256,52,53
 382 -165.010742188 382 -165.010742188 462 -165.010742188 c 0,0,1
EndSplineSet
Validated: 33
EndChar

StartChar: uniEC4D
Encoding: 89 60493 89
Width: 900
VWidth: 1674
Flags: W
LayerCount: 2
Fore
SplineSet
410.5 186.5 m 1,0,1
 410.5 92.5 410.5 92.5 412.5 -61.5 c 2,2,-1
 414.5 -245.5 l 2,3,4
 414.5 -325.5 414.5 -325.5 334.5 -325.5 c 256,5,6
 254.5 -325.5 254.5 -325.5 254.5 -245.5 c 0,7,8
 254.5 -173.5 254.5 -173.5 252.5 -29.5 c 128,-1,9
 250.5 114.5 250.5 114.5 250.5 186.5 c 1,10,11
 148.5 200.5 148.5 200.5 70.5 246.5 c 0,12,13
 -25.5 300.5 -25.5 300.5 -45.5 386.5 c 2,14,-1
 -143.5 808.5 l 1,15,16
 -153.5 806.5 -153.5 806.5 -165.5 806.5 c 0,17,18
 -199.5 806.5 -199.5 806.5 -220.5 830.5 c 128,-1,19
 -241.5 854.5 -241.5 854.5 -241.5 888.5 c 0,20,21
 -241.5 968.5 -241.5 968.5 -145.5 968.5 c 0,22,23
 -69.5 968.5 -69.5 968.5 -21.5 912.5 c 0,24,25
 20.5 862.5 20.5 862.5 28.5 784.5 c 0,26,27
 36.5 690.5 36.5 690.5 110.5 422.5 c 0,28,29
 122.5 376.5 122.5 376.5 254.5 350.5 c 1,30,31
 262.5 620.5 262.5 620.5 294.5 712.5 c 0,32,33
 330.5 818.5 330.5 818.5 440.5 897.5 c 128,-1,34
 550.5 976.5 550.5 976.5 662.5 976.5 c 0,35,36
 840.5 976.5 840.5 976.5 840.5 786.5 c 0,37,38
 840.5 650.5 840.5 650.5 714.5 370.5 c 0,39,40
 644.5 214.5 644.5 214.5 410.5 186.5 c 1,0,1
682.5 804.5 m 1,41,42
 668.5 808.5 668.5 808.5 650.5 808.5 c 0,43,44
 580.5 808.5 580.5 808.5 525.5 768.5 c 128,-1,45
 470.5 728.5 470.5 728.5 446.5 662.5 c 0,46,47
 420.5 588.5 420.5 588.5 414.5 344.5 c 1,48,49
 534.5 360.5 534.5 360.5 570.5 438.5 c 0,50,51
 682.5 684.5 682.5 684.5 682.5 800.5 c 2,52,-1
 682.5 804.5 l 1,41,42
EndSplineSet
Validated: 1
EndChar

StartChar: uniEC4E
Encoding: 90 60494 90
Width: 900
VWidth: 1673
Flags: W
LayerCount: 2
Fore
SplineSet
242 745.5 m 1,0,1
 242 749.5 242 749.5 232 891.5 c 0,2,3
 230 929.5 230 929.5 253 953.5 c 128,-1,4
 276 977.5 276 977.5 314 977.5 c 0,5,6
 388 977.5 388 977.5 392 903.5 c 0,7,8
 394 861.5 394 861.5 400 743.5 c 1,9,10
 612 735.5 612 735.5 662 725.5 c 0,11,12
 848 693.5 848 693.5 848 585.5 c 0,13,14
 848 535.5 848 535.5 808 457.5 c 0,15,16
 732 309.5 732 309.5 598 197.5 c 0,17,18
 526 137.5 526 137.5 350 27.5 c 0,19,20
 182 -74.5 182 -74.5 104 -144.5 c 1,21,22
 186 -156.5 186 -156.5 278 -160.5 c 0,23,24
 330 -162.5 330 -162.5 454 -160.5 c 2,25,-1
 628 -158.5 l 2,26,27
 708 -158.5 708 -158.5 708 -238.5 c 256,28,29
 708 -318.5 708 -318.5 628 -318.5 c 0,30,31
 584 -318.5 584 -318.5 494 -321.5 c 128,-1,32
 404 -324.5 404 -324.5 360 -324.5 c 0,33,34
 -12 -324.5 -12 -324.5 -62 -238.5 c 1,35,-1
 -66 -228.5 l 2,36,37
 -82 -198.5 -82 -198.5 -82 -168.5 c 0,38,39
 -82 -84.5 -82 -84.5 40 11.5 c 0,40,41
 102 59.5 102 59.5 264 159.5 c 0,42,43
 410 251.5 410 251.5 484 315.5 c 0,44,45
 612 427.5 612 427.5 680 557.5 c 1,46,47
 588 573.5 588 573.5 406 583.5 c 1,48,49
 408 343.5 408 343.5 336 297.5 c 0,50,51
 302 275.5 302 275.5 244 275.5 c 0,52,53
 118 275.5 118 275.5 -56 373.5 c 0,54,55
 -248 481.5 -248 481.5 -248 595.5 c 0,56,57
 -248 745.5 -248 745.5 242 745.5 c 1,0,1
236 433.5 m 1,58,59
 248 501.5 248 501.5 248 585.5 c 1,60,-1
 248 585.5 l 1,61,62
 54 585.5 54 585.5 -70 559.5 c 1,63,64
 -32 525.5 -32 525.5 86 481.5 c 0,65,66
 186 443.5 186 443.5 236 433.5 c 1,58,59
EndSplineSet
Validated: 33
EndChar

StartChar: uniEC4F
Encoding: 91 60495 91
Width: 305
VWidth: 1168
Flags: W
LayerCount: 2
Fore
SplineSet
79 982 m 2,0,-1
 79 682 l 2,1,2
 79 638 79 638 65 624 c 0,3,4
 43 602 43 602 19 602 c 2,5,-1
 -609 602 l 2,6,7
 -689 602 -689 602 -689 682 c 256,8,9
 -689 762 -689 762 -609 762 c 2,10,-1
 -81 762 l 1,11,-1
 -81 982 l 2,12,13
 -81 1062 -81 1062 -1 1062 c 256,14,15
 79 1062 79 1062 79 982 c 2,0,-1
EndSplineSet
Validated: 1
EndChar

StartChar: uniEC50
Encoding: 92 60496 92
Width: 903
VWidth: 1674
Flags: W
LayerCount: 2
Fore
SplineSet
477 816.5 m 1,0,-1
 -77 816.5 l 2,1,2
 -157 816.5 -157 816.5 -157 896.5 c 256,3,4
 -157 976.5 -157 976.5 -77 976.5 c 2,5,-1
 789 976.5 l 1,6,7
 789 938.5 789 938.5 789 896.5 c 2,8,-1
 789 820.5 l 1,9,10
 479 652.5 479 652.5 281 452.5 c 0,11,12
 53 222.5 53 222.5 -55 -91.5 c 1,13,-1
 -39 -85.5 l 2,14,15
 191 0.5 191 0.5 337 0.5 c 0,16,17
 487 0.5 487 0.5 683 -101.5 c 1,18,-1
 683 386.5 l 2,19,20
 683 466.5 683 466.5 763 466.5 c 256,21,22
 843 466.5 843 466.5 843 386.5 c 2,23,-1
 843 -241.5 l 2,24,25
 843 -323.5 843 -323.5 785 -323.5 c 0,26,27
 731 -323.5 731 -323.5 583 -229.5 c 1,28,29
 437 -159.5 437 -159.5 337 -159.5 c 0,30,31
 151 -159.5 151 -159.5 -87 -285.5 c 2,32,-1
 -121 -303.5 l 2,33,34
 -163 -325.5 -163 -325.5 -195 -325.5 c 0,35,36
 -249 -325.5 -249 -325.5 -249 -245.5 c 0,37,38
 -249 -141.5 -249 -141.5 -179 32.5 c 0,39,40
 11 508.5 11 508.5 477 816.5 c 1,0,-1
EndSplineSet
Validated: 1
EndChar

StartChar: uniEC51
Encoding: 93 60497 93
Width: 779
VWidth: 1678
Flags: W
LayerCount: 2
Fore
SplineSet
117.5 -133.666992188 m 1,0,-1
 123.5 -137.666992188 l 2,1,2
 179.5 -175.666992188 179.5 -175.666992188 321.5 -163.666992188 c 0,3,4
 359.5 -159.666992188 359.5 -159.666992188 383.5 -182.666992188 c 128,-1,5
 407.5 -205.666992188 407.5 -205.666992188 407.5 -243.666992188 c 0,6,7
 407.5 -317.666992188 407.5 -317.666992188 333.5 -323.666992188 c 0,8,9
 213.5 -331.666992188 213.5 -331.666992188 93.5 -291.666992188 c 0,10,11
 -54.5 -241.666992188 -54.5 -241.666992188 -54.5 -145.666992188 c 0,12,13
 -54.5 -105.666992188 -54.5 -105.666992188 -24.5 -57.6669921875 c 0,14,15
 -2.5 -23.6669921875 -2.5 -23.6669921875 179.5 136.333007812 c 0,16,17
 331.5 268.333007812 331.5 268.333007812 331.5 338.333007812 c 0,18,19
 331.5 396.333007812 331.5 396.333007812 131.5 396.333007812 c 0,20,21
 7.5 396.333007812 7.5 396.333007812 -64.5 384.333007812 c 0,22,23
 -104.5 378.333007812 -104.5 378.333007812 -137.5 396.333007812 c 128,-1,24
 -170.5 414.333007812 -170.5 414.333007812 -170.5 454.333007812 c 0,25,26
 -170.5 502.333007812 -170.5 502.333007812 -118.5 532.333007812 c 2,27,-1
 345.5 808.333007812 l 1,28,-1
 -82.5 808.333007812 l 2,29,30
 -162.5 808.333007812 -162.5 808.333007812 -162.5 888.333007812 c 256,31,32
 -162.5 968.333007812 -162.5 968.333007812 -82.5 968.333007812 c 2,33,-1
 671.5 968.333007812 l 1,34,35
 671.5 930.333007812 671.5 930.333007812 671.5 886.333007812 c 0,36,37
 671.5 858.333007812 671.5 858.333007812 669.5 822.333007812 c 1,38,-1
 229.5 552.333007812 l 1,39,40
 491.5 522.333007812 491.5 522.333007812 491.5 338.333007812 c 0,41,42
 491.5 210.333007812 491.5 210.333007812 349.5 76.3330078125 c 0,43,44
 309.5 38.3330078125 309.5 38.3330078125 117.5 -133.666992188 c 1,0,-1
EndSplineSet
Validated: 33
EndChar

StartChar: uniEC52
Encoding: 94 60498 94
Width: 902
VWidth: 1673
Flags: W
LayerCount: 2
Fore
SplineSet
414.360351562 817.31640625 m 1,0,1
 414.360351562 519.31640625 414.360351562 519.31640625 404.360351562 -244.68359375 c 0,2,3
 404.360351562 -324.68359375 404.360351562 -324.68359375 324.360351562 -324.68359375 c 256,4,5
 244.360351562 -324.68359375 244.360351562 -324.68359375 244.360351562 -244.68359375 c 2,6,-1
 244.360351562 865.31640625 l 2,7,8
 242.360351562 921.31640625 242.360351562 921.31640625 324.360351562 951.31640625 c 0,9,10
 384.360351562 975.31640625 384.360351562 975.31640625 454.360351562 977.31640625 c 0,11,12
 566.360351562 983.31640625 566.360351562 983.31640625 677.360351562 940.31640625 c 128,-1,13
 788.360351562 897.31640625 788.360351562 897.31640625 814.360351562 841.31640625 c 0,14,15
 854.360351562 755.31640625 854.360351562 755.31640625 854.360351562 689.31640625 c 0,16,17
 854.360351562 533.31640625 854.360351562 533.31640625 636.360351562 487.31640625 c 0,18,19
 542.360351562 467.31640625 542.360351562 467.31640625 310.360351562 467.31640625 c 0,20,21
 16.3603515625 467.31640625 16.3603515625 467.31640625 -71.6396484375 489.31640625 c 0,22,23
 -311.639648438 547.31640625 -311.639648438 547.31640625 -237.639648438 757.31640625 c 0,24,25
 -205.639648438 845.31640625 -205.639648438 845.31640625 -87.6396484375 907.31640625 c 128,-1,26
 30.3603515625 969.31640625 30.3603515625 969.31640625 180.360351562 969.31640625 c 0,27,28
 266.360351562 969.31640625 266.360351562 969.31640625 350.360351562 945.31640625 c 0,29,30
 408.360351562 929.31640625 408.360351562 929.31640625 408.360351562 871.31640625 c 0,31,32
 408.360351562 839.31640625 408.360351562 839.31640625 387.360351562 814.31640625 c 128,-1,33
 366.360351562 789.31640625 366.360351562 789.31640625 332.360351562 789.31640625 c 0,34,35
 318.360351562 789.31640625 318.360351562 789.31640625 306.360351562 793.31640625 c 0,36,37
 276.360351562 801.31640625 276.360351562 801.31640625 186.360351562 801.31640625 c 0,38,39
 -103.639648438 801.31640625 -103.639648438 801.31640625 -89.6396484375 667.31640625 c 1,40,41
 -63.6396484375 635.31640625 -63.6396484375 635.31640625 100.360351562 629.31640625 c 0,42,43
 112.360351562 627.31640625 112.360351562 627.31640625 310.360351562 627.31640625 c 0,44,45
 526.360351562 627.31640625 526.360351562 627.31640625 530.360351562 627.31640625 c 0,46,47
 682.360351562 633.31640625 682.360351562 633.31640625 694.360351562 663.31640625 c 1,48,49
 670.360351562 823.31640625 670.360351562 823.31640625 486.360351562 823.31640625 c 0,50,51
 454.360351562 823.31640625 454.360351562 823.31640625 414.360351562 817.31640625 c 1,0,1
EndSplineSet
Validated: 37
EndChar

StartChar: uniEC53
Encoding: 95 60499 95
Width: 860
VWidth: 1676
Flags: W
LayerCount: 2
Fore
SplineSet
318 632.98828125 m 1,0,1
 212 798.98828125 212 798.98828125 34 802.98828125 c 2,2,-1
 -128 806.98828125 l 2,3,4
 -208 808.98828125 -208 808.98828125 -208 886.98828125 c 0,5,6
 -208 968.98828125 -208 968.98828125 -128 966.98828125 c 2,7,-1
 32 962.98828125 l 2,8,9
 268 956.98828125 268 956.98828125 410 778.98828125 c 1,10,11
 446 830.98828125 446 830.98828125 516 914.98828125 c 0,12,13
 542 944.98828125 542 944.98828125 572 944.98828125 c 0,14,15
 636 944.98828125 636 944.98828125 718 840.98828125 c 0,16,17
 744 802.98828125 744 802.98828125 798 728.98828125 c 0,18,19
 820 704.98828125 820 704.98828125 820 676.98828125 c 0,20,21
 820 644.98828125 820 644.98828125 795 620.98828125 c 128,-1,22
 770 596.98828125 770 596.98828125 738 596.98828125 c 0,23,24
 704 596.98828125 704 596.98828125 678 624.98828125 c 2,25,-1
 576 732.98828125 l 1,26,27
 530 672.98828125 530 672.98828125 500 626.98828125 c 1,28,29
 592 422.98828125 592 422.98828125 592 154.98828125 c 0,30,31
 592 0.98828125 592 0.98828125 560 -131.01171875 c 0,32,33
 514 -321.01171875 514 -321.01171875 406 -321.01171875 c 0,34,35
 290 -321.01171875 290 -321.01171875 244 -99.01171875 c 0,36,37
 218 24.98828125 218 24.98828125 218 194.98828125 c 0,38,39
 218 442.98828125 218 442.98828125 318 632.98828125 c 1,0,1
406 -87.01171875 m 1,40,41
 430 18.98828125 430 18.98828125 430 152.98828125 c 0,42,43
 430 290.98828125 430 290.98828125 402 412.98828125 c 1,44,45
 378 318.98828125 378 318.98828125 378 194.98828125 c 0,46,47
 378 30.98828125 378 30.98828125 406 -87.01171875 c 1,40,41
EndSplineSet
Validated: 33
EndChar

StartChar: uniEC54
Encoding: 96 60500 96
Width: 899
VWidth: 1672
Flags: W
LayerCount: 2
Fore
SplineSet
403.510742188 592 m 1,0,1
 483.510742188 674 483.510742188 674 599.510742188 822 c 1,2,-1
 -80.4892578125 822 l 2,3,4
 -160.489257812 822 -160.489257812 822 -160.489257812 902 c 256,5,6
 -160.489257812 982 -160.489257812 982 -80.4892578125 982 c 2,7,-1
 723.510742188 982 l 2,8,9
 753.510742188 982 753.510742188 982 784.510742188 947 c 128,-1,10
 815.510742188 912 815.510742188 912 815.510742188 882 c 0,11,12
 815.510742188 816 815.510742188 816 745.510742188 725 c 128,-1,13
 675.510742188 634 675.510742188 634 503.510742188 468 c 1,14,15
 545.510742188 386 545.510742188 386 665.510742188 158 c 2,16,-1
 681.510742188 128 l 1,17,-1
 681.510742188 450 l 2,18,19
 681.510742188 530 681.510742188 530 761.510742188 530 c 256,20,21
 841.510742188 530 841.510742188 530 841.510742188 450 c 2,22,-1
 841.510742188 -234 l 2,23,24
 841.510742188 -326 841.510742188 -326 767.510742188 -326 c 0,25,26
 713.510742188 -326 713.510742188 -326 687.510742188 -268 c 0,27,28
 657.510742188 -200 657.510742188 -200 521.510742188 88 c 0,29,30
 459.510742188 220 459.510742188 220 383.510742188 364 c 1,31,32
 299.510742188 308 299.510742188 308 83.5107421875 308 c 0,33,34
 -236.489257812 308 -236.489257812 308 -240.489257812 488 c 0,35,36
 -242.489257812 570 -242.489257812 570 -150.489257812 622 c 0,37,38
 -80.4892578125 660 -80.4892578125 660 15.5107421875 672 c 0,39,40
 63.5107421875 678 63.5107421875 678 107.510742188 678 c 0,41,42
 291.510742188 678 291.510742188 678 403.510742188 592 c 1,0,1
-58.4892578125 488 m 1,43,44
 -4.4892578125 468 -4.4892578125 468 95.5107421875 468 c 256,45,46
 195.510742188 468 195.510742188 468 265.510742188 488 c 1,47,48
 191.510742188 518 191.510742188 518 99.5107421875 518 c 256,49,50
 7.5107421875 518 7.5107421875 518 -58.4892578125 488 c 1,43,44
EndSplineSet
Validated: 33
EndChar

StartChar: uniEC55
Encoding: 97 60501 97
Width: 318
VWidth: 2089
Flags: W
LayerCount: 2
Fore
SplineSet
-664 -9 m 2,0,-1
 28 -9 l 2,1,2
 108 -9 108 -9 108 -89 c 256,3,4
 108 -169 108 -169 28 -169 c 2,5,-1
 -664 -169 l 2,6,7
 -744 -169 -744 -169 -744 -89 c 256,8,9
 -744 -9 -744 -9 -664 -9 c 2,0,-1
EndSplineSet
Validated: 1
EndChar

StartChar: uniEC56
Encoding: 98 60502 98
Width: 821
VWidth: 1670
Flags: W
LayerCount: 2
Fore
SplineSet
507.494140625 378 m 1,0,-1
 153.494140625 378 l 1,1,2
 337.494140625 220 337.494140625 220 417.494140625 34 c 1,3,4
 471.494140625 226 471.494140625 226 507.494140625 378 c 1,0,-1
63.494140625 818 m 1,5,6
 11.494140625 830 11.494140625 830 -10.505859375 828 c 0,7,8
 -88.505859375 824 -88.505859375 824 -92.505859375 824 c 0,9,10
 -170.505859375 826 -170.505859375 826 -170.505859375 902 c 0,11,12
 -170.505859375 974 -170.505859375 974 -88.505859375 984 c 1,13,14
 -96.505859375 984 -96.505859375 984 -79.505859375 986 c 128,-1,15
 -62.505859375 988 -62.505859375 988 -40.505859375 990 c 0,16,17
 -12.505859375 990 -12.505859375 990 16.494140625 988 c 128,-1,18
 45.494140625 986 45.494140625 986 115.494140625 970 c 0,19,20
 149.494140625 960 149.494140625 960 187.494140625 910 c 0,21,22
 211.494140625 876 211.494140625 876 261.494140625 810 c 1,23,-1
 269.494140625 818 l 2,24,25
 321.494140625 874 321.494140625 874 393.494140625 944 c 0,26,27
 439.494140625 978 439.494140625 978 445.494140625 980 c 0,28,29
 467.494140625 992 467.494140625 992 503.494140625 992 c 0,30,31
 535.494140625 992 535.494140625 992 571.494140625 986 c 0,32,33
 731.494140625 960 731.494140625 960 729.494140625 770 c 0,34,35
 729.494140625 672 729.494140625 672 703.494140625 518 c 1,36,37
 729.494140625 496 729.494140625 496 729.494140625 458 c 0,38,39
 729.494140625 400 729.494140625 400 677.494140625 382 c 1,40,41
 627.494140625 154 627.494140625 154 501.494140625 -262 c 0,42,43
 479.494140625 -332 479.494140625 -332 425.494140625 -332 c 0,44,45
 367.494140625 -332 367.494140625 -332 345.494140625 -254 c 0,46,47
 339.494140625 -220 339.494140625 -220 309.494140625 -128 c 0,48,49
 247.494140625 60 247.494140625 60 143.494140625 174 c 0,50,51
 121.494140625 200 121.494140625 200 -128.505859375 386 c 2,52,-1
 -136.505859375 392 l 2,53,54
 -146.505859375 398 -146.505859375 398 -160.505859375 408 c 1,55,-1
 -168.505859375 432 l 2,56,57
 -176.505859375 450 -176.505859375 450 -176.505859375 466 c 0,58,59
 -176.505859375 494 -176.505859375 494 -150.505859375 515 c 128,-1,60
 -124.505859375 536 -124.505859375 536 -94.505859375 536 c 2,61,-1
 541.494140625 536 l 1,62,63
 573.494140625 694 573.494140625 694 573.494140625 766 c 0,64,65
 573.494140625 800 573.494140625 800 565.494140625 814 c 0,66,67
 545.494140625 826 545.494140625 826 505.494140625 826 c 0,68,69
 483.494140625 826 483.494140625 826 478.494140625 819 c 128,-1,70
 473.494140625 812 473.494140625 812 469.494140625 804 c 0,71,72
 455.494140625 790 455.494140625 790 383.494140625 716 c 2,73,-1
 331.494140625 662 l 2,74,75
 327.494140625 656 327.494140625 656 321.494140625 656 c 2,76,-1
 249.494140625 690 l 1,77,78
 177.494140625 660 177.494140625 660 179.494140625 654 c 1,79,80
 103.494140625 784 103.494140625 784 63.494140625 818 c 1,5,6
EndSplineSet
Validated: 33
EndChar

StartChar: uniEC57
Encoding: 99 60503 99
Width: 778
VWidth: 1675
Flags: W
LayerCount: 2
Fore
SplineSet
260.5 973 m 256,0,1
 500.5 973 500.5 973 622.5 757 c 0,2,3
 720.5 583 720.5 583 720.5 323 c 0,4,5
 720.5 65 720.5 65 620.5 -109 c 0,6,7
 498.5 -323 498.5 -323 260.5 -323 c 0,8,9
 20.5 -323 20.5 -323 -97.5 -101 c 0,10,11
 -193.5 75 -193.5 75 -193.5 335 c 0,12,13
 -193.5 593 -193.5 593 -97.5 763 c 0,14,15
 20.5 973 20.5 973 260.5 973 c 256,0,1
260.5 813 m 0,16,17
 -33.5 813 -33.5 813 -33.5 335 c 0,18,19
 -33.5 141 -33.5 141 18.5 15 c 0,20,21
 94.5 -163 94.5 -163 260.5 -163 c 0,22,23
 428.5 -163 428.5 -163 504.5 7 c 0,24,25
 560.5 133 560.5 133 560.5 323 c 256,26,27
 560.5 513 560.5 513 504.5 641 c 0,28,29
 426.5 813 426.5 813 260.5 813 c 0,16,17
EndSplineSet
Validated: 1
EndChar

StartChar: uniEC58
Encoding: 100 60504 100
Width: 898
VWidth: 1672
Flags: W
LayerCount: 2
Fore
SplineSet
770 -321.5 m 2,0,-1
 328 -319.5 l 1,1,2
 72 -309.5 72 -309.5 -26 -283.5 c 0,3,4
 -246 -225.5 -246 -225.5 -246 -57.5 c 0,5,6
 -246 124.5 -246 124.5 -64 346.5 c 1,7,8
 -218 398.5 -218 398.5 -226 502.5 c 0,9,10
 -232 576.5 -232 576.5 -208 678.5 c 0,11,12
 -192 736.5 -192 736.5 -166 850.5 c 0,13,14
 -158 886.5 -158 886.5 -146 934.5 c 1,15,16
 -126 976.5 -126 976.5 -76 976.5 c 0,17,18
 4 976.5 4 976.5 4 896.5 c 0,19,20
 2 886.5 2 886.5 -2 862.5 c 2,21,-1
 -10 820.5 l 2,22,23
 -22 766.5 -22 766.5 -46 658.5 c 0,24,25
 -74 522.5 -74 522.5 -66 504.5 c 0,26,27
 -58 488.5 -58 488.5 82 476.5 c 1,28,29
 312 622.5 312 622.5 576 622.5 c 0,30,31
 714 622.5 714 622.5 790 564.5 c 0,32,33
 848 520.5 848 520.5 848 472.5 c 0,34,35
 848 386.5 848 386.5 636 340.5 c 0,36,37
 464 302.5 464 302.5 268 302.5 c 0,38,39
 190 302.5 190 302.5 122 308.5 c 1,40,41
 52 250.5 52 250.5 -16 126.5 c 0,42,43
 -90 -5.5 -90 -5.5 -86 -85.5 c 1,44,45
 -28 -143.5 -28 -143.5 336 -157.5 c 0,46,47
 436 -161.5 436 -161.5 770 -161.5 c 0,48,49
 850 -161.5 850 -161.5 850 -241.5 c 256,50,51
 850 -321.5 850 -321.5 770 -321.5 c 2,0,-1
EndSplineSet
Validated: 33
EndChar

StartChar: uniEC59
Encoding: 101 60505 101
Width: 917
VWidth: 1676
Flags: W
LayerCount: 2
Fore
SplineSet
-8.7998046875 -150 m 1,0,1
 41.2001953125 -128 41.2001953125 -128 41.2001953125 -76 c 0,2,3
 41.2001953125 -10 41.2001953125 -10 -12.7998046875 -14 c 0,4,5
 -38.7998046875 -16 -38.7998046875 -16 -63.7998046875 -39 c 128,-1,6
 -88.7998046875 -62 -88.7998046875 -62 -88.7998046875 -88 c 0,7,8
 -88.7998046875 -134 -88.7998046875 -134 -8.7998046875 -150 c 1,0,1
-0.7998046875 970 m 2,9,-1
 771.200195312 970 l 2,10,11
 809.200195312 970 809.200195312 970 833.200195312 944 c 128,-1,12
 857.200195312 918 857.200195312 918 851.200195312 880 c 0,13,14
 837.200195312 790 837.200195312 790 785.200195312 534 c 1,15,16
 697.200195312 166 697.200195312 166 571.200195312 -36 c 0,17,18
 391.200195312 -322 391.200195312 -322 95.2001953125 -322 c 0,19,20
 49.2001953125 -322 49.2001953125 -322 -0.7998046875 -314 c 0,21,22
 -30.7998046875 -316 -30.7998046875 -316 -50.7998046875 -306 c 0,23,24
 -246.799804688 -262 -246.799804688 -262 -246.799804688 -90 c 0,25,26
 -246.799804688 4 -246.799804688 4 -182.799804688 71 c 128,-1,27
 -118.799804688 138 -118.799804688 138 -24.7998046875 146 c 0,28,29
 75.2001953125 154 75.2001953125 154 137.200195312 89 c 128,-1,30
 199.200195312 24 199.200195312 24 199.200195312 -78 c 0,31,32
 199.200195312 -112 199.200195312 -112 191.200195312 -144 c 1,33,34
 379.200195312 -92 379.200195312 -92 493.200195312 146 c 0,35,36
 551.200195312 266 551.200195312 266 629.200195312 574 c 0,37,38
 655.200195312 678 655.200195312 678 677.200195312 810 c 1,39,-1
 -0.7998046875 810 l 2,40,41
 -80.7998046875 810 -80.7998046875 810 -80.7998046875 890 c 256,42,43
 -80.7998046875 970 -80.7998046875 970 -0.7998046875 970 c 2,9,-1
EndSplineSet
Validated: 33
EndChar

StartChar: uniEC5A
Encoding: 102 60506 102
Width: 818
VWidth: 1674
Flags: W
LayerCount: 2
Fore
SplineSet
468 300 m 1,0,1
 436 304 436 304 406 304 c 0,2,3
 196 304 196 304 62 182 c 0,4,5
 -40 90 -40 90 -40 -6 c 0,6,7
 -40 -162 -40 -162 156 -162 c 0,8,9
 206 -162 206 -162 264 -150 c 0,10,11
 384 -124 384 -124 468 -64 c 0,12,13
 574 14 574 14 574 122 c 0,14,15
 574 226 574 226 468 300 c 1,0,1
292 542 m 1,16,17
 444 508 444 508 530 450 c 2,18,-1
 542 442 l 2,19,20
 736 312 736 312 736 128 c 0,21,22
 736 -40 736 -40 596 -164 c 0,23,24
 474 -272 474 -272 296 -308 c 0,25,26
 218 -324 218 -324 148 -324 c 0,27,28
 -2 -324 -2 -324 -94 -250 c 0,29,30
 -196 -168 -196 -168 -196 -24 c 0,31,32
 -196 118 -196 118 -100 240 c 0,33,34
 -12 352 -12 352 126 410 c 1,35,36
 114 412 114 412 74 414 c 0,37,38
 -14 418 -14 418 -14 486 c 0,39,40
 -14 526 -14 526 34 560 c 2,41,-1
 394 816 l 1,42,-1
 -70 814 l 2,43,44
 -150 814 -150 814 -150 894 c 256,45,46
 -150 974 -150 974 -70 974 c 2,47,-1
 666 976 l 1,48,-1
 666 800 l 1,49,-1
 292 542 l 1,16,17
EndSplineSet
Validated: 1
EndChar

StartChar: uniEC60
Encoding: 103 60512 103
Width: 98
VWidth: 1386
Flags: W
LayerCount: 2
Fore
SplineSet
16.5 520.5 m 1,0,1
 -3.5 570.5 -3.5 570.5 -3.5 618.5 c 0,2,3
 -3.5 664.5 -3.5 664.5 16.5 706.5 c 1,4,-1
 86.5 706.5 l 1,5,6
 106.5 672.5 106.5 672.5 106.5 622.5 c 256,7,8
 106.5 572.5 106.5 572.5 86.5 520.5 c 1,9,-1
 16.5 520.5 l 1,0,1
EndSplineSet
Validated: 1
EndChar

StartChar: uniEC61
Encoding: 104 60513 104
Width: 900
VWidth: 1675
Flags: W
LayerCount: 2
Fore
SplineSet
398 539 m 1,0,1
 772 433 772 433 834 163 c 0,2,3
 844 119 844 119 844 83 c 0,4,5
 844 -103 844 -103 682 -219 c 0,6,7
 536 -323 536 -323 342 -323 c 0,8,9
 64 -323 64 -323 -212 -105 c 0,10,11
 -244 -79 -244 -79 -244 -43 c 0,12,13
 -244 -11 -244 -11 -219 14 c 128,-1,14
 -194 39 -194 39 -162 39 c 0,15,16
 -134 39 -134 39 -112 21 c 0,17,18
 122 -163 122 -163 342 -163 c 0,19,20
 416 -163 416 -163 480 -143 c 0,21,22
 684 -79 684 -79 684 69 c 0,23,24
 684 167 684 167 598 253 c 0,25,26
 524 327 524 327 422 365 c 0,27,28
 298 409 298 409 190 417 c 0,29,30
 104 423 104 423 104 489 c 0,31,32
 104 531 104 531 150 563 c 2,33,-1
 508 811 l 1,34,-1
 -64 813 l 2,35,36
 -144 813 -144 813 -144 893 c 256,37,38
 -144 973 -144 973 -64 973 c 2,39,-1
 752 971 l 2,40,41
 844 971 844 971 844 901 c 0,42,43
 844 857 844 857 798 825 c 2,44,-1
 398 539 l 1,0,1
EndSplineSet
Validated: 1
EndChar

StartChar: uniEC62
Encoding: 105 60514 105
Width: 862
VWidth: 1678
Flags: W
LayerCount: 2
Fore
SplineSet
636.5 546 m 1,0,-1
 636.5 808 l 1,1,-1
 -11.5 810 l 2,2,3
 -91.5 810 -91.5 810 -91.5 890 c 256,4,5
 -91.5 970 -91.5 970 -11.5 970 c 2,6,-1
 716.5 968 l 2,7,8
 748.5 968 748.5 968 772.5 944 c 128,-1,9
 796.5 920 796.5 920 796.5 888 c 2,10,-1
 796.5 502 l 2,11,12
 796.5 272 796.5 272 792.5 200 c 0,13,14
 782.5 20 782.5 20 744.5 -72 c 0,15,16
 690.5 -198 690.5 -198 554.5 -266 c 0,17,18
 434.5 -326 434.5 -326 286.5 -326 c 0,19,20
 66.5 -326 66.5 -326 -77.5 -200 c 0,21,22
 -229.5 -66 -229.5 -66 -229.5 150 c 0,23,24
 -229.5 274 -229.5 274 -167.5 366 c 0,25,26
 -95.5 470 -95.5 470 22.5 470 c 0,27,28
 148.5 470 148.5 470 282.5 340 c 1,29,30
 336.5 426 336.5 426 376.5 456 c 0,31,32
 474.5 532 474.5 532 636.5 546 c 1,0,-1
636.5 386 m 1,33,34
 546.5 380 546.5 380 494.5 340 c 0,35,36
 450.5 308 450.5 308 386.5 200 c 2,37,-1
 380.5 190 l 1,38,39
 386.5 168 386.5 168 386.5 146 c 0,40,41
 386.5 98 386.5 98 356.5 59 c 128,-1,42
 326.5 20 326.5 20 278.5 20 c 0,43,44
 214.5 20 214.5 20 196.5 98 c 0,45,46
 188.5 132 188.5 132 204.5 182 c 1,47,48
 180.5 228 180.5 228 122.5 269 c 128,-1,49
 64.5 310 64.5 310 16.5 310 c 0,50,51
 -71.5 310 -71.5 310 -71.5 160 c 0,52,53
 -71.5 38 -71.5 38 4.5 -52 c 128,-1,54
 80.5 -142 80.5 -142 200.5 -162 c 0,55,56
 224.5 -166 224.5 -166 270.5 -166 c 0,57,58
 362.5 -166 362.5 -166 452.5 -132 c 0,59,60
 558.5 -92 558.5 -92 592.5 -22 c 0,61,62
 638.5 74 638.5 74 636.5 386 c 1,33,34
EndSplineSet
Validated: 33
EndChar

StartChar: uniEC63
Encoding: 106 60515 106
Width: 790
VWidth: 1676
Flags: W
LayerCount: 2
Fore
SplineSet
266 306.5 m 1,0,1
 212 242.5 212 242.5 138 82.5 c 0,2,3
 56 -93.5 56 -93.5 60 -167.5 c 1,4,5
 186 -177.5 186 -177.5 280 -113.5 c 0,6,7
 384 -43.5 384 -43.5 384 78.5 c 256,8,9
 384 200.5 384 200.5 266 306.5 c 1,0,1
600 388.5 m 2,10,-1
 584 388.5 l 2,11,12
 568 388.5 568 388.5 424 376.5 c 1,13,14
 556 232.5 556 232.5 548 76.5 c 0,15,16
 538 -101.5 538 -101.5 394 -215.5 c 0,17,18
 258 -325.5 258 -325.5 76 -325.5 c 0,19,20
 52 -325.5 52 -325.5 30 -323.5 c 0,21,22
 -98 -311.5 -98 -311.5 -98 -171.5 c 0,23,24
 -98 -65.5 -98 -65.5 -22 110.5 c 0,25,26
 38 248.5 38 248.5 108 358.5 c 1,27,28
 -58 356.5 -58 356.5 -104 388.5 c 0,29,30
 -166 430.5 -166 430.5 -166 484.5 c 0,31,32
 -166 544.5 -166 544.5 -108 578.5 c 0,33,34
 -58 606.5 -58 606.5 4 602.5 c 0,35,36
 108 594.5 108 594.5 234 524.5 c 1,37,38
 272 576.5 272 576.5 356 688.5 c 2,39,-1
 450 812.5 l 1,40,-1
 -60 812.5 l 2,41,42
 -140 812.5 -140 812.5 -140 892.5 c 256,43,44
 -140 972.5 -140 972.5 -60 972.5 c 2,45,-1
 672 972.5 l 1,46,-1
 672 844.5 l 1,47,-1
 442 536.5 l 1,48,49
 550 544.5 550 544.5 598 544.5 c 0,50,51
 630 544.5 630 544.5 658 523.5 c 128,-1,52
 686 502.5 686 502.5 686 470.5 c 0,53,54
 686 432.5 686 432.5 661 408.5 c 128,-1,55
 636 384.5 636 384.5 600 388.5 c 2,10,-1
EndSplineSet
Validated: 33
EndChar

StartChar: uniEC64
Encoding: 107 60516 107
Width: 902
VWidth: 1676
Flags: W
LayerCount: 2
Fore
SplineSet
-100 972.5 m 2,0,-1
 768 970.5 l 1,1,2
 770 916.5 770 916.5 770 892.5 c 0,3,4
 768 862.5 768 862.5 770 824.5 c 1,5,6
 650 744.5 650 744.5 500 618.5 c 2,7,-1
 234 396.5 l 2,8,9
 138 316.5 138 316.5 48 214.5 c 0,10,11
 -90 56.5 -90 56.5 -90 -37.5 c 0,12,13
 -90 -99.5 -90 -99.5 -16 -139.5 c 0,14,15
 30 -167.5 30 -167.5 86 -167.5 c 0,16,17
 164 -167.5 164 -167.5 202 -63.5 c 0,18,19
 224 -5.5 224 -5.5 280 -5.5 c 0,20,21
 332 -5.5 332 -5.5 356 -59.5 c 0,22,23
 386 -125.5 386 -125.5 408 -139.5 c 0,24,25
 444 -159.5 444 -159.5 486 -159.5 c 0,26,27
 534 -159.5 534 -159.5 591 -127.5 c 128,-1,28
 648 -95.5 648 -95.5 660 -51.5 c 0,29,30
 688 46.5 688 46.5 688 196.5 c 0,31,32
 688 234.5 688 234.5 686 328.5 c 0,33,34
 684 410.5 684 410.5 684 458.5 c 0,35,36
 686 536.5 686 536.5 764 536.5 c 0,37,38
 844 536.5 844 536.5 844 454.5 c 0,39,40
 844 408.5 844 408.5 846 316.5 c 0,41,42
 846 224.5 846 224.5 846 178.5 c 0,43,44
 846 18.5 846 18.5 824 -65.5 c 0,45,46
 788 -193.5 788 -193.5 686 -257.5 c 0,47,48
 592 -317.5 592 -317.5 482 -317.5 c 0,49,50
 358 -317.5 358 -317.5 278 -239.5 c 1,51,52
 196 -325.5 196 -325.5 72 -325.5 c 0,53,54
 -54 -325.5 -54 -325.5 -152 -241.5 c 128,-1,55
 -250 -157.5 -250 -157.5 -250 -33.5 c 0,56,57
 -250 94.5 -250 94.5 -110 274.5 c 0,58,59
 -4 410.5 -4 410.5 134 520.5 c 0,60,61
 334 680.5 334 680.5 516 810.5 c 1,62,-1
 -100 812.5 l 2,63,64
 -180 812.5 -180 812.5 -180 892.5 c 256,65,66
 -180 972.5 -180 972.5 -100 972.5 c 2,0,-1
EndSplineSet
Validated: 33
EndChar

StartChar: uniEC65
Encoding: 108 60517 108
Width: 599
VWidth: 1108
Flags: W
LayerCount: 2
Fore
SplineSet
-462.984375 1136.88867188 m 0,0,1
 -462.984375 1112.88867188 -462.984375 1112.88867188 -487.984375 1085.88867188 c 128,-1,2
 -512.984375 1058.88867188 -512.984375 1058.88867188 -540.984375 1058.88867188 c 0,3,4
 -568.984375 1060.88867188 -568.984375 1060.88867188 -593.984375 1074.88867188 c 128,-1,5
 -618.984375 1088.88867188 -618.984375 1088.88867188 -622.984375 1088.88867188 c 0,6,7
 -640.984375 1088.88867188 -640.984375 1088.88867188 -638.984375 1066.88867188 c 0,8,9
 -632.984375 1010.88867188 -632.984375 1010.88867188 -608.984375 978.888671875 c 0,10,11
 -592.984375 952.888671875 -592.984375 952.888671875 -542.984375 912.888671875 c 1,12,13
 -522.984375 910.888671875 -522.984375 910.888671875 -502.984375 904.888671875 c 0,14,15
 -442.984375 870.888671875 -442.984375 870.888671875 -442.984375 836.888671875 c 0,16,17
 -442.984375 812.888671875 -442.984375 812.888671875 -466.984375 785.888671875 c 128,-1,18
 -490.984375 758.888671875 -490.984375 758.888671875 -518.984375 758.888671875 c 0,19,20
 -546.984375 760.888671875 -546.984375 760.888671875 -572.984375 774.888671875 c 128,-1,21
 -598.984375 788.888671875 -598.984375 788.888671875 -602.984375 788.888671875 c 0,22,23
 -618.984375 788.888671875 -618.984375 788.888671875 -616.984375 764.888671875 c 0,24,25
 -610.984375 710.888671875 -610.984375 710.888671875 -558.984375 668.888671875 c 128,-1,26
 -506.984375 626.888671875 -506.984375 626.888671875 -456.984375 584.888671875 c 0,27,28
 -448.984375 578.888671875 -448.984375 578.888671875 -458.984375 570.888671875 c 0,29,30
 -470.984375 562.888671875 -470.984375 562.888671875 -490.984375 572.888671875 c 2,31,-1
 -526.984375 592.888671875 l 2,32,33
 -614.984375 642.888671875 -614.984375 642.888671875 -660.984375 678.888671875 c 0,34,35
 -734.984375 734.888671875 -734.984375 734.888671875 -732.984375 776.888671875 c 0,36,37
 -726.984375 884.888671875 -726.984375 884.888671875 -612.984375 908.888671875 c 1,38,39
 -644.984375 936.888671875 -644.984375 936.888671875 -694.984375 978.888671875 c 0,40,41
 -756.984375 1024.88867188 -756.984375 1024.88867188 -754.984375 1076.88867188 c 0,42,43
 -750.984375 1144.88867188 -750.984375 1144.88867188 -698.984375 1180.88867188 c 0,44,45
 -654.984375 1214.88867188 -654.984375 1214.88867188 -588.984375 1214.88867188 c 0,46,47
 -554.984375 1214.88867188 -554.984375 1214.88867188 -524.984375 1204.88867188 c 0,48,49
 -462.984375 1170.88867188 -462.984375 1170.88867188 -462.984375 1136.88867188 c 0,0,1
EndSplineSet
Validated: 33
EndChar

StartChar: uniEC66
Encoding: 109 60518 109
Width: 877
VWidth: 1675
Flags: W
LayerCount: 2
Fore
SplineSet
371.5 -224.5 m 2,0,-1
 485.5 481.5 l 2,1,2
 491.5 521.5 491.5 521.5 539.5 539.5 c 1,3,4
 553.5 663.5 553.5 663.5 553.5 731.5 c 0,5,6
 553.5 789.5 553.5 789.5 543.5 805.5 c 0,7,8
 529.5 813.5 529.5 813.5 475.5 809.5 c 256,9,10
 421.5 805.5 421.5 805.5 411.5 793.5 c 0,11,12
 389.5 749.5 389.5 749.5 347.5 705.5 c 2,13,-1
 295.5 651.5 l 2,14,15
 289.5 643.5 289.5 643.5 213.5 681.5 c 0,16,17
 207.5 683.5 207.5 683.5 197.5 689.5 c 0,18,19
 181.5 689.5 181.5 689.5 159.5 674.5 c 128,-1,20
 137.5 659.5 137.5 659.5 141.5 645.5 c 1,21,22
 65.5 763.5 65.5 763.5 15.5 805.5 c 0,23,24
 1.5 807.5 1.5 807.5 -132.5 811.5 c 0,25,26
 -210.5 813.5 -210.5 813.5 -210.5 891.5 c 0,27,28
 -210.5 971.5 -210.5 971.5 -128.5 971.5 c 0,29,30
 -48.5 971.5 -48.5 971.5 61.5 959.5 c 1,31,32
 123.5 943.5 123.5 943.5 225.5 807.5 c 1,33,-1
 233.5 817.5 l 1,34,35
 325.5 911.5 325.5 911.5 351.5 931.5 c 0,36,37
 407.5 971.5 407.5 971.5 485.5 971.5 c 0,38,39
 513.5 971.5 513.5 971.5 547.5 967.5 c 0,40,41
 713.5 947.5 713.5 947.5 713.5 725.5 c 0,42,43
 713.5 665.5 713.5 665.5 703.5 543.5 c 1,44,-1
 775.5 543.5 l 2,45,46
 855.5 543.5 855.5 543.5 855.5 463.5 c 256,47,48
 855.5 383.5 855.5 383.5 775.5 383.5 c 2,49,-1
 685.5 383.5 l 1,50,51
 653.5 149.5 653.5 149.5 565.5 -260.5 c 0,52,53
 551.5 -322.5 551.5 -322.5 491.5 -322.5 c 0,54,55
 473.5 -322.5 473.5 -322.5 457.5 -316.5 c 0,56,57
 415.5 -318.5 415.5 -318.5 390.5 -292.5 c 128,-1,58
 365.5 -266.5 365.5 -266.5 371.5 -224.5 c 2,0,-1
EndSplineSet
Validated: 33
EndChar

StartChar: uniEC67
Encoding: 110 60519 110
Width: 825
VWidth: 1678
Flags: W
LayerCount: 2
Fore
SplineSet
583 392.591796875 m 1,0,1
 489 402.591796875 489 402.591796875 389 404.591796875 c 0,2,3
 123 412.591796875 123 412.591796875 69 376.591796875 c 0,4,5
 -47 300.591796875 -47 300.591796875 -47 132.591796875 c 0,6,7
 -47 -57.408203125 -47 -57.408203125 123 -125.408203125 c 0,8,9
 219 -163.408203125 219 -163.408203125 347 -163.408203125 c 0,10,11
 499 -163.408203125 499 -163.408203125 545 -95.408203125 c 0,12,13
 571 -57.408203125 571 -57.408203125 579 36.591796875 c 0,14,15
 585 102.591796875 585 102.591796875 583 392.591796875 c 1,0,1
-37 968.591796875 m 2,16,-1
 663 968.591796875 l 2,17,18
 695 968.591796875 695 968.591796875 719 944.591796875 c 128,-1,19
 743 920.591796875 743 920.591796875 743 888.591796875 c 2,20,-1
 743 488.591796875 l 2,21,22
 747 468.591796875 747 468.591796875 743 450.591796875 c 0,23,24
 743 64.591796875 743 64.591796875 739 20.591796875 c 0,25,26
 723 -159.408203125 723 -159.408203125 619 -243.408203125 c 0,27,28
 523 -319.408203125 523 -319.408203125 337 -325.408203125 c 0,29,30
 145 -331.408203125 145 -331.408203125 -9 -239.408203125 c 0,31,32
 -185 -133.408203125 -185 -133.408203125 -201 48.591796875 c 0,33,34
 -203 70.591796875 -203 70.591796875 -203 126.591796875 c 0,35,36
 -203 528.591796875 -203 528.591796875 169 560.591796875 c 0,37,38
 347 576.591796875 347 576.591796875 583 554.591796875 c 1,39,-1
 583 808.591796875 l 1,40,-1
 -37 808.591796875 l 2,41,42
 -117 808.591796875 -117 808.591796875 -117 888.591796875 c 256,43,44
 -117 968.591796875 -117 968.591796875 -37 968.591796875 c 2,16,-1
EndSplineSet
Validated: 33
EndChar

StartChar: uniEC68
Encoding: 111 60520 111
Width: 804
VWidth: 1677
Flags: W
LayerCount: 2
Fore
SplineSet
-41.5 967.5 m 2,0,-1
 638.5 967.5 l 2,1,2
 670.5 967.5 670.5 967.5 694.5 943.5 c 128,-1,3
 718.5 919.5 718.5 919.5 718.5 887.5 c 2,4,-1
 718.5 425.5 l 2,5,6
 718.5 347.5 718.5 347.5 648.5 347.5 c 0,7,8
 592.5 347.5 592.5 347.5 474.5 377.5 c 128,-1,9
 356.5 407.5 356.5 407.5 294.5 407.5 c 0,10,11
 180.5 407.5 180.5 407.5 92.5 355.5 c 0,12,13
 -41.5 277.5 -41.5 277.5 -41.5 119.5 c 0,14,15
 -41.5 -64.5 -41.5 -64.5 144.5 -130.5 c 0,16,17
 244.5 -166.5 244.5 -166.5 336.5 -166.5 c 0,18,19
 416.5 -166.5 416.5 -166.5 442.5 -158.5 c 0,20,21
 478.5 -150.5 478.5 -150.5 524.5 -108.5 c 0,22,23
 550.5 -86.5 550.5 -86.5 578.5 -86.5 c 0,24,25
 612.5 -86.5 612.5 -86.5 635.5 -112.5 c 128,-1,26
 658.5 -138.5 658.5 -138.5 658.5 -170.5 c 0,27,28
 658.5 -206.5 658.5 -206.5 630.5 -230.5 c 0,29,30
 562.5 -288.5 562.5 -288.5 496.5 -306.5 c 0,31,32
 438.5 -322.5 438.5 -322.5 316.5 -322.5 c 0,33,34
 124.5 -322.5 124.5 -322.5 -15.5 -232.5 c 0,35,36
 -175.5 -132.5 -175.5 -132.5 -197.5 47.5 c 0,37,38
 -199.5 63.5 -199.5 63.5 -199.5 91.5 c 0,39,40
 -199.5 215.5 -199.5 215.5 -145.5 324.5 c 128,-1,41
 -91.5 433.5 -91.5 433.5 10.5 493.5 c 0,42,43
 134.5 565.5 134.5 565.5 306.5 565.5 c 0,44,45
 424.5 565.5 424.5 565.5 558.5 533.5 c 1,46,-1
 558.5 807.5 l 1,47,-1
 -41.5 807.5 l 2,48,49
 -121.5 807.5 -121.5 807.5 -121.5 887.5 c 256,50,51
 -121.5 967.5 -121.5 967.5 -41.5 967.5 c 2,0,-1
EndSplineSet
Validated: 1
EndChar

StartChar: uniEC69
Encoding: 112 60521 112
Width: 318
VWidth: 1138
Flags: W
LayerCount: 2
Fore
SplineSet
-687.5 660.5 m 0,0,1
 -567.5 856.5 -567.5 856.5 -445.5 1052.5 c 0,2,3
 -361.5 1182.5 -361.5 1182.5 -315.5 1182.5 c 256,4,5
 -269.5 1182.5 -269.5 1182.5 -187.5 1050.5 c 0,6,7
 -67.5 854.5 -67.5 854.5 52.5 656.5 c 0,8,9
 64.5 636.5 64.5 636.5 64.5 614.5 c 0,10,11
 64.5 584.5 64.5 584.5 40.5 562.5 c 128,-1,12
 16.5 540.5 16.5 540.5 -13.5 540.5 c 0,13,14
 -53.5 540.5 -53.5 540.5 -75.5 576.5 c 2,15,-1
 -317.5 960.5 l 1,16,-1
 -561.5 580.5 l 2,17,18
 -585.5 544.5 -585.5 544.5 -623.5 544.5 c 0,19,20
 -653.5 544.5 -653.5 544.5 -677.5 566.5 c 128,-1,21
 -701.5 588.5 -701.5 588.5 -701.5 618.5 c 0,22,23
 -701.5 640.5 -701.5 640.5 -687.5 660.5 c 0,0,1
EndSplineSet
Validated: 1
EndChar

StartChar: uniEC6A
Encoding: 113 60522 113
Width: 901
VWidth: 1677
Flags: W
LayerCount: 2
Fore
SplineSet
335 241.5 m 1,0,-1
 31 -124.5 l 1,1,2
 155 -108.5 155 -108.5 279 -108.5 c 0,3,4
 443 -108.5 443 -108.5 627 -136.5 c 1,5,6
 503 85.5 503 85.5 335 241.5 c 1,0,-1
435 361.5 m 1,7,8
 709 101.5 709 101.5 845 -212.5 c 0,9,10
 855 -236.5 855 -236.5 855 -258.5 c 0,11,12
 855 -326.5 855 -326.5 783 -326.5 c 0,13,14
 771 -326.5 771 -326.5 753 -322.5 c 0,15,16
 629 -292.5 629 -292.5 343 -268.5 c 0,17,18
 297 -264.5 297 -264.5 259 -264.5 c 0,19,20
 87 -264.5 87 -264.5 -149 -318.5 c 0,21,22
 -167 -322.5 -167 -322.5 -179 -322.5 c 0,23,24
 -257 -322.5 -257 -322.5 -257 -254.5 c 0,25,26
 -257 -222.5 -257 -222.5 -229 -188.5 c 2,27,-1
 211 343.5 l 1,28,29
 169 371.5 169 371.5 125 399.5 c 0,30,31
 73 439.5 73 439.5 73 477.5 c 0,32,33
 73 545.5 73 545.5 165 545.5 c 2,34,-1
 379 545.5 l 1,35,-1
 599 811.5 l 1,36,-1
 -35 809.5 l 2,37,38
 -115 809.5 -115 809.5 -115 889.5 c 256,39,40
 -115 969.5 -115 969.5 -35 969.5 c 2,41,-1
 799 971.5 l 1,42,-1
 799 875.5 l 1,43,-1
 797 797.5 l 1,44,-1
 587 545.5 l 1,45,-1
 771 545.5 l 2,46,47
 851 545.5 851 545.5 851 465.5 c 256,48,49
 851 385.5 851 385.5 771 385.5 c 2,50,-1
 455 385.5 l 1,51,-1
 435 361.5 l 1,7,8
EndSplineSet
Validated: 1
EndChar

StartChar: uniEC6B
Encoding: 114 60523 114
Width: 904
VWidth: 1683
Flags: W
LayerCount: 2
Fore
SplineSet
658 547 m 1,0,-1
 658 791 l 1,1,-1
 -60 791 l 2,2,3
 -140 791 -140 791 -140 871 c 256,4,5
 -140 951 -140 951 -60 951 c 2,6,-1
 738 951 l 2,7,8
 770 951 770 951 794 927 c 128,-1,9
 818 903 818 903 818 871 c 2,10,-1
 818 487 l 2,11,12
 822 469 822 469 818 451 c 2,13,-1
 818 -257 l 2,14,15
 818 -317 818 -317 746 -317 c 0,16,17
 712 -317 712 -317 674 -305 c 1,18,19
 274 221 274 221 -142 387 c 2,20,-1
 -152 391 l 1,21,22
 -228 393 -228 393 -228 473 c 0,23,24
 -228 551 -228 551 -156 551 c 0,25,26
 -144 551 -144 551 -130 549 c 2,27,-1
 658 547 l 1,0,-1
658 -37 m 1,28,-1
 658 391 l 1,29,-1
 194 391 l 1,30,31
 420 231 420 231 658 -37 c 1,28,-1
EndSplineSet
Validated: 1
EndChar

StartChar: uniEC6C
Encoding: 115 60524 115
Width: 872
VWidth: 1678
Flags: W
LayerCount: 2
Fore
SplineSet
462 -165.010742188 m 0,0,1
 522 -165.010742188 522 -165.010742188 584 -47.0107421875 c 0,2,3
 656 90.9892578125 656 90.9892578125 656 304.989257812 c 0,4,5
 656 436.989257812 656 436.989257812 630 584.989257812 c 0,6,7
 590 808.989257812 590 808.989257812 506 806.989257812 c 0,8,9
 426 804.989257812 426 804.989257812 394 588.989257812 c 0,10,11
 376 470.989257812 376 470.989257812 376 320.989257812 c 0,12,13
 376 92.9892578125 376 92.9892578125 330 -69.0107421875 c 0,14,15
 258 -325.010742188 258 -325.010742188 82 -325.010742188 c 0,16,17
 -98 -327.010742188 -98 -327.010742188 -184 -73.0107421875 c 0,18,19
 -244 102.989257812 -244 102.989257812 -244 320.989257812 c 256,20,21
 -244 538.989257812 -244 538.989257812 -184 714.989257812 c 0,22,23
 -100 964.989257812 -100 964.989257812 80 964.989257812 c 0,24,25
 160 964.989257812 160 964.989257812 160 884.989257812 c 256,26,27
 160 804.989257812 160 804.989257812 80 804.989257812 c 0,28,29
 -10 804.989257812 -10 804.989257812 -54 592.989257812 c 0,30,31
 -84 450.989257812 -84 450.989257812 -84 320.989257812 c 256,32,33
 -84 190.989257812 -84 190.989257812 -54 48.9892578125 c 0,34,35
 -8 -167.010742188 -8 -167.010742188 80 -165.010742188 c 0,36,37
 152 -165.010742188 152 -165.010742188 190 40.9892578125 c 0,38,39
 216 180.989257812 216 180.989257812 216 320.989257812 c 0,40,41
 216 960.989257812 216 960.989257812 502 966.989257812 c 0,42,43
 682 970.989257812 682 970.989257812 762 708.989257812 c 0,44,45
 816 532.989257812 816 532.989257812 816 304.989257812 c 0,46,47
 816 92.9892578125 816 92.9892578125 742 -87.0107421875 c 0,48,49
 644 -325.010742188 644 -325.010742188 462 -325.010742188 c 0,50,51
 382 -325.010742188 382 -325.010742188 382 -245.010742188 c 256,52,53
 382 -165.010742188 382 -165.010742188 462 -165.010742188 c 0,0,1
EndSplineSet
Validated: 33
EndChar

StartChar: uniEC6D
Encoding: 116 60525 116
Width: 900
VWidth: 1674
Flags: W
LayerCount: 2
Fore
SplineSet
410.5 186.5 m 1,0,1
 410.5 92.5 410.5 92.5 412.5 -61.5 c 2,2,-1
 414.5 -245.5 l 2,3,4
 414.5 -325.5 414.5 -325.5 334.5 -325.5 c 256,5,6
 254.5 -325.5 254.5 -325.5 254.5 -245.5 c 0,7,8
 254.5 -173.5 254.5 -173.5 252.5 -29.5 c 128,-1,9
 250.5 114.5 250.5 114.5 250.5 186.5 c 1,10,11
 148.5 200.5 148.5 200.5 70.5 246.5 c 0,12,13
 -25.5 300.5 -25.5 300.5 -45.5 386.5 c 2,14,-1
 -143.5 808.5 l 1,15,16
 -153.5 806.5 -153.5 806.5 -165.5 806.5 c 0,17,18
 -199.5 806.5 -199.5 806.5 -220.5 830.5 c 128,-1,19
 -241.5 854.5 -241.5 854.5 -241.5 888.5 c 0,20,21
 -241.5 968.5 -241.5 968.5 -145.5 968.5 c 0,22,23
 -69.5 968.5 -69.5 968.5 -21.5 912.5 c 0,24,25
 20.5 862.5 20.5 862.5 28.5 784.5 c 0,26,27
 36.5 690.5 36.5 690.5 110.5 422.5 c 0,28,29
 122.5 376.5 122.5 376.5 254.5 350.5 c 1,30,31
 262.5 620.5 262.5 620.5 294.5 712.5 c 0,32,33
 330.5 818.5 330.5 818.5 440.5 897.5 c 128,-1,34
 550.5 976.5 550.5 976.5 662.5 976.5 c 0,35,36
 840.5 976.5 840.5 976.5 840.5 786.5 c 0,37,38
 840.5 650.5 840.5 650.5 714.5 370.5 c 0,39,40
 644.5 214.5 644.5 214.5 410.5 186.5 c 1,0,1
682.5 804.5 m 1,41,42
 668.5 808.5 668.5 808.5 650.5 808.5 c 0,43,44
 580.5 808.5 580.5 808.5 525.5 768.5 c 128,-1,45
 470.5 728.5 470.5 728.5 446.5 662.5 c 0,46,47
 420.5 588.5 420.5 588.5 414.5 344.5 c 1,48,49
 534.5 360.5 534.5 360.5 570.5 438.5 c 0,50,51
 682.5 684.5 682.5 684.5 682.5 800.5 c 2,52,-1
 682.5 804.5 l 1,41,42
EndSplineSet
Validated: 1
EndChar

StartChar: uniEC6E
Encoding: 117 60526 117
Width: 900
VWidth: 1673
Flags: W
LayerCount: 2
Fore
SplineSet
242 745.5 m 1,0,1
 242 749.5 242 749.5 232 891.5 c 0,2,3
 230 929.5 230 929.5 253 953.5 c 128,-1,4
 276 977.5 276 977.5 314 977.5 c 0,5,6
 388 977.5 388 977.5 392 903.5 c 0,7,8
 394 861.5 394 861.5 400 743.5 c 1,9,10
 612 735.5 612 735.5 662 725.5 c 0,11,12
 848 693.5 848 693.5 848 585.5 c 0,13,14
 848 535.5 848 535.5 808 457.5 c 0,15,16
 732 309.5 732 309.5 598 197.5 c 0,17,18
 526 137.5 526 137.5 350 27.5 c 0,19,20
 182 -74.5 182 -74.5 104 -144.5 c 1,21,22
 186 -156.5 186 -156.5 278 -160.5 c 0,23,24
 330 -162.5 330 -162.5 454 -160.5 c 2,25,-1
 628 -158.5 l 2,26,27
 708 -158.5 708 -158.5 708 -238.5 c 256,28,29
 708 -318.5 708 -318.5 628 -318.5 c 0,30,31
 584 -318.5 584 -318.5 494 -321.5 c 128,-1,32
 404 -324.5 404 -324.5 360 -324.5 c 0,33,34
 -12 -324.5 -12 -324.5 -62 -238.5 c 1,35,-1
 -66 -228.5 l 2,36,37
 -82 -198.5 -82 -198.5 -82 -168.5 c 0,38,39
 -82 -84.5 -82 -84.5 40 11.5 c 0,40,41
 102 59.5 102 59.5 264 159.5 c 0,42,43
 410 251.5 410 251.5 484 315.5 c 0,44,45
 612 427.5 612 427.5 680 557.5 c 1,46,47
 588 573.5 588 573.5 406 583.5 c 1,48,49
 408 343.5 408 343.5 336 297.5 c 0,50,51
 302 275.5 302 275.5 244 275.5 c 0,52,53
 118 275.5 118 275.5 -56 373.5 c 0,54,55
 -248 481.5 -248 481.5 -248 595.5 c 0,56,57
 -248 745.5 -248 745.5 242 745.5 c 1,0,1
236 433.5 m 1,58,59
 248 501.5 248 501.5 248 585.5 c 1,60,-1
 248 585.5 l 1,61,62
 54 585.5 54 585.5 -70 559.5 c 1,63,64
 -32 525.5 -32 525.5 86 481.5 c 0,65,66
 186 443.5 186 443.5 236 433.5 c 1,58,59
EndSplineSet
Validated: 33
EndChar

StartChar: uniEC6F
Encoding: 118 60527 118
Width: 279
VWidth: 1081
Flags: W
LayerCount: 2
Fore
SplineSet
-280.5 1207 m 256,0,1
 -148.5 1207 -148.5 1207 -50.5 1131 c 0,2,3
 53.5 1047 53.5 1047 53.5 919 c 0,4,5
 53.5 789 53.5 789 -47.5 710 c 128,-1,6
 -148.5 631 -148.5 631 -280.5 631 c 256,7,8
 -412.5 631 -412.5 631 -508.5 707 c 0,9,10
 -612.5 789 -612.5 789 -612.5 919 c 0,11,12
 -612.5 1047 -612.5 1047 -508.5 1131 c 0,13,14
 -412.5 1207 -412.5 1207 -280.5 1207 c 256,0,1
-280.5 1073 m 256,15,16
 -358.5 1073 -358.5 1073 -422.5 1035 c 0,17,18
 -500.5 991 -500.5 991 -500.5 919 c 256,19,20
 -500.5 847 -500.5 847 -422.5 801 c 0,21,22
 -358.5 763 -358.5 763 -280.5 763 c 256,23,24
 -202.5 763 -202.5 763 -136.5 801 c 0,25,26
 -58.5 847 -58.5 847 -58.5 919 c 256,27,28
 -58.5 991 -58.5 991 -136.5 1035 c 0,29,30
 -202.5 1073 -202.5 1073 -280.5 1073 c 256,15,16
EndSplineSet
Validated: 1
EndChar

StartChar: uniEC70
Encoding: 119 60528 119
Width: 903
VWidth: 1674
Flags: W
LayerCount: 2
Fore
SplineSet
477 816.5 m 1,0,-1
 -77 816.5 l 2,1,2
 -157 816.5 -157 816.5 -157 896.5 c 256,3,4
 -157 976.5 -157 976.5 -77 976.5 c 2,5,-1
 789 976.5 l 1,6,-1
 789 820.5 l 1,7,8
 479 652.5 479 652.5 281 452.5 c 0,9,10
 53 222.5 53 222.5 -55 -91.5 c 1,11,-1
 -39 -85.5 l 2,12,13
 191 0.5 191 0.5 337 0.5 c 0,14,15
 487 0.5 487 0.5 683 -101.5 c 1,16,-1
 683 386.5 l 2,17,18
 683 466.5 683 466.5 763 466.5 c 256,19,20
 843 466.5 843 466.5 843 386.5 c 2,21,-1
 843 -241.5 l 2,22,23
 843 -323.5 843 -323.5 785 -323.5 c 0,24,25
 731 -323.5 731 -323.5 583 -229.5 c 1,26,27
 437 -159.5 437 -159.5 337 -159.5 c 0,28,29
 151 -159.5 151 -159.5 -87 -285.5 c 2,30,-1
 -121 -303.5 l 2,31,32
 -163 -325.5 -163 -325.5 -195 -325.5 c 0,33,34
 -249 -325.5 -249 -325.5 -249 -245.5 c 0,35,36
 -249 -143.5 -249 -143.5 -179 32.5 c 0,37,38
 11 508.5 11 508.5 477 816.5 c 1,0,-1
EndSplineSet
Validated: 1
EndChar

StartChar: uniEC71
Encoding: 120 60529 120
Width: 779
VWidth: 1678
Flags: W
LayerCount: 2
Fore
SplineSet
117.5 -133.666992188 m 1,0,-1
 123.5 -137.666992188 l 2,1,2
 179.5 -175.666992188 179.5 -175.666992188 321.5 -163.666992188 c 0,3,4
 359.5 -159.666992188 359.5 -159.666992188 383.5 -182.666992188 c 128,-1,5
 407.5 -205.666992188 407.5 -205.666992188 407.5 -243.666992188 c 0,6,7
 407.5 -317.666992188 407.5 -317.666992188 333.5 -323.666992188 c 0,8,9
 213.5 -331.666992188 213.5 -331.666992188 93.5 -291.666992188 c 0,10,11
 -54.5 -241.666992188 -54.5 -241.666992188 -54.5 -145.666992188 c 0,12,13
 -54.5 -105.666992188 -54.5 -105.666992188 -24.5 -57.6669921875 c 0,14,15
 -2.5 -23.6669921875 -2.5 -23.6669921875 179.5 136.333007812 c 0,16,17
 331.5 268.333007812 331.5 268.333007812 331.5 338.333007812 c 0,18,19
 331.5 396.333007812 331.5 396.333007812 131.5 396.333007812 c 0,20,21
 7.5 396.333007812 7.5 396.333007812 -64.5 384.333007812 c 0,22,23
 -104.5 378.333007812 -104.5 378.333007812 -137.5 396.333007812 c 128,-1,24
 -170.5 414.333007812 -170.5 414.333007812 -170.5 454.333007812 c 0,25,26
 -170.5 502.333007812 -170.5 502.333007812 -118.5 532.333007812 c 2,27,-1
 345.5 808.333007812 l 1,28,-1
 -82.5 808.333007812 l 2,29,30
 -162.5 808.333007812 -162.5 808.333007812 -162.5 888.333007812 c 256,31,32
 -162.5 968.333007812 -162.5 968.333007812 -82.5 968.333007812 c 2,33,-1
 671.5 968.333007812 l 1,34,35
 671.5 930.333007812 671.5 930.333007812 671.5 886.333007812 c 0,36,37
 671.5 858.333007812 671.5 858.333007812 669.5 822.333007812 c 1,38,-1
 229.5 552.333007812 l 1,39,40
 491.5 522.333007812 491.5 522.333007812 491.5 338.333007812 c 0,41,42
 491.5 210.333007812 491.5 210.333007812 349.5 76.3330078125 c 0,43,44
 309.5 38.3330078125 309.5 38.3330078125 117.5 -133.666992188 c 1,0,-1
EndSplineSet
Validated: 33
EndChar

StartChar: uniEC72
Encoding: 121 60530 121
Width: 902
VWidth: 1673
Flags: W
LayerCount: 2
Fore
SplineSet
414.360351562 817.31640625 m 1,0,1
 414.360351562 519.31640625 414.360351562 519.31640625 404.360351562 -244.68359375 c 0,2,3
 404.360351562 -324.68359375 404.360351562 -324.68359375 324.360351562 -324.68359375 c 256,4,5
 244.360351562 -324.68359375 244.360351562 -324.68359375 244.360351562 -244.68359375 c 2,6,-1
 244.360351562 865.31640625 l 2,7,8
 242.360351562 921.31640625 242.360351562 921.31640625 324.360351562 951.31640625 c 0,9,10
 384.360351562 975.31640625 384.360351562 975.31640625 454.360351562 977.31640625 c 0,11,12
 566.360351562 983.31640625 566.360351562 983.31640625 677.360351562 940.31640625 c 128,-1,13
 788.360351562 897.31640625 788.360351562 897.31640625 814.360351562 841.31640625 c 0,14,15
 854.360351562 755.31640625 854.360351562 755.31640625 854.360351562 689.31640625 c 0,16,17
 854.360351562 533.31640625 854.360351562 533.31640625 636.360351562 487.31640625 c 0,18,19
 542.360351562 467.31640625 542.360351562 467.31640625 310.360351562 467.31640625 c 0,20,21
 16.3603515625 467.31640625 16.3603515625 467.31640625 -71.6396484375 489.31640625 c 0,22,23
 -311.639648438 547.31640625 -311.639648438 547.31640625 -237.639648438 757.31640625 c 0,24,25
 -205.639648438 845.31640625 -205.639648438 845.31640625 -87.6396484375 907.31640625 c 128,-1,26
 30.3603515625 969.31640625 30.3603515625 969.31640625 180.360351562 969.31640625 c 0,27,28
 266.360351562 969.31640625 266.360351562 969.31640625 350.360351562 945.31640625 c 0,29,30
 408.360351562 929.31640625 408.360351562 929.31640625 408.360351562 871.31640625 c 0,31,32
 408.360351562 839.31640625 408.360351562 839.31640625 387.360351562 814.31640625 c 128,-1,33
 366.360351562 789.31640625 366.360351562 789.31640625 332.360351562 789.31640625 c 0,34,35
 318.360351562 789.31640625 318.360351562 789.31640625 306.360351562 793.31640625 c 0,36,37
 276.360351562 801.31640625 276.360351562 801.31640625 186.360351562 801.31640625 c 0,38,39
 -103.639648438 801.31640625 -103.639648438 801.31640625 -89.6396484375 667.31640625 c 1,40,41
 -63.6396484375 635.31640625 -63.6396484375 635.31640625 100.360351562 629.31640625 c 0,42,43
 112.360351562 627.31640625 112.360351562 627.31640625 310.360351562 627.31640625 c 0,44,45
 526.360351562 627.31640625 526.360351562 627.31640625 530.360351562 627.31640625 c 0,46,47
 682.360351562 633.31640625 682.360351562 633.31640625 694.360351562 663.31640625 c 1,48,49
 670.360351562 823.31640625 670.360351562 823.31640625 486.360351562 823.31640625 c 0,50,51
 454.360351562 823.31640625 454.360351562 823.31640625 414.360351562 817.31640625 c 1,0,1
EndSplineSet
Validated: 37
EndChar

StartChar: uniEC73
Encoding: 122 60531 122
Width: 860
VWidth: 1676
Flags: W
LayerCount: 2
Fore
SplineSet
318 632.98828125 m 1,0,1
 212 798.98828125 212 798.98828125 34 802.98828125 c 2,2,-1
 -128 806.98828125 l 2,3,4
 -208 808.98828125 -208 808.98828125 -208 886.98828125 c 0,5,6
 -208 968.98828125 -208 968.98828125 -128 966.98828125 c 2,7,-1
 32 962.98828125 l 2,8,9
 268 956.98828125 268 956.98828125 410 778.98828125 c 1,10,11
 446 830.98828125 446 830.98828125 516 914.98828125 c 0,12,13
 542 944.98828125 542 944.98828125 572 944.98828125 c 0,14,15
 636 944.98828125 636 944.98828125 718 840.98828125 c 0,16,17
 744 802.98828125 744 802.98828125 798 728.98828125 c 0,18,19
 820 704.98828125 820 704.98828125 820 676.98828125 c 0,20,21
 820 644.98828125 820 644.98828125 795 620.98828125 c 128,-1,22
 770 596.98828125 770 596.98828125 738 596.98828125 c 0,23,24
 704 596.98828125 704 596.98828125 678 624.98828125 c 2,25,-1
 576 732.98828125 l 1,26,27
 530 672.98828125 530 672.98828125 500 626.98828125 c 1,28,29
 592 422.98828125 592 422.98828125 592 154.98828125 c 0,30,31
 592 0.98828125 592 0.98828125 560 -131.01171875 c 0,32,33
 514 -321.01171875 514 -321.01171875 406 -321.01171875 c 0,34,35
 290 -321.01171875 290 -321.01171875 244 -99.01171875 c 0,36,37
 218 24.98828125 218 24.98828125 218 194.98828125 c 0,38,39
 218 442.98828125 218 442.98828125 318 632.98828125 c 1,0,1
406 -87.01171875 m 1,40,41
 430 18.98828125 430 18.98828125 430 152.98828125 c 0,42,43
 430 290.98828125 430 290.98828125 402 412.98828125 c 1,44,45
 378 318.98828125 378 318.98828125 378 194.98828125 c 0,46,47
 378 30.98828125 378 30.98828125 406 -87.01171875 c 1,40,41
EndSplineSet
Validated: 33
EndChar

StartChar: uniEC74
Encoding: 123 60532 123
Width: 899
VWidth: 1672
Flags: W
LayerCount: 2
Fore
SplineSet
403.510742188 592 m 1,0,1
 483.510742188 674 483.510742188 674 599.510742188 822 c 1,2,-1
 -80.4892578125 822 l 2,3,4
 -160.489257812 822 -160.489257812 822 -160.489257812 902 c 256,5,6
 -160.489257812 982 -160.489257812 982 -80.4892578125 982 c 2,7,-1
 723.510742188 982 l 2,8,9
 753.510742188 982 753.510742188 982 784.510742188 947 c 128,-1,10
 815.510742188 912 815.510742188 912 815.510742188 882 c 0,11,12
 815.510742188 816 815.510742188 816 745.510742188 725 c 128,-1,13
 675.510742188 634 675.510742188 634 503.510742188 468 c 1,14,15
 545.510742188 386 545.510742188 386 665.510742188 158 c 2,16,-1
 681.510742188 128 l 1,17,-1
 681.510742188 450 l 2,18,19
 681.510742188 530 681.510742188 530 761.510742188 530 c 256,20,21
 841.510742188 530 841.510742188 530 841.510742188 450 c 2,22,-1
 841.510742188 -234 l 2,23,24
 841.510742188 -326 841.510742188 -326 767.510742188 -326 c 0,25,26
 713.510742188 -326 713.510742188 -326 687.510742188 -268 c 0,27,28
 657.510742188 -200 657.510742188 -200 521.510742188 88 c 0,29,30
 459.510742188 220 459.510742188 220 383.510742188 364 c 1,31,32
 299.510742188 308 299.510742188 308 83.5107421875 308 c 0,33,34
 -236.489257812 308 -236.489257812 308 -240.489257812 488 c 0,35,36
 -242.489257812 570 -242.489257812 570 -150.489257812 622 c 0,37,38
 -80.4892578125 660 -80.4892578125 660 15.5107421875 672 c 0,39,40
 63.5107421875 678 63.5107421875 678 107.510742188 678 c 0,41,42
 291.510742188 678 291.510742188 678 403.510742188 592 c 1,0,1
-58.4892578125 488 m 1,43,44
 -4.4892578125 468 -4.4892578125 468 95.5107421875 468 c 256,45,46
 195.510742188 468 195.510742188 468 265.510742188 488 c 1,47,48
 191.510742188 518 191.510742188 518 99.5107421875 518 c 256,49,50
 7.5107421875 518 7.5107421875 518 -58.4892578125 488 c 1,43,44
EndSplineSet
Validated: 33
EndChar

StartChar: uniEC75
Encoding: 124 60533 124
Width: 318
VWidth: 1243
Flags: W
LayerCount: 2
Fore
SplineSet
-661.5 837 m 2,0,-1
 24.5 837 l 2,1,2
 104.5 837 104.5 837 104.5 757 c 256,3,4
 104.5 677 104.5 677 24.5 677 c 2,5,-1
 -661.5 677 l 2,6,7
 -741.5 677 -741.5 677 -741.5 757 c 256,8,9
 -741.5 837 -741.5 837 -661.5 837 c 2,0,-1
EndSplineSet
Validated: 1
EndChar

StartChar: uniEC76
Encoding: 125 60534 125
Width: 821
VWidth: 1670
Flags: W
LayerCount: 2
Fore
SplineSet
507.494140625 378 m 1,0,-1
 153.494140625 378 l 1,1,2
 337.494140625 220 337.494140625 220 417.494140625 34 c 1,3,4
 471.494140625 226 471.494140625 226 507.494140625 378 c 1,0,-1
63.494140625 818 m 1,5,6
 11.494140625 830 11.494140625 830 -10.505859375 828 c 0,7,8
 -88.505859375 824 -88.505859375 824 -92.505859375 824 c 0,9,10
 -170.505859375 826 -170.505859375 826 -170.505859375 902 c 0,11,12
 -170.505859375 974 -170.505859375 974 -88.505859375 984 c 1,13,14
 -96.505859375 984 -96.505859375 984 -79.505859375 986 c 128,-1,15
 -62.505859375 988 -62.505859375 988 -40.505859375 990 c 0,16,17
 -12.505859375 990 -12.505859375 990 16.494140625 988 c 128,-1,18
 45.494140625 986 45.494140625 986 115.494140625 970 c 0,19,20
 149.494140625 960 149.494140625 960 187.494140625 910 c 0,21,22
 211.494140625 876 211.494140625 876 261.494140625 810 c 1,23,-1
 269.494140625 818 l 2,24,25
 321.494140625 874 321.494140625 874 393.494140625 944 c 0,26,27
 439.494140625 978 439.494140625 978 445.494140625 980 c 0,28,29
 467.494140625 992 467.494140625 992 503.494140625 992 c 0,30,31
 535.494140625 992 535.494140625 992 571.494140625 986 c 0,32,33
 731.494140625 960 731.494140625 960 729.494140625 770 c 0,34,35
 729.494140625 672 729.494140625 672 703.494140625 518 c 1,36,37
 729.494140625 496 729.494140625 496 729.494140625 458 c 0,38,39
 729.494140625 400 729.494140625 400 677.494140625 382 c 1,40,41
 627.494140625 154 627.494140625 154 501.494140625 -262 c 0,42,43
 479.494140625 -332 479.494140625 -332 425.494140625 -332 c 0,44,45
 367.494140625 -332 367.494140625 -332 345.494140625 -254 c 0,46,47
 339.494140625 -220 339.494140625 -220 309.494140625 -128 c 0,48,49
 247.494140625 60 247.494140625 60 143.494140625 174 c 0,50,51
 121.494140625 200 121.494140625 200 -128.505859375 386 c 2,52,-1
 -136.505859375 392 l 2,53,54
 -146.505859375 398 -146.505859375 398 -160.505859375 408 c 1,55,-1
 -168.505859375 432 l 2,56,57
 -176.505859375 450 -176.505859375 450 -176.505859375 466 c 0,58,59
 -176.505859375 494 -176.505859375 494 -150.505859375 515 c 128,-1,60
 -124.505859375 536 -124.505859375 536 -94.505859375 536 c 2,61,-1
 541.494140625 536 l 1,62,63
 573.494140625 694 573.494140625 694 573.494140625 766 c 0,64,65
 573.494140625 800 573.494140625 800 565.494140625 814 c 0,66,67
 545.494140625 826 545.494140625 826 505.494140625 826 c 0,68,69
 483.494140625 826 483.494140625 826 478.494140625 819 c 128,-1,70
 473.494140625 812 473.494140625 812 469.494140625 804 c 0,71,72
 455.494140625 790 455.494140625 790 383.494140625 716 c 2,73,-1
 331.494140625 662 l 2,74,75
 327.494140625 656 327.494140625 656 321.494140625 656 c 2,76,-1
 249.494140625 690 l 1,77,78
 177.494140625 660 177.494140625 660 179.494140625 654 c 1,79,80
 103.494140625 784 103.494140625 784 63.494140625 818 c 1,5,6
EndSplineSet
Validated: 33
EndChar

StartChar: uniEC77
Encoding: 126 60535 126
Width: 778
VWidth: 1675
Flags: W
LayerCount: 2
Fore
SplineSet
260.5 973 m 256,0,1
 500.5 973 500.5 973 622.5 757 c 0,2,3
 720.5 583 720.5 583 720.5 323 c 0,4,5
 720.5 65 720.5 65 620.5 -109 c 0,6,7
 498.5 -323 498.5 -323 260.5 -323 c 0,8,9
 20.5 -323 20.5 -323 -97.5 -101 c 0,10,11
 -193.5 75 -193.5 75 -193.5 335 c 0,12,13
 -193.5 593 -193.5 593 -97.5 763 c 0,14,15
 20.5 973 20.5 973 260.5 973 c 256,0,1
260.5 813 m 0,16,17
 -33.5 813 -33.5 813 -33.5 335 c 0,18,19
 -33.5 141 -33.5 141 18.5 15 c 0,20,21
 94.5 -163 94.5 -163 260.5 -163 c 0,22,23
 428.5 -163 428.5 -163 504.5 7 c 0,24,25
 560.5 133 560.5 133 560.5 323 c 256,26,27
 560.5 513 560.5 513 504.5 641 c 0,28,29
 426.5 813 426.5 813 260.5 813 c 0,16,17
EndSplineSet
Validated: 1
EndChar

StartChar: uniEC78
Encoding: 127 60536 127
Width: 898
VWidth: 1672
Flags: W
LayerCount: 2
Fore
SplineSet
770 -321.5 m 2,0,-1
 328 -319.5 l 1,1,2
 72 -309.5 72 -309.5 -26 -283.5 c 0,3,4
 -246 -225.5 -246 -225.5 -246 -57.5 c 0,5,6
 -246 124.5 -246 124.5 -64 346.5 c 1,7,8
 -218 398.5 -218 398.5 -226 502.5 c 0,9,10
 -232 576.5 -232 576.5 -208 678.5 c 0,11,12
 -192 736.5 -192 736.5 -166 850.5 c 0,13,14
 -158 886.5 -158 886.5 -146 934.5 c 1,15,16
 -126 976.5 -126 976.5 -76 976.5 c 0,17,18
 4 976.5 4 976.5 4 896.5 c 0,19,20
 2 886.5 2 886.5 -2 862.5 c 2,21,-1
 -10 820.5 l 2,22,23
 -22 766.5 -22 766.5 -46 658.5 c 0,24,25
 -74 522.5 -74 522.5 -66 504.5 c 0,26,27
 -58 488.5 -58 488.5 82 476.5 c 1,28,29
 312 622.5 312 622.5 576 622.5 c 0,30,31
 714 622.5 714 622.5 790 564.5 c 0,32,33
 848 520.5 848 520.5 848 472.5 c 0,34,35
 848 386.5 848 386.5 636 340.5 c 0,36,37
 464 302.5 464 302.5 268 302.5 c 0,38,39
 190 302.5 190 302.5 122 308.5 c 1,40,41
 52 250.5 52 250.5 -16 126.5 c 0,42,43
 -90 -5.5 -90 -5.5 -86 -85.5 c 1,44,45
 -28 -143.5 -28 -143.5 336 -157.5 c 0,46,47
 436 -161.5 436 -161.5 770 -161.5 c 0,48,49
 850 -161.5 850 -161.5 850 -241.5 c 256,50,51
 850 -321.5 850 -321.5 770 -321.5 c 2,0,-1
EndSplineSet
Validated: 33
EndChar

StartChar: uniEC79
Encoding: 128 60537 128
Width: 897
VWidth: 1676
Flags: W
LayerCount: 2
Fore
SplineSet
-8.7998046875 -150 m 1,0,1
 41.2001953125 -128 41.2001953125 -128 41.2001953125 -76 c 0,2,3
 41.2001953125 -10 41.2001953125 -10 -12.7998046875 -14 c 0,4,5
 -38.7998046875 -16 -38.7998046875 -16 -63.7998046875 -39 c 128,-1,6
 -88.7998046875 -62 -88.7998046875 -62 -88.7998046875 -88 c 0,7,8
 -88.7998046875 -134 -88.7998046875 -134 -8.7998046875 -150 c 1,0,1
-0.7998046875 970 m 2,9,-1
 771.200195312 970 l 2,10,11
 809.200195312 970 809.200195312 970 833.200195312 944 c 128,-1,12
 857.200195312 918 857.200195312 918 851.200195312 880 c 0,13,14
 837.200195312 790 837.200195312 790 785.200195312 534 c 1,15,16
 697.200195312 166 697.200195312 166 571.200195312 -36 c 0,17,18
 391.200195312 -322 391.200195312 -322 95.2001953125 -322 c 0,19,20
 49.2001953125 -322 49.2001953125 -322 -0.7998046875 -314 c 0,21,22
 -30.7998046875 -316 -30.7998046875 -316 -50.7998046875 -306 c 0,23,24
 -246.799804688 -262 -246.799804688 -262 -246.799804688 -90 c 0,25,26
 -246.799804688 4 -246.799804688 4 -182.799804688 71 c 128,-1,27
 -118.799804688 138 -118.799804688 138 -24.7998046875 146 c 0,28,29
 75.2001953125 154 75.2001953125 154 137.200195312 89 c 128,-1,30
 199.200195312 24 199.200195312 24 199.200195312 -78 c 0,31,32
 199.200195312 -112 199.200195312 -112 191.200195312 -144 c 1,33,34
 379.200195312 -92 379.200195312 -92 493.200195312 146 c 0,35,36
 551.200195312 266 551.200195312 266 629.200195312 574 c 0,37,38
 655.200195312 678 655.200195312 678 677.200195312 810 c 1,39,-1
 -0.7998046875 810 l 2,40,41
 -80.7998046875 810 -80.7998046875 810 -80.7998046875 890 c 256,42,43
 -80.7998046875 970 -80.7998046875 970 -0.7998046875 970 c 2,9,-1
EndSplineSet
Validated: 33
EndChar

StartChar: uniEC7A
Encoding: 129 60538 129
Width: 818
VWidth: 1674
Flags: W
LayerCount: 2
Fore
SplineSet
468 300 m 1,0,1
 436 304 436 304 406 304 c 0,2,3
 196 304 196 304 62 182 c 0,4,5
 -40 90 -40 90 -40 -6 c 0,6,7
 -40 -162 -40 -162 156 -162 c 0,8,9
 206 -162 206 -162 264 -150 c 0,10,11
 384 -124 384 -124 468 -64 c 0,12,13
 574 14 574 14 574 122 c 0,14,15
 574 226 574 226 468 300 c 1,0,1
292 542 m 1,16,17
 444 508 444 508 530 450 c 2,18,-1
 542 442 l 2,19,20
 736 312 736 312 736 128 c 0,21,22
 736 -40 736 -40 596 -164 c 0,23,24
 474 -272 474 -272 296 -308 c 0,25,26
 218 -324 218 -324 148 -324 c 0,27,28
 -2 -324 -2 -324 -94 -250 c 0,29,30
 -196 -168 -196 -168 -196 -24 c 0,31,32
 -196 118 -196 118 -100 240 c 0,33,34
 -12 352 -12 352 126 410 c 1,35,36
 114 412 114 412 74 414 c 0,37,38
 -14 418 -14 418 -14 486 c 0,39,40
 -14 526 -14 526 34 560 c 2,41,-1
 394 816 l 1,42,-1
 -70 814 l 2,43,44
 -150 814 -150 814 -150 894 c 256,45,46
 -150 974 -150 974 -70 974 c 2,47,-1
 666 976 l 1,48,-1
 666 800 l 1,49,-1
 292 542 l 1,16,17
EndSplineSet
Validated: 1
EndChar

StartChar: uniECB2
Encoding: 130 60594 130
Width: 503
VWidth: 1434
Flags: W
LayerCount: 2
Fore
SplineSet
-27 928.5 m 2,0,-1
 -27 254.5 l 1,1,-1
 403 254.5 l 2,2,3
 455 254.5 455 254.5 455 202.5 c 0,4,5
 455 152.5 455 152.5 403 152.5 c 2,6,-1
 -79 152.5 l 2,7,8
 -129 152.5 -129 152.5 -129 202.5 c 2,9,-1
 -129 928.5 l 2,10,11
 -129 978.5 -129 978.5 -79 978.5 c 0,12,13
 -27 978.5 -27 978.5 -27 928.5 c 2,0,-1
EndSplineSet
Validated: 1
EndChar

StartChar: q_character
Encoding: 131 60798 131
Width: 2048
Flags: W
LayerCount: 2
Fore
SplineSet
336 973 m 17,0,1
 367 987 367 987 1251 1463 c 9,2,-1
 1301 1308 l 25,3,-1
 906 1008 l 1,4,-1
 911 815 l 1,5,6
 1598 1216 1598 1216 1376 325 c 0,7,8
 1276 -75 1276 -75 366 250 c 1,9,-1
 501 375 l 1,10,11
 1486 140 1486 140 1151 685 c 0,12,-1
 771 535 l 1,13,-1
 721 958 l 1,14,-1
 381 803 l 25,15,-1
 336 973 l 17,0,1
EndSplineSet
EndChar
